<svg xmlns="http://www.w3.org/2000/svg" width="54" height="54" viewBox="0 0 54 54">
  <g id="Group_108" data-name="Group 108" transform="translate(-424 -448)">
    <rect id="Rectangle_126" data-name="Rectangle 126" width="54" height="54" rx="27" transform="translate(424 448)" fill="#a300cb"/>
    <g id="Group_106" data-name="Group 106" transform="translate(437.702 455.254)">
      <g id="Group_105" data-name="Group 105" transform="translate(0 0)">
        <path id="Path_43" data-name="Path 43" d="M56.511,450.125a.611.611,0,1,1-.611-.612A.611.611,0,0,1,56.511,450.125Z" transform="translate(-53.311 -449.513)" fill="#fff"/>
        <g id="Group_104" data-name="Group 104" transform="translate(0 3.721)">
          <path id="Path_44" data-name="Path 44" d="M84.239,487.49a8.373,8.373,0,0,0-2.806-2.542,7.348,7.348,0,0,0,2.223-2.542,6.042,6.042,0,0,0,.565-4.124,7.1,7.1,0,0,0-2.655-4.369,9.126,9.126,0,0,0-6.083-1.921l-8.082.025v24.088H63.394v3.756H75.521a10.793,10.793,0,0,0,6.968-2.2,7.369,7.369,0,0,0,2.937-5.517A6.746,6.746,0,0,0,84.239,487.49ZM68.7,476.925h6.1a5.08,5.08,0,0,1,2.957.754,2.4,2.4,0,0,1,1.074,2.071,2.778,2.778,0,0,1-1.074,2.335,4.8,4.8,0,0,1-2.995.829H68.7Zm10.112,16.892a5.018,5.018,0,0,1-3.6,1.111H68.7v-7.156h6.628a4.923,4.923,0,0,1,3.522,1.074,3.337,3.337,0,0,1,1.111,2.466A3.408,3.408,0,0,1,78.816,493.817Z" transform="translate(-58.988 -468.979)" fill="#fff"/>
          <path id="Path_45" data-name="Path 45" d="M68.472,546.672a2.484,2.484,0,1,1-2.484-2.484A2.484,2.484,0,0,1,68.472,546.672Z" transform="translate(-59.065 -519.546)" fill="#fff"/>
          <path id="Path_46" data-name="Path 46" d="M74.361,506.882a.8.8,0,1,1-.8-.8A.8.8,0,0,1,74.361,506.882Z" transform="translate(-65.543 -492.853)" fill="#fff"/>
          <path id="Path_47" data-name="Path 47" d="M73.563,511.155a2.394,2.394,0,1,1-2.393-2.393A2.394,2.394,0,0,1,73.563,511.155Z" transform="translate(-62.757 -494.733)" fill="#fff"/>
          <path id="Path_48" data-name="Path 48" d="M70.889,530.118A2.119,2.119,0,1,1,68.771,528,2.119,2.119,0,0,1,70.889,530.118Z" transform="translate(-61.27 -508.207)" fill="#fff"/>
          <path id="Path_49" data-name="Path 49" d="M73.291,489.114a1.6,1.6,0,1,1-1.6-1.6A1.6,1.6,0,0,1,73.291,489.114Z" transform="translate(-63.674 -479.849)" fill="#fff"/>
          <path id="Path_50" data-name="Path 50" d="M51.688,477.961a1.206,1.206,0,1,1-1.206-1.207A1.206,1.206,0,0,1,51.688,477.961Z" transform="translate(-49.099 -472.314)" fill="#fff"/>
          <path id="Path_51" data-name="Path 51" d="M61.011,470.622a1.206,1.206,0,1,1-1.206-1.206A1.207,1.207,0,0,1,61.011,470.622Z" transform="translate(-55.629 -467.175)" fill="#fff"/>
          <path id="Path_52" data-name="Path 52" d="M61.011,487.429a1.206,1.206,0,1,1-1.206-1.206A1.206,1.206,0,0,1,61.011,487.429Z" transform="translate(-55.629 -478.947)" fill="#fff"/>
          <path id="Path_53" data-name="Path 53" d="M62.412,499.919a1.708,1.708,0,1,1-1.708-1.708A1.708,1.708,0,0,1,62.412,499.919Z" transform="translate(-55.908 -487.343)" fill="#fff"/>
          <path id="Path_54" data-name="Path 54" d="M75.15,501.912a1.207,1.207,0,1,1-1.207-1.207A1.207,1.207,0,0,1,75.15,501.912Z" transform="translate(-65.531 -489.09)" fill="#fff"/>
          <path id="Path_55" data-name="Path 55" d="M71.173,539.73a1.906,1.906,0,1,1-1.906-1.907A1.906,1.906,0,0,1,71.173,539.73Z" transform="translate(-61.766 -515.088)" fill="#fff"/>
          <path id="Path_56" data-name="Path 56" d="M75.2,496.731a.913.913,0,1,1-.913-.913A.913.913,0,0,1,75.2,496.731Z" transform="translate(-65.978 -485.667)" fill="#fff"/>
          <path id="Path_57" data-name="Path 57" d="M55.029,466.626a.611.611,0,1,1-.611-.611A.611.611,0,0,1,55.029,466.626Z" transform="translate(-52.273 -464.793)" fill="#fff"/>
          <path id="Path_58" data-name="Path 58" d="M49.91,462.546a.611.611,0,1,1-.611-.611A.612.612,0,0,1,49.91,462.546Z" transform="translate(-48.687 -461.935)" fill="#fff"/>
          <path id="Path_59" data-name="Path 59" d="M74.95,523.971a1.1,1.1,0,1,1-1.1-1.1A1.1,1.1,0,0,1,74.95,523.971Z" transform="translate(-65.543 -504.617)" fill="#fff"/>
          <path id="Path_60" data-name="Path 60" d="M74.215,473.989a1.907,1.907,0,1,1-1.906-1.907A1.907,1.907,0,0,1,74.215,473.989Z" transform="translate(-63.896 -469.042)" fill="#fff"/>
          <path id="Path_61" data-name="Path 61" d="M74.578,484.09a.913.913,0,1,1-.912-.913A.913.913,0,0,1,74.578,484.09Z" transform="translate(-65.543 -476.813)" fill="#fff"/>
        </g>
      </g>
    </g>
  </g>
</svg>
