<svg xmlns="http://www.w3.org/2000/svg" width="105" height="40.053" viewBox="0 0 105 40.053">
  <g id="Group_109" data-name="Group 109" transform="translate(-100 -60.85)">
    <path id="Path_25" data-name="Path 25" d="M342.611,262.313h-6.574l-4.523-20.143h-.251l-4.648,20.143H320.04L312.921,231.2h5.569l4.774,21.19h.25l4.565-21.148h6.408l4.732,21.148h.25l4.649-21.19h5.695Z" transform="translate(-182.294 -161.787)" fill="#fff"/>
    <path id="Path_26" data-name="Path 26" d="M414.124,262.569l-2.679-6.784H398.462l-2.637,6.784h-6.155l12.019-30.906h6.533l12.06,30.906Zm-9.129-23.619L400.641,250.3h8.668Z" transform="translate(-224.536 -162.043)" fill="#fff"/>
    <path id="Path_27" data-name="Path 27" d="M465.112,262.281v-30.99h5.948v31.073Z" transform="translate(-266.06 -161.839)" fill="#fff"/>
    <g id="Group_80" data-name="Group 80" transform="translate(51.313 -388.663)">
      <path id="Path_62" data-name="Path 62" d="M56.7,450.221a.707.707,0,1,1-.707-.708A.707.707,0,0,1,56.7,450.221Z" transform="translate(-4.313)" fill="#fff"/>
      <g id="Group_107" data-name="Group 107" transform="translate(48.687 453.82)">
        <path id="Path_63" data-name="Path 63" d="M87.522,489.93a9.692,9.692,0,0,0-3.248-2.943,8.506,8.506,0,0,0,2.573-2.942,6.993,6.993,0,0,0,.654-4.773,8.221,8.221,0,0,0-3.073-5.057,10.564,10.564,0,0,0-7.041-2.223l-9.355.029V499.9H63.394v4.348H77.43A12.492,12.492,0,0,0,85.5,501.7a8.529,8.529,0,0,0,3.4-6.386A7.809,7.809,0,0,0,87.522,489.93ZM69.54,477.7H76.6a5.88,5.88,0,0,1,3.423.872,2.773,2.773,0,0,1,1.243,2.4,3.216,3.216,0,0,1-1.243,2.7,5.554,5.554,0,0,1-3.466.959H69.54Zm11.7,19.552a5.809,5.809,0,0,1-4.163,1.286H69.54v-8.283h7.671a5.7,5.7,0,0,1,4.076,1.243,3.863,3.863,0,0,1,1.286,2.855A3.945,3.945,0,0,1,81.245,497.254Z" transform="translate(-58.294 -468.505)" fill="#fff"/>
        <path id="Path_64" data-name="Path 64" d="M69.254,547.063a2.875,2.875,0,1,1-2.875-2.875A2.875,2.875,0,0,1,69.254,547.063Z" transform="translate(-58.366 -515.666)" fill="#fff"/>
        <path id="Path_65" data-name="Path 65" d="M74.614,507.009a.93.93,0,1,1-.93-.931A.93.93,0,0,1,74.614,507.009Z" transform="translate(-64.408 -490.771)" fill="#fff"/>
        <path id="Path_66" data-name="Path 66" d="M74.317,511.532a2.771,2.771,0,1,1-2.77-2.77A2.771,2.771,0,0,1,74.317,511.532Z" transform="translate(-61.809 -492.524)" fill="#fff"/>
        <path id="Path_67" data-name="Path 67" d="M71.557,530.452A2.452,2.452,0,1,1,69.1,528,2.452,2.452,0,0,1,71.557,530.452Z" transform="translate(-60.422 -505.09)" fill="#fff"/>
        <path id="Path_68" data-name="Path 68" d="M73.8,489.366a1.856,1.856,0,1,1-1.856-1.855A1.856,1.856,0,0,1,73.8,489.366Z" transform="translate(-62.665 -478.642)" fill="#fff"/>
        <path id="Path_69" data-name="Path 69" d="M52.067,478.151a1.4,1.4,0,1,1-1.4-1.4A1.4,1.4,0,0,1,52.067,478.151Z" transform="translate(-49.071 -471.615)" fill="#fff"/>
        <path id="Path_70" data-name="Path 70" d="M61.391,470.812a1.4,1.4,0,1,1-1.4-1.4A1.4,1.4,0,0,1,61.391,470.812Z" transform="translate(-55.161 -466.822)" fill="#fff"/>
        <path id="Path_71" data-name="Path 71" d="M61.391,487.619a1.4,1.4,0,1,1-1.4-1.4A1.4,1.4,0,0,1,61.391,487.619Z" transform="translate(-55.161 -477.801)" fill="#fff"/>
        <path id="Path_72" data-name="Path 72" d="M62.95,500.188a1.976,1.976,0,1,1-1.977-1.977A1.977,1.977,0,0,1,62.95,500.188Z" transform="translate(-55.422 -485.632)" fill="#fff"/>
        <path id="Path_73" data-name="Path 73" d="M75.531,502.1a1.4,1.4,0,1,1-1.4-1.4A1.4,1.4,0,0,1,75.531,502.1Z" transform="translate(-64.397 -487.261)" fill="#fff"/>
        <path id="Path_74" data-name="Path 74" d="M71.773,540.03a2.207,2.207,0,1,1-2.206-2.207A2.207,2.207,0,0,1,71.773,540.03Z" transform="translate(-60.885 -511.508)" fill="#fff"/>
        <path id="Path_75" data-name="Path 75" d="M75.487,496.874a1.057,1.057,0,1,1-1.056-1.056A1.057,1.057,0,0,1,75.487,496.874Z" transform="translate(-64.813 -484.069)" fill="#fff"/>
        <path id="Path_76" data-name="Path 76" d="M55.221,466.722a.707.707,0,1,1-.707-.707A.707.707,0,0,1,55.221,466.722Z" transform="translate(-52.032 -464.6)" fill="#fff"/>
        <path id="Path_77" data-name="Path 77" d="M50.1,462.642a.708.708,0,1,1-.707-.707A.708.708,0,0,1,50.1,462.642Z" transform="translate(-48.687 -461.935)" fill="#fff"/>
        <path id="Path_78" data-name="Path 78" d="M75.3,524.144a1.272,1.272,0,1,1-1.271-1.271A1.271,1.271,0,0,1,75.3,524.144Z" transform="translate(-64.408 -501.742)" fill="#fff"/>
        <path id="Path_79" data-name="Path 79" d="M74.816,474.289a2.207,2.207,0,1,1-2.206-2.207A2.207,2.207,0,0,1,74.816,474.289Z" transform="translate(-62.872 -468.563)" fill="#fff"/>
        <path id="Path_80" data-name="Path 80" d="M74.866,484.233a1.056,1.056,0,1,1-1.056-1.056A1.057,1.057,0,0,1,74.866,484.233Z" transform="translate(-64.408 -475.811)" fill="#fff"/>
      </g>
    </g>
  </g>
</svg>
