<svg xmlns="http://www.w3.org/2000/svg" width="85.713" height="29" viewBox="0 0 85.713 29">
  <g id="그룹_9" data-name="그룹 9" transform="translate(-193 -89)">
    <g id="그룹_2" data-name="그룹 2" transform="translate(193 89)">
      <path id="패스_6" data-name="패스 6" d="M275.466,243.984a7.812,7.812,0,0,0-2.619-2.373,6.871,6.871,0,0,0,2.075-2.373,5.642,5.642,0,0,0,.527-3.85,6.629,6.629,0,0,0-2.478-4.078,8.52,8.52,0,0,0-5.678-1.793l-7.545.023v22.487h-3.74v3.506h11.32a10.073,10.073,0,0,0,6.5-2.057,6.88,6.88,0,0,0,2.743-5.15A6.3,6.3,0,0,0,275.466,243.984Zm-14.5-9.862h5.695a4.742,4.742,0,0,1,2.76.7,2.237,2.237,0,0,1,1,1.933,2.593,2.593,0,0,1-1,2.18,4.479,4.479,0,0,1-2.795.773h-5.66Zm9.44,15.769a4.684,4.684,0,0,1-3.357,1.037h-6.083v-6.68h6.187a4.6,4.6,0,0,1,3.287,1,3.116,3.116,0,0,1,1.036,2.3A3.181,3.181,0,0,1,270.4,249.891Z" transform="translate(-251.894 -226.534)" fill="#fff"/>
      <path id="패스_7" data-name="패스 7" d="M260.729,286.85a2.319,2.319,0,1,1-2.32-2.319A2.319,2.319,0,0,1,260.729,286.85Z" transform="translate(-251.947 -261.357)" fill="#fff"/>
      <path id="패스_8" data-name="패스 8" d="M264.639,256.242a.75.75,0,1,1-.75-.751A.749.749,0,0,1,264.639,256.242Z" transform="translate(-256.408 -242.975)" fill="#fff"/>
      <path id="패스_9" data-name="패스 9" d="M264.576,259.77a2.235,2.235,0,1,1-2.234-2.234A2.234,2.234,0,0,1,264.576,259.77Z" transform="translate(-254.488 -244.269)" fill="#fff"/>
      <path id="패스_10" data-name="패스 10" d="M262.445,274.173a1.978,1.978,0,1,1-1.978-1.978A1.978,1.978,0,0,1,262.445,274.173Z" transform="translate(-253.465 -253.548)" fill="#fff"/>
      <path id="패스_11" data-name="패스 11" d="M264.1,242.838a1.5,1.5,0,1,1-1.5-1.5A1.5,1.5,0,0,1,264.1,242.838Z" transform="translate(-255.12 -234.019)" fill="#fff"/>
      <path id="패스_12" data-name="패스 12" d="M247.5,234.272a1.126,1.126,0,1,1-1.126-1.127A1.126,1.126,0,0,1,247.5,234.272Z" transform="translate(-245.083 -228.83)" fill="#fff"/>
      <path id="패스_13" data-name="패스 13" d="M254.6,228.68a1.126,1.126,0,1,1-1.126-1.126A1.127,1.127,0,0,1,254.6,228.68Z" transform="translate(-249.58 -225.291)" fill="#fff"/>
      <path id="패스_14" data-name="패스 14" d="M254.6,241.487a1.126,1.126,0,1,1-1.126-1.126A1.126,1.126,0,0,1,254.6,241.487Z" transform="translate(-249.58 -233.398)" fill="#fff"/>
      <path id="패스_15" data-name="패스 15" d="M255.843,251.091a1.594,1.594,0,1,1-1.594-1.595A1.594,1.594,0,0,1,255.843,251.091Z" transform="translate(-249.772 -239.18)" fill="#fff"/>
      <path id="패스_16" data-name="패스 16" d="M265.38,252.523a1.127,1.127,0,1,1-1.127-1.126A1.127,1.127,0,0,1,265.38,252.523Z" transform="translate(-256.4 -240.383)" fill="#fff"/>
      <path id="패스_17" data-name="패스 17" d="M262.588,281.461a1.78,1.78,0,1,1-1.78-1.78A1.78,1.78,0,0,1,262.588,281.461Z" transform="translate(-253.806 -258.287)" fill="#fff"/>
      <path id="패스_18" data-name="패스 18" d="M265.315,248.525a.852.852,0,1,1-.851-.852A.852.852,0,0,1,265.315,248.525Z" transform="translate(-256.706 -238.026)" fill="#fff"/>
      <path id="패스_19" data-name="패스 19" d="M249.841,225.532a.571.571,0,1,1-.571-.57A.571.571,0,0,1,249.841,225.532Z" transform="translate(-247.269 -223.65)" fill="#fff"/>
      <path id="패스_20" data-name="패스 20" d="M245.941,222.424a.571.571,0,1,1-.57-.571A.57.57,0,0,1,245.941,222.424Z" transform="translate(-244.8 -221.682)" fill="#fff"/>
      <path id="패스_21" data-name="패스 21" d="M250.972,212.959a.57.57,0,1,1-.57-.571A.57.57,0,0,1,250.972,212.959Z" transform="translate(-247.985 -212.388)" fill="#fff"/>
      <path id="패스_22" data-name="패스 22" d="M265.189,269.314a1.026,1.026,0,1,1-1.025-1.025A1.025,1.025,0,0,1,265.189,269.314Z" transform="translate(-256.408 -251.076)" fill="#fff"/>
      <path id="패스_23" data-name="패스 23" d="M264.907,231.365a1.78,1.78,0,1,1-1.78-1.78A1.78,1.78,0,0,1,264.907,231.365Z" transform="translate(-255.274 -226.577)" fill="#fff"/>
      <path id="패스_24" data-name="패스 24" d="M264.842,238.892a.852.852,0,1,1-.851-.852A.852.852,0,0,1,264.842,238.892Z" transform="translate(-256.408 -231.928)" fill="#fff"/>
      <g id="그룹_1" data-name="그룹 1" transform="translate(25.001 3.6)">
        <path id="패스_25" data-name="패스 25" d="M337.158,256.6h-5.367L328.1,240.155h-.2L324.1,256.6h-5.367l-5.811-25.4h4.546l3.9,17.3h.2l3.726-17.264h5.231l3.863,17.264h.2l3.8-17.3h4.649Z" transform="translate(-312.921 -231.198)" fill="#fff"/>
        <path id="패스_26" data-name="패스 26" d="M409.632,256.892l-2.187-5.538h-10.6l-2.153,5.538h-5.025l9.811-25.229h5.333l9.845,25.229Zm-7.452-19.28-3.554,9.265H405.7Z" transform="translate(-361.501 -231.492)" fill="#fff"/>
        <path id="패스_27" data-name="패스 27" d="M465.112,256.589v-25.3h4.855v25.365Z" transform="translate(-409.256 -231.257)" fill="#fff"/>
      </g>
    </g>
  </g>
</svg>
