<svg xmlns="http://www.w3.org/2000/svg" width="105" height="35.526" viewBox="0 0 105 35.526">
  <defs>
    <style>
      .cls-1 {
        fill: #fff;
      }
    </style>
  </defs>
  <g id="그룹_5" data-name="그룹 5" transform="translate(-193 -89)">
    <g id="그룹_2" data-name="그룹 2" transform="translate(140 57)">
      <path id="패스_6" data-name="패스 6" class="cls-1" d="M279.844,247.239a9.57,9.57,0,0,0-3.208-2.907,8.417,8.417,0,0,0,2.542-2.907,6.912,6.912,0,0,0,.645-4.716,8.121,8.121,0,0,0-3.036-5,10.437,10.437,0,0,0-6.956-2.2l-9.243.029v27.547h-4.581v4.3h13.867a12.34,12.34,0,0,0,7.968-2.52,8.428,8.428,0,0,0,3.36-6.309A7.721,7.721,0,0,0,279.844,247.239Zm-17.765-12.081h6.976a5.808,5.808,0,0,1,3.381.862,2.74,2.74,0,0,1,1.228,2.368,3.177,3.177,0,0,1-1.228,2.67,5.487,5.487,0,0,1-3.424.947h-6.934Zm11.564,19.317a5.738,5.738,0,0,1-4.112,1.27h-7.452v-8.183h7.58a5.63,5.63,0,0,1,4.027,1.228,3.817,3.817,0,0,1,1.27,2.82A3.9,3.9,0,0,1,273.643,254.476Z" transform="translate(-197.968 -193.862)"/>
      <path id="패스_7" data-name="패스 7" class="cls-1" d="M261.772,287.372a2.841,2.841,0,1,1-2.841-2.841A2.841,2.841,0,0,1,261.772,287.372Z" transform="translate(-198.014 -224.142)"/>
      <path id="패스_8" data-name="패스 8" class="cls-1" d="M264.976,256.41a.919.919,0,1,1-.919-.919A.918.918,0,0,1,264.976,256.41Z" transform="translate(-201.893 -208.158)"/>
      <path id="패스_9" data-name="패스 9" class="cls-1" d="M265.581,260.273a2.738,2.738,0,1,1-2.737-2.737A2.737,2.737,0,0,1,265.581,260.273Z" transform="translate(-200.224 -209.284)"/>
      <path id="패스_10" data-name="패스 10" class="cls-1" d="M263.335,274.618a2.423,2.423,0,1,1-2.423-2.423A2.423,2.423,0,0,1,263.335,274.618Z" transform="translate(-199.334 -217.352)"/>
      <path id="패스_11" data-name="패스 11" class="cls-1" d="M264.771,243.175a1.834,1.834,0,1,1-1.833-1.833A1.833,1.833,0,0,1,264.771,243.175Z" transform="translate(-200.774 -200.371)"/>
      <path id="패스_12" data-name="패스 12" class="cls-1" d="M248.006,234.525a1.38,1.38,0,1,1-1.38-1.38A1.379,1.379,0,0,1,248.006,234.525Z" transform="translate(-192.046 -195.859)"/>
      <path id="패스_13" data-name="패스 13" class="cls-1" d="M255.111,228.934a1.38,1.38,0,1,1-1.379-1.38A1.38,1.38,0,0,1,255.111,228.934Z" transform="translate(-195.956 -192.782)"/>
      <path id="패스_14" data-name="패스 14" class="cls-1" d="M255.111,241.741a1.38,1.38,0,1,1-1.379-1.38A1.38,1.38,0,0,1,255.111,241.741Z" transform="translate(-195.956 -199.831)"/>
      <path id="패스_15" data-name="패스 15" class="cls-1" d="M256.56,251.449a1.953,1.953,0,1,1-1.952-1.953A1.952,1.952,0,0,1,256.56,251.449Z" transform="translate(-196.123 -204.859)"/>
      <path id="패스_16" data-name="패스 16" class="cls-1" d="M265.887,252.777a1.38,1.38,0,1,1-1.381-1.38A1.381,1.381,0,0,1,265.887,252.777Z" transform="translate(-201.887 -205.905)"/>
      <path id="패스_17" data-name="패스 17" class="cls-1" d="M263.389,281.862a2.18,2.18,0,1,1-2.18-2.181A2.18,2.18,0,0,1,263.389,281.862Z" transform="translate(-199.631 -221.472)"/>
      <path id="패스_18" data-name="패스 18" class="cls-1" d="M265.7,248.717a1.044,1.044,0,1,1-1.043-1.044A1.044,1.044,0,0,1,265.7,248.717Z" transform="translate(-202.153 -203.855)"/>
      <path id="패스_19" data-name="패스 19" class="cls-1" d="M250.1,225.661a.7.7,0,1,1-.7-.7A.7.7,0,0,1,250.1,225.661Z" transform="translate(-193.947 -191.355)"/>
      <path id="패스_20" data-name="패스 20" class="cls-1" d="M246.2,222.552a.7.7,0,1,1-.7-.7A.7.7,0,0,1,246.2,222.552Z" transform="translate(-191.8 -189.644)"/>
      <path id="패스_21" data-name="패스 21" class="cls-1" d="M251.228,213.087a.7.7,0,1,1-.7-.7A.7.7,0,0,1,251.228,213.087Z" transform="translate(-194.569 -180.388)"/>
      <path id="패스_22" data-name="패스 22" class="cls-1" d="M265.651,269.545a1.256,1.256,0,1,1-1.255-1.256A1.256,1.256,0,0,1,265.651,269.545Z" transform="translate(-201.893 -215.202)"/>
      <path id="패스_23" data-name="패스 23" class="cls-1" d="M265.708,231.766a2.18,2.18,0,1,1-2.181-2.181A2.181,2.181,0,0,1,265.708,231.766Z" transform="translate(-200.907 -193.9)"/>
      <path id="패스_24" data-name="패스 24" class="cls-1" d="M265.225,239.084a1.044,1.044,0,1,1-1.043-1.044A1.043,1.043,0,0,1,265.225,239.084Z" transform="translate(-201.893 -198.553)"/>
      <g id="그룹_1" data-name="그룹 1" transform="translate(83.627 36.411)">
        <path id="패스_25" data-name="패스 25" class="cls-1" d="M342.611,262.313h-6.574l-4.523-20.143h-.251l-4.648,20.143H320.04L312.921,231.2h5.569l4.774,21.19h.25l4.565-21.148h6.408l4.732,21.148h.25l4.649-21.19h5.695Z" transform="translate(-312.921 -231.198)"/>
        <path id="패스_26" data-name="패스 26" class="cls-1" d="M414.124,262.569l-2.679-6.784H398.462l-2.637,6.784h-6.155l12.019-30.906h6.533l12.06,30.906Zm-9.129-23.619L400.641,250.3h8.668Z" transform="translate(-355.163 -231.454)"/>
        <path id="패스_27" data-name="패스 27" class="cls-1" d="M465.112,262.281v-30.99h5.948v31.073Z" transform="translate(-396.687 -231.249)"/>
      </g>
    </g>
  </g>
</svg>
