<svg xmlns="http://www.w3.org/2000/svg" width="120.03" height="156.97" viewBox="0 0 120.03 156.97">
  <g id="Group_113" data-name="Group 113" transform="translate(-900 -453.933)">
    <g id="Group_108" data-name="Group 108" transform="translate(851.313 4.42)">
      <path id="Path_62" data-name="Path 62" d="M60.832,452.287a2.772,2.772,0,1,1-2.77-2.774A2.77,2.77,0,0,1,60.832,452.287Z" transform="translate(2.37 0)" fill="#fff"/>
      <g id="Group_107" data-name="Group 107" transform="translate(48.687 466.394)">
        <path id="Path_63" data-name="Path 63" d="M157.952,542.292q-6.242-8.284-12.73-11.532,5.641-3.753,10.082-11.531t2.562-18.708q-1.708-11.1-12.043-19.817t-27.593-8.712l-36.663.114V581.374H63.394v17.039H118.4q19.135,0,31.607-10t13.325-25.026Q164.185,550.578,157.952,542.292ZM87.482,494.37h27.673q8.543,0,13.413,3.419a10.867,10.867,0,0,1,4.872,9.395q0,6.835-4.872,10.591t-13.584,3.759h-27.5Zm45.87,76.624q-5.216,5.039-16.313,5.039H87.482V543.572h30.065q10.932,0,15.975,4.872a15.139,15.139,0,0,1,5.039,11.187Q138.561,565.953,133.352,570.994Z" transform="translate(-43.407 -458.325)" fill="#fff"/>
        <path id="Path_64" data-name="Path 64" d="M86.04,555.457a11.268,11.268,0,1,1-11.269-11.269A11.269,11.269,0,0,1,86.04,555.457Z" transform="translate(-43.368 -432.407)" fill="#fff"/>
        <path id="Path_65" data-name="Path 65" d="M80.045,509.726a3.646,3.646,0,1,1-3.646-3.648A3.644,3.644,0,0,1,80.045,509.726Z" transform="translate(-40.048 -446.088)" fill="#fff"/>
        <path id="Path_66" data-name="Path 66" d="M90.493,519.616a10.859,10.859,0,1,1-10.857-10.854A10.858,10.858,0,0,1,90.493,519.616Z" transform="translate(-41.476 -445.125)" fill="#fff"/>
        <path id="Path_67" data-name="Path 67" d="M85.874,537.611A9.611,9.611,0,1,1,76.264,528,9.61,9.61,0,0,1,85.874,537.611Z" transform="translate(-42.238 -438.219)" fill="#fff"/>
        <path id="Path_68" data-name="Path 68" d="M84.63,494.78a7.273,7.273,0,1,1-7.273-7.269A7.273,7.273,0,0,1,84.63,494.78Z" transform="translate(-41.005 -452.753)" fill="#fff"/>
        <path id="Path_69" data-name="Path 69" d="M60.219,482.228a5.472,5.472,0,1,1-5.471-5.474A5.471,5.471,0,0,1,60.219,482.228Z" transform="translate(-48.476 -456.615)" fill="#fff"/>
        <path id="Path_70" data-name="Path 70" d="M69.543,474.888a5.473,5.473,0,1,1-5.473-5.472A5.473,5.473,0,0,1,69.543,474.888Z" transform="translate(-45.129 -459.25)" fill="#fff"/>
        <path id="Path_71" data-name="Path 71" d="M69.543,491.7a5.473,5.473,0,1,1-5.473-5.473A5.472,5.472,0,0,1,69.543,491.7Z" transform="translate(-45.129 -453.216)" fill="#fff"/>
        <path id="Path_72" data-name="Path 72" d="M74.488,505.958a7.746,7.746,0,1,1-7.746-7.747A7.747,7.747,0,0,1,74.488,505.958Z" transform="translate(-44.986 -448.912)" fill="#fff"/>
        <path id="Path_73" data-name="Path 73" d="M83.688,506.179a5.476,5.476,0,1,1-5.474-5.474A5.477,5.477,0,0,1,83.688,506.179Z" transform="translate(-40.054 -448.017)" fill="#fff"/>
        <path id="Path_74" data-name="Path 74" d="M84.656,546.473a8.648,8.648,0,1,1-8.646-8.65A8.648,8.648,0,0,1,84.656,546.473Z" transform="translate(-41.984 -434.692)" fill="#fff"/>
        <path id="Path_75" data-name="Path 75" d="M81.656,499.957a4.141,4.141,0,1,1-4.139-4.139A4.141,4.141,0,0,1,81.656,499.957Z" transform="translate(-39.825 -449.771)" fill="#fff"/>
        <path id="Path_76" data-name="Path 76" d="M59.35,468.786a2.772,2.772,0,1,1-2.772-2.771A2.772,2.772,0,0,1,59.35,468.786Z" transform="translate(-46.849 -460.47)" fill="#fff"/>
        <path id="Path_77" data-name="Path 77" d="M54.234,464.707a2.774,2.774,0,1,1-2.772-2.772A2.774,2.774,0,0,1,54.234,464.707Z" transform="translate(-48.687 -461.935)" fill="#fff"/>
        <path id="Path_78" data-name="Path 78" d="M82.72,527.855a4.983,4.983,0,1,1-4.981-4.982A4.98,4.98,0,0,1,82.72,527.855Z" transform="translate(-40.048 -440.059)" fill="#fff"/>
        <path id="Path_79" data-name="Path 79" d="M87.7,480.731a8.649,8.649,0,1,1-8.647-8.649A8.648,8.648,0,0,1,87.7,480.731Z" transform="translate(-40.892 -458.292)" fill="#fff"/>
        <path id="Path_80" data-name="Path 80" d="M81.033,487.316a4.14,4.14,0,1,1-4.138-4.14A4.142,4.142,0,0,1,81.033,487.316Z" transform="translate(-40.048 -454.309)" fill="#fff"/>
      </g>
    </g>
  </g>
</svg>
