<svg xmlns="http://www.w3.org/2000/svg" width="775.642" height="121.109" viewBox="0 0 775.642 121.109">
  <g id="Group_80" data-name="Group 80" transform="translate(-631.545 -489.301)">
    <path id="Path_45" data-name="Path 45" d="M-6.437,6q-.125-.25-.937-3.187a27.327,27.327,0,0,1-.813-7.187v-34.75a17.843,17.843,0,0,0-8.25-15.687,34.047,34.047,0,0,0-19.5-5.562q-11.75,0-20.062,5.813T-63.437-39.25h8.25a11.173,11.173,0,0,1,4.938-9.938Q-45.062-53-35.937-53q9.625,0,14.25,4.25t4.625,9.375a5.659,5.659,0,0,1-3.625,5.75,36.567,36.567,0,0,1-6.75,2.125,122.67,122.67,0,0,1-12.625,1.437,51.32,51.32,0,0,0-12.25,2.188A24.4,24.4,0,0,0-63.687-21q-4.5,4.875-3.625,13.25A15.3,15.3,0,0,0-59.375,4.563Q-52.313,8.625-42.437,8A33.346,33.346,0,0,0-27.75,3.875a41.274,41.274,0,0,0,10.688-8,38,38,0,0,0,.688,5.938A15.539,15.539,0,0,0-15.062,6ZM-17.062-16.75q0,5.875-7.563,11.438A32.122,32.122,0,0,1-41.312,1,22.828,22.828,0,0,1-53.25-1a9.273,9.273,0,0,1-5.437-8.25,10.609,10.609,0,0,1,3-8.25q3.25-3.375,9.75-5.125a83.292,83.292,0,0,1,10.125-1.5A107.872,107.872,0,0,0-24.687-25.75,19.7,19.7,0,0,0-20.625-27a16.944,16.944,0,0,0,3.563-2Zm79,22.5V-82H53.313v33.25l-.75.25a24.239,24.239,0,0,0-9.312-8.563,27.06,27.06,0,0,0-12.813-3.062q-13.25,0-21.437,9.688T.813-25.875Q.812-11.25,9-1.5T30.438,8.25A26.623,26.623,0,0,0,43.25,5.125a25.08,25.08,0,0,0,9.312-8.5l.75.25V5.75ZM31.813.5Q21.688.5,15.938-7.063t-5.75-18.813q0-11.5,5.75-18.937T31.813-52.25q10.125,0,15.875,7.312t5.75,19.063q0,11.75-5.75,19.063T31.813.5Z" transform="translate(699 582)" fill="#fff"/>
    <path id="Path_43" data-name="Path 43" d="M-46.781-109.7H-68.949L-87.042-27.221h-.978l-18.419-82.315h-24.939l-17.767,82.315h-.978L-168.705-109.7h-21.679l27.71,121.109h25.591l18.093-78.4h.978l17.6,78.4h25.591ZM-3.26-78.4q-18.745,0-29.666,12.714T-43.847-33.9q0,18.745,10.921,31.7T-3.26,10.758q18.908,0,29.91-12.959t11-31.7q0-19.071-11-31.785T-3.26-78.4Zm0,79.381A25.19,25.19,0,0,1-24.043-9.047Q-31.948-19.071-31.948-33.9q0-15,7.906-24.858A25.344,25.344,0,0,1-3.26-68.623q13.04,0,21.027,9.862T25.754-33.9q0,14.833-7.987,24.857A25.576,25.576,0,0,1-3.26.978ZM93.725-78.24a48.077,48.077,0,0,0-7.172.734,31.348,31.348,0,0,0-8.639,2.689,33.411,33.411,0,0,0-8.15,5.3A29.6,29.6,0,0,0,63.733-62.1l-.978-.326V-75.306H51.671V7.335H62.755V-36.023q0-10.758,3.667-17.278a27.61,27.61,0,0,1,11-10.6,22.269,22.269,0,0,1,8.231-2.689,64.518,64.518,0,0,1,8.068-.571ZM179.3,7.5V-106.928H168.053V-63.57l-.978.326A31.607,31.607,0,0,0,154.932-74.41,35.286,35.286,0,0,0,138.224-78.4q-17.278,0-27.954,12.633T99.593-33.741q0,19.071,10.676,31.785t27.954,12.714a34.716,34.716,0,0,0,16.708-4.075A32.7,32.7,0,0,0,167.075-4.4l.978.326V7.5ZM140.017.652q-13.2,0-20.7-9.862t-7.5-24.532q0-15,7.5-24.694t20.7-9.7q13.2,0,20.7,9.535t7.5,24.858q0,15.322-7.5,24.858T140.017.652Z" transform="translate(1015 599)" fill="#fff"/>
    <path id="Path_44" data-name="Path 44" d="M37.164,11.41-9.78-108.884H-35.208L-81.989,11.41h23.961L-47.759-15H2.771L13.2,11.41ZM-5.542-36.349H-39.283l16.952-44.173ZM73.187,11.41V-109.536H50.041V11.084Z" transform="translate(1334 599)" fill="#fff"/>
  </g>
</svg>
