<svg id="구성_요소_1_1" data-name="구성 요소 1 – 1" xmlns="http://www.w3.org/2000/svg" width="120" height="140.885" viewBox="0 0 120 140.885">
  <defs>
    <style>
      .cls-1 {
        fill: #fff;
      }
    </style>
  </defs>
  <path id="패스_6" data-name="패스 6" class="cls-1" d="M350.539,299.8q-6.237-8.28-12.724-11.527,5.635-3.755,10.081-11.529t2.559-18.7q-1.706-11.1-12.041-19.813t-27.585-8.71l-36.656.114V338.873H256.007v17.035H311q19.133,0,31.6-9.992t13.324-25.021Q356.769,308.084,350.539,299.8ZM280.088,251.89h27.667q8.542,0,13.408,3.418a10.866,10.866,0,0,1,4.871,9.393q0,6.833-4.871,10.589t-13.577,3.757h-27.5ZM325.946,328.5q-5.212,5.036-16.307,5.037H280.088V301.081h30.059q10.928,0,15.97,4.871a15.135,15.135,0,0,1,5.035,11.185Q331.153,323.454,325.946,328.5Z" transform="translate(-236.025 -215.023)"/>
  <path id="패스_7" data-name="패스 7" class="cls-1" d="M278.621,295.8a11.265,11.265,0,1,1-11.268-11.267A11.265,11.265,0,0,1,278.621,295.8Z" transform="translate(-235.959 -171.948)"/>
  <path id="패스_8" data-name="패스 8" class="cls-1" d="M270.429,259.137a3.645,3.645,0,1,1-3.644-3.646A3.641,3.641,0,0,1,270.429,259.137Z" transform="translate(-230.442 -194.686)"/>
  <path id="패스_9" data-name="패스 9" class="cls-1" d="M281.819,268.389a10.857,10.857,0,1,1-10.855-10.853A10.855,10.855,0,0,1,281.819,268.389Z" transform="translate(-232.816 -193.085)"/>
  <path id="패스_10" data-name="패스 10" class="cls-1" d="M277.706,281.805a9.609,9.609,0,1,1-9.609-9.61A9.609,9.609,0,0,1,277.706,281.805Z" transform="translate(-234.081 -181.607)"/>
  <path id="패스_11" data-name="패스 11" class="cls-1" d="M275.648,248.611a7.272,7.272,0,1,1-7.271-7.269A7.27,7.27,0,0,1,275.648,248.611Z" transform="translate(-232.034 -205.764)"/>
  <path id="패스_12" data-name="패스 12" class="cls-1" d="M256.189,238.619a5.471,5.471,0,1,1-5.472-5.474A5.47,5.47,0,0,1,256.189,238.619Z" transform="translate(-244.45 -212.182)"/>
  <path id="패스_13" data-name="패스 13" class="cls-1" d="M263.3,233.026a5.472,5.472,0,1,1-5.47-5.472A5.473,5.473,0,0,1,263.3,233.026Z" transform="translate(-238.888 -216.56)"/>
  <path id="패스_14" data-name="패스 14" class="cls-1" d="M263.3,245.833a5.472,5.472,0,1,1-5.47-5.472A5.471,5.471,0,0,1,263.3,245.833Z" transform="translate(-238.888 -206.533)"/>
  <path id="패스_15" data-name="패스 15" class="cls-1" d="M268.142,257.243A7.744,7.744,0,1,1,260.4,249.5,7.742,7.742,0,0,1,268.142,257.243Z" transform="translate(-238.65 -199.38)"/>
  <path id="패스_16" data-name="패스 16" class="cls-1" d="M274.075,256.869A5.475,5.475,0,1,1,268.6,251.4,5.475,5.475,0,0,1,274.075,256.869Z" transform="translate(-230.451 -197.891)"/>
  <path id="패스_17" data-name="패스 17" class="cls-1" d="M276.321,288.328a8.647,8.647,0,1,1-8.646-8.647A8.647,8.647,0,0,1,276.321,288.328Z" transform="translate(-233.659 -175.746)"/>
  <path id="패스_18" data-name="패스 18" class="cls-1" d="M271.892,251.811a4.141,4.141,0,1,1-4.137-4.138A4.139,4.139,0,0,1,271.892,251.811Z" transform="translate(-230.072 -200.807)"/>
  <path id="패스_19" data-name="패스 19" class="cls-1" d="M254.245,227.733a2.772,2.772,0,1,1-2.772-2.771A2.774,2.774,0,0,1,254.245,227.733Z" transform="translate(-241.746 -218.59)"/>
  <path id="패스_20" data-name="패스 20" class="cls-1" d="M250.343,224.626a2.772,2.772,0,1,1-2.769-2.773A2.771,2.771,0,0,1,250.343,224.626Z" transform="translate(-244.8 -221.024)"/>
  <path id="패스_21" data-name="패스 21" class="cls-1" d="M255.372,215.161a2.771,2.771,0,1,1-2.769-2.773A2.771,2.771,0,0,1,255.372,215.161Z" transform="translate(-240.86 -212.388)"/>
  <path id="패스_22" data-name="패스 22" class="cls-1" d="M273.1,273.271a4.983,4.983,0,1,1-4.978-4.982A4.981,4.981,0,0,1,273.1,273.271Z" transform="translate(-230.442 -184.665)"/>
  <path id="패스_23" data-name="패스 23" class="cls-1" d="M278.64,238.232a8.647,8.647,0,1,1-8.647-8.647A8.647,8.647,0,0,1,278.64,238.232Z" transform="translate(-231.844 -214.97)"/>
  <path id="패스_24" data-name="패스 24" class="cls-1" d="M271.415,242.178a4.138,4.138,0,1,1-4.137-4.138A4.137,4.137,0,0,1,271.415,242.178Z" transform="translate(-230.442 -208.35)"/>
</svg>
