<svg xmlns="http://www.w3.org/2000/svg" width="904.187" height="140.885" viewBox="0 0 904.187 140.885">
  <g id="Group_101" data-name="Group 101" transform="translate(-503 -470)">
    <path id="Path_43" data-name="Path 43" d="M-6.437,6q-.125-.25-.937-3.187a27.327,27.327,0,0,1-.813-7.187v-34.75a17.843,17.843,0,0,0-8.25-15.687,34.047,34.047,0,0,0-19.5-5.562q-11.75,0-20.062,5.813T-63.437-39.25h8.25a11.173,11.173,0,0,1,4.938-9.938Q-45.062-53-35.937-53q9.625,0,14.25,4.25t4.625,9.375a5.659,5.659,0,0,1-3.625,5.75,36.567,36.567,0,0,1-6.75,2.125,122.67,122.67,0,0,1-12.625,1.437,51.32,51.32,0,0,0-12.25,2.188A24.4,24.4,0,0,0-63.687-21q-4.5,4.875-3.625,13.25A15.3,15.3,0,0,0-59.375,4.563Q-52.313,8.625-42.437,8A33.346,33.346,0,0,0-27.75,3.875a41.274,41.274,0,0,0,10.688-8,38,38,0,0,0,.688,5.938A15.539,15.539,0,0,0-15.062,6ZM-17.062-16.75q0,5.875-7.563,11.438A32.122,32.122,0,0,1-41.312,1,22.828,22.828,0,0,1-53.25-1a9.273,9.273,0,0,1-5.437-8.25,10.609,10.609,0,0,1,3-8.25q3.25-3.375,9.75-5.125a83.292,83.292,0,0,1,10.125-1.5A107.872,107.872,0,0,0-24.687-25.75,19.7,19.7,0,0,0-20.625-27a16.944,16.944,0,0,0,3.563-2Zm79,22.5V-82H53.313v33.25l-.75.25a24.239,24.239,0,0,0-9.312-8.563,27.06,27.06,0,0,0-12.813-3.062q-13.25,0-21.437,9.688T.813-25.875Q.812-11.25,9-1.5T30.438,8.25A26.623,26.623,0,0,0,43.25,5.125a25.08,25.08,0,0,0,9.312-8.5l.75.25V5.75ZM31.813.5Q21.688.5,15.938-7.063t-5.75-18.813q0-11.5,5.75-18.937T31.813-52.25q10.125,0,15.875,7.312t5.75,19.063q0,11.75-5.75,19.063T31.813.5Z" transform="translate(699 582)" fill="#fff"/>
    <path id="Path_44" data-name="Path 44" d="M-46.781-109.7H-68.949L-87.042-27.221h-.978l-18.419-82.315h-24.939l-17.767,82.315h-.978L-168.705-109.7h-21.679l27.71,121.109h25.591l18.093-78.4h.978l17.6,78.4h25.591ZM-3.26-78.4q-18.745,0-29.666,12.714T-43.847-33.9q0,18.745,10.921,31.7T-3.26,10.758q18.908,0,29.91-12.959t11-31.7q0-19.071-11-31.785T-3.26-78.4Zm0,79.381A25.19,25.19,0,0,1-24.043-9.047Q-31.948-19.071-31.948-33.9q0-15,7.906-24.858A25.344,25.344,0,0,1-3.26-68.623q13.04,0,21.027,9.862T25.754-33.9q0,14.833-7.987,24.857A25.576,25.576,0,0,1-3.26.978ZM93.725-78.24a48.077,48.077,0,0,0-7.172.734,31.348,31.348,0,0,0-8.639,2.689,33.411,33.411,0,0,0-8.15,5.3A29.6,29.6,0,0,0,63.733-62.1l-.978-.326V-75.306H51.671V7.335H62.755V-36.023q0-10.758,3.667-17.278a27.61,27.61,0,0,1,11-10.6,22.269,22.269,0,0,1,8.231-2.689,64.518,64.518,0,0,1,8.068-.571ZM179.3,7.5V-106.928H168.053V-63.57l-.978.326A31.607,31.607,0,0,0,154.932-74.41,35.286,35.286,0,0,0,138.224-78.4q-17.278,0-27.954,12.633T99.593-33.741q0,19.071,10.676,31.785t27.954,12.714a34.716,34.716,0,0,0,16.708-4.075A32.7,32.7,0,0,0,167.075-4.4l.978.326V7.5ZM140.017.652q-13.2,0-20.7-9.862t-7.5-24.532q0-15,7.5-24.694t20.7-9.7q13.2,0,20.7,9.535t7.5,24.858q0,15.322-7.5,24.858T140.017.652Z" transform="translate(1015 599)" fill="#fff"/>
    <path id="Path_45" data-name="Path 45" d="M37.164,11.41-9.78-108.884H-35.208L-81.989,11.41h23.961L-47.759-15H2.771L13.2,11.41ZM-5.542-36.349H-39.283l16.952-44.173ZM73.187,11.41V-109.536H50.041V11.084Z" transform="translate(1334 599)" fill="#fff"/>
    <g id="Component_1_2" data-name="Component 1 – 2" transform="translate(503 470)">
      <path id="Path_6" data-name="Path 6" d="M350.539,299.8q-6.237-8.28-12.724-11.527,5.635-3.755,10.081-11.529t2.559-18.7q-1.706-11.1-12.041-19.813t-27.585-8.71l-36.656.114V338.873H256.007v17.035H311q19.133,0,31.6-9.992t13.324-25.021Q356.769,308.084,350.539,299.8ZM280.088,251.89h27.667q8.542,0,13.408,3.418a10.866,10.866,0,0,1,4.871,9.393q0,6.833-4.871,10.589t-13.577,3.757h-27.5ZM325.946,328.5q-5.212,5.036-16.307,5.037H280.088V301.081h30.059q10.928,0,15.97,4.871a15.135,15.135,0,0,1,5.035,11.185Q331.153,323.454,325.946,328.5Z" transform="translate(-236.025 -215.023)" fill="#fff"/>
      <path id="Path_7" data-name="Path 7" d="M278.621,295.8a11.265,11.265,0,1,1-11.268-11.267A11.265,11.265,0,0,1,278.621,295.8Z" transform="translate(-235.959 -171.948)" fill="#fff"/>
      <path id="Path_8" data-name="Path 8" d="M270.429,259.137a3.645,3.645,0,1,1-3.644-3.646A3.641,3.641,0,0,1,270.429,259.137Z" transform="translate(-230.442 -194.686)" fill="#fff"/>
      <path id="Path_9" data-name="Path 9" d="M281.819,268.389a10.857,10.857,0,1,1-10.855-10.853A10.855,10.855,0,0,1,281.819,268.389Z" transform="translate(-232.816 -193.085)" fill="#fff"/>
      <path id="Path_10" data-name="Path 10" d="M277.706,281.805a9.609,9.609,0,1,1-9.609-9.61A9.609,9.609,0,0,1,277.706,281.805Z" transform="translate(-234.081 -181.607)" fill="#fff"/>
      <path id="Path_11" data-name="Path 11" d="M275.648,248.611a7.272,7.272,0,1,1-7.271-7.269A7.27,7.27,0,0,1,275.648,248.611Z" transform="translate(-232.034 -205.764)" fill="#fff"/>
      <path id="Path_12" data-name="Path 12" d="M256.189,238.619a5.471,5.471,0,1,1-5.472-5.474A5.47,5.47,0,0,1,256.189,238.619Z" transform="translate(-244.45 -212.182)" fill="#fff"/>
      <path id="Path_13" data-name="Path 13" d="M263.3,233.026a5.472,5.472,0,1,1-5.47-5.472A5.473,5.473,0,0,1,263.3,233.026Z" transform="translate(-238.888 -216.56)" fill="#fff"/>
      <path id="Path_14" data-name="Path 14" d="M263.3,245.833a5.472,5.472,0,1,1-5.47-5.472A5.471,5.471,0,0,1,263.3,245.833Z" transform="translate(-238.888 -206.533)" fill="#fff"/>
      <path id="Path_15" data-name="Path 15" d="M268.142,257.243A7.744,7.744,0,1,1,260.4,249.5,7.742,7.742,0,0,1,268.142,257.243Z" transform="translate(-238.65 -199.38)" fill="#fff"/>
      <path id="Path_16" data-name="Path 16" d="M274.075,256.869A5.475,5.475,0,1,1,268.6,251.4,5.475,5.475,0,0,1,274.075,256.869Z" transform="translate(-230.451 -197.891)" fill="#fff"/>
      <path id="Path_17" data-name="Path 17" d="M276.321,288.328a8.647,8.647,0,1,1-8.646-8.647A8.647,8.647,0,0,1,276.321,288.328Z" transform="translate(-233.659 -175.746)" fill="#fff"/>
      <path id="Path_18" data-name="Path 18" d="M271.892,251.811a4.141,4.141,0,1,1-4.137-4.138A4.139,4.139,0,0,1,271.892,251.811Z" transform="translate(-230.072 -200.807)" fill="#fff"/>
      <path id="Path_19" data-name="Path 19" d="M254.245,227.733a2.772,2.772,0,1,1-2.772-2.771A2.774,2.774,0,0,1,254.245,227.733Z" transform="translate(-241.746 -218.59)" fill="#fff"/>
      <path id="Path_20" data-name="Path 20" d="M250.343,224.626a2.772,2.772,0,1,1-2.769-2.773A2.771,2.771,0,0,1,250.343,224.626Z" transform="translate(-244.8 -221.024)" fill="#fff"/>
      <path id="Path_21" data-name="Path 21" d="M255.372,215.161a2.771,2.771,0,1,1-2.769-2.773A2.771,2.771,0,0,1,255.372,215.161Z" transform="translate(-240.86 -212.388)" fill="#fff"/>
      <path id="Path_22" data-name="Path 22" d="M273.1,273.271a4.983,4.983,0,1,1-4.978-4.982A4.981,4.981,0,0,1,273.1,273.271Z" transform="translate(-230.442 -184.665)" fill="#fff"/>
      <path id="Path_23" data-name="Path 23" d="M278.64,238.232a8.647,8.647,0,1,1-8.647-8.647A8.647,8.647,0,0,1,278.64,238.232Z" transform="translate(-231.844 -214.97)" fill="#fff"/>
      <path id="Path_24" data-name="Path 24" d="M271.415,242.178a4.138,4.138,0,1,1-4.137-4.138A4.137,4.137,0,0,1,271.415,242.178Z" transform="translate(-230.442 -208.35)" fill="#fff"/>
    </g>
  </g>
</svg>
