<svg xmlns="http://www.w3.org/2000/svg" width="768.915" height="121.699" viewBox="0 0 768.915 121.699">
  <g id="Group_114" data-name="Group 114" transform="translate(-614.272 -489.301)">
    <path id="Path_81" data-name="Path 81" d="M-8.394,7.824Q-8.558,7.5-9.617,3.668A35.635,35.635,0,0,1-10.676-5.7V-51.019q0-13.2-10.758-20.456t-25.428-7.254q-15.322,0-26.161,7.579t-9.7,19.968h10.758q-.326-7.987,6.438-12.958t18.663-4.972q12.551,0,18.582,5.542t6.031,12.225q0,5.542-4.727,7.5a47.684,47.684,0,0,1-8.8,2.771A159.959,159.959,0,0,1-52.241-39.2a66.921,66.921,0,0,0-15.974,2.853,31.811,31.811,0,0,0-14.833,8.965q-5.868,6.357-4.727,17.278A19.949,19.949,0,0,0-77.425,5.95q9.209,5.3,22.086,4.482A43.483,43.483,0,0,0-36.186,5.053,53.821,53.821,0,0,0-22.249-5.379a49.556,49.556,0,0,0,.9,7.743,20.263,20.263,0,0,0,1.712,5.46ZM-22.249-21.842q0,7.661-9.862,14.915A41.887,41.887,0,0,1-53.871,1.3,29.767,29.767,0,0,1-69.438-1.3a12.092,12.092,0,0,1-7.09-10.758A13.834,13.834,0,0,1-72.617-22.82q4.238-4.4,12.714-6.683a108.613,108.613,0,0,1,13.2-1.956,140.664,140.664,0,0,0,14.507-2.119,25.694,25.694,0,0,0,5.3-1.63,22.1,22.1,0,0,0,4.646-2.608ZM80.767,7.5V-106.928H69.52V-63.57l-.978.326A31.607,31.607,0,0,0,56.4-74.41,35.286,35.286,0,0,0,39.691-78.4q-17.278,0-27.955,12.633T1.06-33.741q0,19.071,10.677,31.785T39.691,10.758A34.716,34.716,0,0,0,56.4,6.683,32.7,32.7,0,0,0,68.542-4.4l.978.326V7.5ZM41.484.652q-13.2,0-20.7-9.862t-7.5-24.532q0-15,7.5-24.694t20.7-9.7q13.2,0,20.7,9.535t7.5,24.858q0,15.322-7.5,24.858T41.484.652Z" transform="translate(702.233 600.242)" fill="#fff"/>
    <path id="Path_82" data-name="Path 82" d="M-46.781-109.7H-68.949L-87.042-27.221h-.978l-18.419-82.315h-24.939l-17.767,82.315h-.978L-168.705-109.7h-21.679l27.71,121.109h25.591l18.093-78.4h.978l17.6,78.4h25.591ZM-3.26-78.4q-18.745,0-29.666,12.714T-43.847-33.9q0,18.745,10.921,31.7T-3.26,10.758q18.908,0,29.91-12.959t11-31.7q0-19.071-11-31.785T-3.26-78.4Zm0,79.381A25.19,25.19,0,0,1-24.043-9.047Q-31.948-19.071-31.948-33.9q0-15,7.906-24.858A25.344,25.344,0,0,1-3.26-68.623q13.04,0,21.027,9.862T25.754-33.9q0,14.833-7.987,24.857A25.576,25.576,0,0,1-3.26.978ZM93.725-78.24a48.077,48.077,0,0,0-7.172.734,31.348,31.348,0,0,0-8.639,2.689,33.411,33.411,0,0,0-8.15,5.3A29.6,29.6,0,0,0,63.733-62.1l-.978-.326V-75.306H51.671V7.335H62.755V-36.023q0-10.758,3.667-17.278a27.61,27.61,0,0,1,11-10.6,22.269,22.269,0,0,1,8.231-2.689,64.518,64.518,0,0,1,8.068-.571ZM179.3,7.5V-106.928H168.053V-63.57l-.978.326A31.607,31.607,0,0,0,154.932-74.41,35.286,35.286,0,0,0,138.224-78.4q-17.278,0-27.954,12.633T99.593-33.741q0,19.071,10.676,31.785t27.954,12.714a34.716,34.716,0,0,0,16.708-4.075A32.7,32.7,0,0,0,167.075-4.4l.978.326V7.5ZM140.017.652q-13.2,0-20.7-9.862t-7.5-24.532q0-15,7.5-24.694t20.7-9.7q13.2,0,20.7,9.535t7.5,24.858q0,15.322-7.5,24.858T140.017.652Z" transform="translate(1015 599)" fill="#fff"/>
    <path id="Path_83" data-name="Path 83" d="M37.164,11.41-9.78-108.884H-35.208L-81.989,11.41h23.961L-47.759-15H2.771L13.2,11.41ZM-5.542-36.349H-39.283l16.952-44.173ZM73.187,11.41V-109.536H50.041V11.084Z" transform="translate(1310 599)" fill="#fff"/>
  </g>
</svg>
