<svg xmlns="http://www.w3.org/2000/svg" xmlns:xlink="http://www.w3.org/1999/xlink" width="1920" height="1367" viewBox="0 0 1920 1367">
  <defs>
    <filter id="Rectangle_40" x="395" y="533" width="555" height="470" filterUnits="userSpaceOnUse">
      <feOffset dx="10" dy="10" input="SourceAlpha"/>
      <feGaussianBlur stdDeviation="5" result="blur"/>
      <feFlood flood-color="#502eff" flood-opacity="0.161"/>
      <feComposite operator="in" in2="blur"/>
      <feComposite in="SourceGraphic"/>
    </filter>
    <filter id="Rectangle_41" x="990" y="533" width="555" height="470" filterUnits="userSpaceOnUse">
      <feOffset dx="10" dy="10" input="SourceAlpha"/>
      <feGaussianBlur stdDeviation="5" result="blur-2"/>
      <feFlood flood-color="#502eff" flood-opacity="0.161"/>
      <feComposite operator="in" in2="blur-2"/>
      <feComposite in="SourceGraphic"/>
    </filter>
    <clipPath id="clip-Web_1920_13">
      <rect width="1920" height="1367"/>
    </clipPath>
  </defs>
  <g id="Web_1920_13" data-name="Web 1920 – 13" clip-path="url(#clip-Web_1920_13)">
    <rect width="1920" height="1367" fill="#fff"/>
    <rect id="Rectangle_42" data-name="Rectangle 42" width="1920" height="931" transform="translate(0 436)" fill="#f4f4f8"/>
    <rect id="Rectangle_34" data-name="Rectangle 34" width="1920" height="158"/>
    <g id="Group_9" data-name="Group 9" transform="translate(-113 -32)">
      <g id="Group_2" data-name="Group 2" transform="translate(140 57)">
        <path id="Path_6" data-name="Path 6" d="M279.844,247.239a9.57,9.57,0,0,0-3.208-2.907,8.417,8.417,0,0,0,2.542-2.907,6.912,6.912,0,0,0,.645-4.716,8.121,8.121,0,0,0-3.036-5,10.437,10.437,0,0,0-6.956-2.2l-9.243.029v27.547h-4.581v4.3h13.867a12.34,12.34,0,0,0,7.968-2.52,8.428,8.428,0,0,0,3.36-6.309A7.721,7.721,0,0,0,279.844,247.239Zm-17.765-12.081h6.976a5.808,5.808,0,0,1,3.381.862,2.74,2.74,0,0,1,1.228,2.368,3.177,3.177,0,0,1-1.228,2.67,5.487,5.487,0,0,1-3.424.947h-6.934Zm11.564,19.317a5.738,5.738,0,0,1-4.112,1.27h-7.452v-8.183h7.58a5.63,5.63,0,0,1,4.027,1.228,3.817,3.817,0,0,1,1.27,2.82A3.9,3.9,0,0,1,273.643,254.476Z" transform="translate(-197.968 -193.862)" fill="#fff"/>
        <path id="Path_7" data-name="Path 7" d="M261.772,287.372a2.841,2.841,0,1,1-2.841-2.841A2.841,2.841,0,0,1,261.772,287.372Z" transform="translate(-198.014 -224.142)" fill="#fff"/>
        <path id="Path_8" data-name="Path 8" d="M264.976,256.41a.919.919,0,1,1-.919-.919A.918.918,0,0,1,264.976,256.41Z" transform="translate(-201.893 -208.158)" fill="#fff"/>
        <path id="Path_9" data-name="Path 9" d="M265.581,260.273a2.738,2.738,0,1,1-2.737-2.737A2.737,2.737,0,0,1,265.581,260.273Z" transform="translate(-200.224 -209.284)" fill="#fff"/>
        <path id="Path_10" data-name="Path 10" d="M263.335,274.618a2.423,2.423,0,1,1-2.423-2.423A2.423,2.423,0,0,1,263.335,274.618Z" transform="translate(-199.334 -217.352)" fill="#fff"/>
        <path id="Path_11" data-name="Path 11" d="M264.771,243.175a1.834,1.834,0,1,1-1.833-1.833A1.833,1.833,0,0,1,264.771,243.175Z" transform="translate(-200.774 -200.371)" fill="#fff"/>
        <path id="Path_12" data-name="Path 12" d="M248.006,234.525a1.38,1.38,0,1,1-1.38-1.38A1.379,1.379,0,0,1,248.006,234.525Z" transform="translate(-192.046 -195.859)" fill="#fff"/>
        <path id="Path_13" data-name="Path 13" d="M255.111,228.934a1.38,1.38,0,1,1-1.379-1.38A1.38,1.38,0,0,1,255.111,228.934Z" transform="translate(-195.956 -192.782)" fill="#fff"/>
        <path id="Path_14" data-name="Path 14" d="M255.111,241.741a1.38,1.38,0,1,1-1.379-1.38A1.38,1.38,0,0,1,255.111,241.741Z" transform="translate(-195.956 -199.831)" fill="#fff"/>
        <path id="Path_15" data-name="Path 15" d="M256.56,251.449a1.953,1.953,0,1,1-1.952-1.953A1.952,1.952,0,0,1,256.56,251.449Z" transform="translate(-196.123 -204.859)" fill="#fff"/>
        <path id="Path_16" data-name="Path 16" d="M265.887,252.777a1.38,1.38,0,1,1-1.381-1.38A1.381,1.381,0,0,1,265.887,252.777Z" transform="translate(-201.887 -205.905)" fill="#fff"/>
        <path id="Path_17" data-name="Path 17" d="M263.389,281.862a2.18,2.18,0,1,1-2.18-2.181A2.18,2.18,0,0,1,263.389,281.862Z" transform="translate(-199.631 -221.472)" fill="#fff"/>
        <path id="Path_18" data-name="Path 18" d="M265.7,248.717a1.044,1.044,0,1,1-1.043-1.044A1.044,1.044,0,0,1,265.7,248.717Z" transform="translate(-202.153 -203.855)" fill="#fff"/>
        <path id="Path_19" data-name="Path 19" d="M250.1,225.661a.7.7,0,1,1-.7-.7A.7.7,0,0,1,250.1,225.661Z" transform="translate(-193.947 -191.355)" fill="#fff"/>
        <path id="Path_20" data-name="Path 20" d="M246.2,222.552a.7.7,0,1,1-.7-.7A.7.7,0,0,1,246.2,222.552Z" transform="translate(-191.8 -189.644)" fill="#fff"/>
        <path id="Path_21" data-name="Path 21" d="M251.228,213.087a.7.7,0,1,1-.7-.7A.7.7,0,0,1,251.228,213.087Z" transform="translate(-194.569 -180.388)" fill="#fff"/>
        <path id="Path_22" data-name="Path 22" d="M265.651,269.545a1.256,1.256,0,1,1-1.255-1.256A1.256,1.256,0,0,1,265.651,269.545Z" transform="translate(-201.893 -215.202)" fill="#fff"/>
        <path id="Path_23" data-name="Path 23" d="M265.708,231.766a2.18,2.18,0,1,1-2.181-2.181A2.181,2.181,0,0,1,265.708,231.766Z" transform="translate(-200.907 -193.9)" fill="#fff"/>
        <path id="Path_24" data-name="Path 24" d="M265.225,239.084a1.044,1.044,0,1,1-1.043-1.044A1.043,1.043,0,0,1,265.225,239.084Z" transform="translate(-201.893 -198.553)" fill="#fff"/>
        <g id="Group_1" data-name="Group 1" transform="translate(83.627 36.411)">
          <path id="Path_25" data-name="Path 25" d="M342.611,262.313h-6.574l-4.523-20.143h-.251l-4.648,20.143H320.04L312.921,231.2h5.569l4.774,21.19h.25l4.565-21.148h6.408l4.732,21.148h.25l4.649-21.19h5.695Z" transform="translate(-312.921 -231.198)" fill="#fff"/>
          <path id="Path_26" data-name="Path 26" d="M414.124,262.569l-2.679-6.784H398.462l-2.637,6.784h-6.155l12.019-30.906h6.533l12.06,30.906Zm-9.129-23.619L400.641,250.3h8.668Z" transform="translate(-355.163 -231.454)" fill="#fff"/>
          <path id="Path_27" data-name="Path 27" d="M465.112,262.281v-30.99h5.948v31.073Z" transform="translate(-396.687 -231.249)" fill="#fff"/>
        </g>
      </g>
    </g>
    <g id="btn" transform="translate(677 71)" opacity="0.5">
      <text id="TEAM" transform="translate(48 16)" fill="#fff" font-size="28" font-family="Bahnschrift" font-weight="600" letter-spacing="0.03em"><tspan x="-31.113" y="0">TEAM</tspan></text>
    </g>
    <g id="btn-2" data-name="btn" transform="translate(807 71)" opacity="0.5">
      <text id="SERVICE" transform="translate(48 16)" fill="#fff" font-size="28" font-family="Bahnschrift" font-weight="600" letter-spacing="0.03em"><tspan x="-48.314" y="0">SERVICE</tspan></text>
    </g>
    <g id="btn-3" data-name="btn" transform="translate(971 71)">
      <text id="PRICing" transform="translate(29 16)" fill="#fff" font-size="28" font-family="Bahnschrift" font-weight="600" letter-spacing="0.03em"><tspan x="-46.783" y="0">PRICING</tspan></text>
    </g>
    <text id="DEMO" transform="translate(1131 87)" fill="#fff" font-size="28" font-family="Bahnschrift" font-weight="600" letter-spacing="0.03em" opacity="0.5"><tspan x="-32.575" y="0">DEMO</tspan></text>
    <text id="LABELLING" transform="translate(1279 87)" fill="#fff" font-size="28" font-family="Bahnschrift" font-weight="600" letter-spacing="0.03em" opacity="0.5"><tspan x="-64.07" y="0">LABELLING</tspan></text>
    <g id="btn-4" data-name="btn" transform="translate(551 65)" opacity="0.5">
      <text id="Home" transform="translate(59 22)" fill="#fff" font-size="28" font-family="Bahnschrift" font-weight="600" letter-spacing="0.03em"><tspan x="-32.685" y="0">HOME</tspan></text>
    </g>
    <text id="DASHBOARD" transform="translate(1784 87)" fill="#fff" font-size="28" font-family="Bahnschrift" font-weight="600" letter-spacing="0.03em" opacity="0.5"><tspan x="-70.045" y="0">DASHBOARD</tspan></text>
    <rect id="Rectangle_39" data-name="Rectangle 39" width="1920" height="280" transform="translate(0 158)" fill="#f4f4f8"/>
    <text id="BWAI_API는_유연한_서비스_이용을_위해_실용적인_구성과_요금제를_제공합니다." data-name="BWAI API는 유연한 서비스 이용을 위해 
실용적인 구성과 요금제를 제공합니다." transform="translate(960 277)" fill="#502eff" stroke="rgba(0,0,0,0)" stroke-width="1" font-size="48" font-family="NanumSquareOTFR, NanumSquareOTF"><tspan x="-391.776" y="0">BWAI API는 유연한 서비스 이용을 위해 </tspan><tspan x="-373.32" y="72">실용적인 구성과 요금제를 제공합니다.</tspan></text>
    <text id="Masking_기능과_Ratio_기능은_별도로_계산이_됩니다._예_Masking_500건_Ratio_500건_이용시_이용요금_부과_x_정해진_범위_안에_있는_요청_개수는_해당_범위안의_요금으로_계산됩니다._예_Masking_기능_1500건_이용시_0_1000건_무료_1000_1500건_x_2원_계산_1000원" data-name="Masking 기능과 Ratio 기능은 별도로 계산이 됩니다.
예) Masking 500건, Ratio 500건 이용시 이용요금 부과 x

정해진 범위 안에 있는 요청 개수는 해당 범위안의 요금으로 계산됩니다.
예) Masking 기능 1500건 이용시, 0~1000건 무료, 1000~1500건 x 2원 계산 = 1000원" transform="translate(960 1110)" font-size="40" font-family="NanumSquareOTFB, NanumSquareOTF"><tspan x="-435.84" y="0">Masking 기능과 Ratio 기능은 별도로 계산이 됩니다.</tspan><tspan font-size="32" font-family="NanumSquareOTFR, NanumSquareOTF"><tspan x="-379.632" y="40">예) Masking 500건, Ratio 500건 이용시 이용요금 부과 x</tspan></tspan><tspan font-size="28" font-family="NanumSquareOTFR, NanumSquareOTF"><tspan x="0" y="80"></tspan></tspan><tspan x="-578.68" y="120">정해진 범위 안에 있는 요청 개수는 해당 범위안의 요금으로 계산됩니다.</tspan><tspan font-size="32" font-family="NanumSquareOTFR, NanumSquareOTF"><tspan x="-587.984" y="160">예) Masking 기능 1500건 이용시, 0~1000건 무료, 1000~1500건 x 2원 계산 = 1000원</tspan></tspan></text>
    <g transform="matrix(1, 0, 0, 1, 0, 0)" filter="url(#Rectangle_40)">
      <g id="Rectangle_40-2" data-name="Rectangle 40" transform="translate(400 538)" fill="#fff" stroke="#502eff" stroke-width="1">
        <rect width="525" height="440" stroke="none"/>
        <rect x="0.5" y="0.5" width="524" height="439" fill="none"/>
      </g>
    </g>
    <text id="SAVE" transform="translate(589 901)" fill="#fff" font-size="16" font-family="Montserrat-Bold, Montserrat" font-weight="700" letter-spacing="0.1em"><tspan x="0" y="0">SAVE</tspan></text>
    <text id="Masking" transform="translate(589 620)" fill="#502eff" font-size="40" font-family="Bahnschrift" font-weight="700"><tspan x="0" y="0">Masking</tspan></text>
    <path id="Chevron_down" data-name="Chevron down" d="M15.167,2.873,9.174,8.864a1.662,1.662,0,0,1-1.353.466,1.667,1.667,0,0,1-1.354-.466L.476,2.873a1.7,1.7,0,1,1,2.4-2.4L7.822,5.424,12.769.475a1.7,1.7,0,0,1,2.4,2.4Z" transform="translate(450.019 716.02)" fill="#502eff" fill-rule="evenodd"/>
    <text id="API_요청" data-name="API 요청" transform="translate(489.681 732)" font-size="28" font-family="NanumSquareOTFR, NanumSquareOTF"><tspan x="0" y="0">API 요청</tspan></text>
    <path id="Chevron_down-2" data-name="Chevron down" d="M15.167,2.873,9.174,8.864a1.662,1.662,0,0,1-1.353.466,1.667,1.667,0,0,1-1.354-.466L.476,2.873a1.7,1.7,0,1,1,2.4-2.4L7.822,5.424,12.769.475a1.7,1.7,0,0,1,2.4,2.4Z" transform="translate(450.019 769.02)" fill="#502eff" fill-rule="evenodd"/>
    <text id="_0건이상_1000건_미만" data-name="0건이상 ~ 1000건 미만" transform="translate(489.681 785)" font-size="28" font-family="NanumSquareOTFR, NanumSquareOTF"><tspan x="0" y="0">0건이상 ~ 1000건 미만</tspan></text>
    <path id="Chevron_down-3" data-name="Chevron down" d="M15.167,2.873,9.174,8.864a1.662,1.662,0,0,1-1.353.466,1.667,1.667,0,0,1-1.354-.466L.476,2.873a1.7,1.7,0,1,1,2.4-2.4L7.822,5.424,12.769.475a1.7,1.7,0,0,1,2.4,2.4Z" transform="translate(450.019 822.02)" fill="#502eff" fill-rule="evenodd"/>
    <text id="_1000건_이상_10만건_미만" data-name="1000건 이상 ~ 10만건 미만" transform="translate(489.681 838)" font-size="28" font-family="NanumSquareOTFR, NanumSquareOTF"><tspan x="0" y="0">1000건 이상 ~ 10만건 미만</tspan></text>
    <path id="Chevron_down-4" data-name="Chevron down" d="M15.167,2.873,9.174,8.864a1.662,1.662,0,0,1-1.353.466,1.667,1.667,0,0,1-1.354-.466L.476,2.873a1.7,1.7,0,1,1,2.4-2.4L7.822,5.424,12.769.475a1.7,1.7,0,0,1,2.4,2.4Z" transform="translate(450.019 875.02)" fill="#502eff" fill-rule="evenodd"/>
    <text id="_10만건_이상_" data-name="10만건 이상 ~" transform="translate(489.681 891)" font-size="28" font-family="NanumSquareOTFR, NanumSquareOTF"><tspan x="0" y="0">10만건 이상 ~</tspan></text>
    <text id="무료" transform="translate(824 785)" fill="#502eff" stroke="rgba(0,0,0,0)" stroke-width="1" font-size="28" font-family="NanumSquareOTFEB, NanumSquareOTF"><tspan x="0" y="0">무료</tspan></text>
    <text id="_2원" data-name="2원" transform="translate(828 838)" fill="#502eff" stroke="rgba(0,0,0,0)" stroke-width="1" font-size="28" font-family="NanumSquareOTFEB, NanumSquareOTF"><tspan x="0" y="0">2원</tspan></text>
    <text id="_1원" data-name="1원" transform="translate(828 891)" fill="#502eff" stroke="rgba(0,0,0,0)" stroke-width="1" font-size="28" font-family="NanumSquareOTFEB, NanumSquareOTF"><tspan x="0" y="0">1원</tspan></text>
    <g transform="matrix(1, 0, 0, 1, 0, 0)" filter="url(#Rectangle_41)">
      <g id="Rectangle_41-2" data-name="Rectangle 41" transform="translate(995 538)" fill="#fff" stroke="#502eff" stroke-width="1">
        <rect width="525" height="440" stroke="none"/>
        <rect x="0.5" y="0.5" width="524" height="439" fill="none"/>
      </g>
    </g>
    <text id="Ratio" transform="translate(1214 620)" fill="#502eff" font-size="40" font-family="Bahnschrift" font-weight="700"><tspan x="0" y="0">Ratio</tspan></text>
    <path id="Chevron_down-5" data-name="Chevron down" d="M15.167,2.873,9.174,8.864a1.662,1.662,0,0,1-1.353.466,1.667,1.667,0,0,1-1.354-.466L.476,2.873a1.7,1.7,0,1,1,2.4-2.4L7.822,5.424,12.769.475a1.7,1.7,0,0,1,2.4,2.4Z" transform="translate(1045.019 716.02)" fill="#502eff" fill-rule="evenodd"/>
    <path id="Chevron_down-6" data-name="Chevron down" d="M15.167,2.873,9.174,8.864a1.662,1.662,0,0,1-1.353.466,1.667,1.667,0,0,1-1.354-.466L.476,2.873a1.7,1.7,0,1,1,2.4-2.4L7.822,5.424,12.769.475a1.7,1.7,0,0,1,2.4,2.4Z" transform="translate(1045.019 769.02)" fill="#502eff" fill-rule="evenodd"/>
    <path id="Chevron_down-7" data-name="Chevron down" d="M15.167,2.873,9.174,8.864a1.662,1.662,0,0,1-1.353.466,1.667,1.667,0,0,1-1.354-.466L.476,2.873a1.7,1.7,0,1,1,2.4-2.4L7.822,5.424,12.769.475a1.7,1.7,0,0,1,2.4,2.4Z" transform="translate(1045.019 822.02)" fill="#502eff" fill-rule="evenodd"/>
    <path id="Chevron_down-8" data-name="Chevron down" d="M15.167,2.873,9.174,8.864a1.662,1.662,0,0,1-1.353.466,1.667,1.667,0,0,1-1.354-.466L.476,2.873a1.7,1.7,0,1,1,2.4-2.4L7.822,5.424,12.769.475a1.7,1.7,0,0,1,2.4,2.4Z" transform="translate(1045.019 875.02)" fill="#502eff" fill-rule="evenodd"/>
    <text id="API_요청-2" data-name="API 요청" transform="translate(1085 732)" font-size="28" font-family="NanumSquareOTFR, NanumSquareOTF"><tspan x="0" y="0">API 요청</tspan></text>
    <text id="_0건이상_1000건_미만-2" data-name="0건이상 ~ 1000건 미만" transform="translate(1085 785)" font-size="28" font-family="NanumSquareOTFR, NanumSquareOTF"><tspan x="0" y="0">0건이상 ~ 1000건 미만</tspan></text>
    <text id="_1000건이상_10만건_미만" data-name="1000건이상 ~ 10만건 미만" transform="translate(1085 838)" font-size="28" font-family="NanumSquareOTFR, NanumSquareOTF"><tspan x="0" y="0">1000건이상 ~ 10만건 미만</tspan></text>
    <text id="_10만건이상_" data-name="10만건이상 ~" transform="translate(1085 891)" font-size="28" font-family="NanumSquareOTFR, NanumSquareOTF"><tspan x="0" y="0">10만건이상 ~</tspan></text>
    <text id="무료-2" data-name="무료" transform="translate(1419.319 785)" fill="#502eff" stroke="rgba(0,0,0,0)" stroke-width="1" font-size="28" font-family="NanumSquareOTFEB, NanumSquareOTF"><tspan x="0" y="0">무료</tspan></text>
    <text id="_3원" data-name="3원" transform="translate(1423.319 838)" fill="#502eff" stroke="rgba(0,0,0,0)" stroke-width="1" font-size="28" font-family="NanumSquareOTFEB, NanumSquareOTF"><tspan x="0" y="0">3원</tspan></text>
    <text id="_2원-2" data-name="2원" transform="translate(1423.319 891)" fill="#502eff" stroke="rgba(0,0,0,0)" stroke-width="1" font-size="28" font-family="NanumSquareOTFEB, NanumSquareOTF"><tspan x="0" y="0">2원</tspan></text>
  </g>
</svg>
