<svg id="Group_21" data-name="Group 21" xmlns="http://www.w3.org/2000/svg" width="1920" height="1472" viewBox="0 0 1920 1472">
  <rect id="Rectangle_36" data-name="Rectangle 36" width="1920" height="280" transform="translate(0 158)" fill="#f4f4f8"/>
  <rect id="Rectangle_34" data-name="Rectangle 34" width="1920" height="158"/>
  <g id="Group_9" data-name="Group 9" transform="translate(-113 -32)">
    <g id="Group_2" data-name="Group 2" transform="translate(140 57)">
      <path id="Path_6" data-name="Path 6" d="M279.844,247.239a9.57,9.57,0,0,0-3.208-2.907,8.417,8.417,0,0,0,2.542-2.907,6.912,6.912,0,0,0,.645-4.716,8.121,8.121,0,0,0-3.036-5,10.437,10.437,0,0,0-6.956-2.2l-9.243.029v27.547h-4.581v4.3h13.867a12.34,12.34,0,0,0,7.968-2.52,8.428,8.428,0,0,0,3.36-6.309A7.721,7.721,0,0,0,279.844,247.239Zm-17.765-12.081h6.976a5.808,5.808,0,0,1,3.381.862,2.74,2.74,0,0,1,1.228,2.368,3.177,3.177,0,0,1-1.228,2.67,5.487,5.487,0,0,1-3.424.947h-6.934Zm11.564,19.317a5.738,5.738,0,0,1-4.112,1.27h-7.452v-8.183h7.58a5.63,5.63,0,0,1,4.027,1.228,3.817,3.817,0,0,1,1.27,2.82A3.9,3.9,0,0,1,273.643,254.476Z" transform="translate(-197.968 -193.862)" fill="#fff"/>
      <path id="Path_7" data-name="Path 7" d="M261.772,287.372a2.841,2.841,0,1,1-2.841-2.841A2.841,2.841,0,0,1,261.772,287.372Z" transform="translate(-198.014 -224.142)" fill="#fff"/>
      <path id="Path_8" data-name="Path 8" d="M264.976,256.41a.919.919,0,1,1-.919-.919A.918.918,0,0,1,264.976,256.41Z" transform="translate(-201.893 -208.158)" fill="#fff"/>
      <path id="Path_9" data-name="Path 9" d="M265.581,260.273a2.738,2.738,0,1,1-2.737-2.737A2.737,2.737,0,0,1,265.581,260.273Z" transform="translate(-200.224 -209.284)" fill="#fff"/>
      <path id="Path_10" data-name="Path 10" d="M263.335,274.618a2.423,2.423,0,1,1-2.423-2.423A2.423,2.423,0,0,1,263.335,274.618Z" transform="translate(-199.334 -217.352)" fill="#fff"/>
      <path id="Path_11" data-name="Path 11" d="M264.771,243.175a1.834,1.834,0,1,1-1.833-1.833A1.833,1.833,0,0,1,264.771,243.175Z" transform="translate(-200.774 -200.371)" fill="#fff"/>
      <path id="Path_12" data-name="Path 12" d="M248.006,234.525a1.38,1.38,0,1,1-1.38-1.38A1.379,1.379,0,0,1,248.006,234.525Z" transform="translate(-192.046 -195.859)" fill="#fff"/>
      <path id="Path_13" data-name="Path 13" d="M255.111,228.934a1.38,1.38,0,1,1-1.379-1.38A1.38,1.38,0,0,1,255.111,228.934Z" transform="translate(-195.956 -192.782)" fill="#fff"/>
      <path id="Path_14" data-name="Path 14" d="M255.111,241.741a1.38,1.38,0,1,1-1.379-1.38A1.38,1.38,0,0,1,255.111,241.741Z" transform="translate(-195.956 -199.831)" fill="#fff"/>
      <path id="Path_15" data-name="Path 15" d="M256.56,251.449a1.953,1.953,0,1,1-1.952-1.953A1.952,1.952,0,0,1,256.56,251.449Z" transform="translate(-196.123 -204.859)" fill="#fff"/>
      <path id="Path_16" data-name="Path 16" d="M265.887,252.777a1.38,1.38,0,1,1-1.381-1.38A1.381,1.381,0,0,1,265.887,252.777Z" transform="translate(-201.887 -205.905)" fill="#fff"/>
      <path id="Path_17" data-name="Path 17" d="M263.389,281.862a2.18,2.18,0,1,1-2.18-2.181A2.18,2.18,0,0,1,263.389,281.862Z" transform="translate(-199.631 -221.472)" fill="#fff"/>
      <path id="Path_18" data-name="Path 18" d="M265.7,248.717a1.044,1.044,0,1,1-1.043-1.044A1.044,1.044,0,0,1,265.7,248.717Z" transform="translate(-202.153 -203.855)" fill="#fff"/>
      <path id="Path_19" data-name="Path 19" d="M250.1,225.661a.7.7,0,1,1-.7-.7A.7.7,0,0,1,250.1,225.661Z" transform="translate(-193.947 -191.355)" fill="#fff"/>
      <path id="Path_20" data-name="Path 20" d="M246.2,222.552a.7.7,0,1,1-.7-.7A.7.7,0,0,1,246.2,222.552Z" transform="translate(-191.8 -189.644)" fill="#fff"/>
      <path id="Path_21" data-name="Path 21" d="M251.228,213.087a.7.7,0,1,1-.7-.7A.7.7,0,0,1,251.228,213.087Z" transform="translate(-194.569 -180.388)" fill="#fff"/>
      <path id="Path_22" data-name="Path 22" d="M265.651,269.545a1.256,1.256,0,1,1-1.255-1.256A1.256,1.256,0,0,1,265.651,269.545Z" transform="translate(-201.893 -215.202)" fill="#fff"/>
      <path id="Path_23" data-name="Path 23" d="M265.708,231.766a2.18,2.18,0,1,1-2.181-2.181A2.181,2.181,0,0,1,265.708,231.766Z" transform="translate(-200.907 -193.9)" fill="#fff"/>
      <path id="Path_24" data-name="Path 24" d="M265.225,239.084a1.044,1.044,0,1,1-1.043-1.044A1.043,1.043,0,0,1,265.225,239.084Z" transform="translate(-201.893 -198.553)" fill="#fff"/>
      <g id="Group_1" data-name="Group 1" transform="translate(83.627 36.411)">
        <path id="Path_25" data-name="Path 25" d="M342.611,262.313h-6.574l-4.523-20.143h-.251l-4.648,20.143H320.04L312.921,231.2h5.569l4.774,21.19h.25l4.565-21.148h6.408l4.732,21.148h.25l4.649-21.19h5.695Z" transform="translate(-312.921 -231.198)" fill="#fff"/>
        <path id="Path_26" data-name="Path 26" d="M414.124,262.569l-2.679-6.784H398.462l-2.637,6.784h-6.155l12.019-30.906h6.533l12.06,30.906Zm-9.129-23.619L400.641,250.3h8.668Z" transform="translate(-355.163 -231.454)" fill="#fff"/>
        <path id="Path_27" data-name="Path 27" d="M465.112,262.281v-30.99h5.948v31.073Z" transform="translate(-396.687 -231.249)" fill="#fff"/>
      </g>
    </g>
  </g>
  <text id="BWAI의_AI_Detect_API는_접근성과_운영서비스의_범용성을_위해_두가지의_모드로_분할되어_있습니다." data-name="BWAI의 AI Detect API는 접근성과 운영서비스의 
범용성을 위해 두가지의 모드로 분할되어 있습니다." transform="translate(960 277)" fill="#502eff" font-size="48" font-family="NanumSquareOTFR, NanumSquareOTF"><tspan x="-485.784" y="0">BWAI의 AI Detect API는 접근성과 운영서비스의 </tspan><tspan x="-494.52" y="72">범용성을 위해 두가지의 모드로 분할되어 있습니다.</tspan></text>
  <text id="_1._욕설로_판단되는_글자를_마스킹해서_리턴" data-name="1. 욕설로 판단되는 글자를 마스킹해서 리턴" transform="translate(399 572)" font-size="40" font-family="NanumSquareOTFR, NanumSquareOTF"><tspan x="0" y="0">1. 욕설로 판단되는 글자를 마스킹해서 리턴</tspan></text>
  <text id="_1._욕설로_판단되는_글자를_마스킹해서_리턴-2" data-name="1. 욕설로 판단되는 글자를 마스킹해서 리턴" transform="translate(399 1089)" font-size="40" font-family="NanumSquareOTFR, NanumSquareOTF"><tspan x="0" y="0">1. 욕설로 판단되는 글자를 마스킹해서 리턴</tspan></text>
  <g id="Group_11" data-name="Group 11" transform="translate(-30 50)">
    <text id="_생긴거_진짜_개같네_" data-name="&quot;생긴거 진짜 개같네&quot;" transform="translate(429 633)" font-size="40" font-family="NanumSquareOTFB, NanumSquareOTF"><tspan x="0" y="34">&quot;생긴거 진짜 </tspan><tspan y="34" fill="red">개같</tspan><tspan y="34">네&quot;</tspan></text>
  </g>
  <g id="Group_20" data-name="Group 20" transform="translate(-30 567)">
    <text id="_생긴거_진짜_개같네_2" data-name="&quot;생긴거 진짜 개같네&quot;" transform="translate(429 633)" font-size="40" font-family="NanumSquareOTFB, NanumSquareOTF"><tspan x="0" y="34">&quot;생긴거 진짜 </tspan><tspan y="34" fill="red">개같</tspan><tspan y="34">네&quot;</tspan></text>
  </g>
  <text id="_생긴거_진짜_네_" data-name="&quot;생긴거 진짜      네&quot;" transform="translate(1201 717)" stroke="rgba(0,0,0,0)" stroke-width="1" font-size="40" font-family="NanumSquareOTFB, NanumSquareOTF"><tspan x="0" y="0" xml:space="preserve">&quot;생긴거 진짜      네&quot;</tspan></text>
  <text id="_" data-name="**" transform="translate(1427 723)" stroke="rgba(0,0,0,0)" stroke-width="1" font-size="40" font-family="NanumSquareOTFB, NanumSquareOTF"><tspan x="0" y="0">**</tspan></text>
  <g id="Group_18" data-name="Group 18" transform="translate(184 534)">
    <text id="_생긴거_진짜_네_2" data-name="&quot;생긴거 진짜      네&quot;" transform="translate(1017 700)" stroke="rgba(0,0,0,0)" stroke-width="1" font-size="40" font-family="NanumSquareOTFB, NanumSquareOTF"><tspan x="0" y="0" xml:space="preserve">&quot;생긴거 진짜      네&quot;</tspan></text>
    <text id="_2" data-name="**" transform="translate(1243 706)" stroke="rgba(0,0,0,0)" stroke-width="1" font-size="40" font-family="NanumSquareOTFB, NanumSquareOTF"><tspan x="0" y="0">**</tspan></text>
  </g>
  <g id="Group_16" data-name="Group 16">
    <g id="Rectangle_38" data-name="Rectangle 38" transform="translate(907 632)" fill="#fff" stroke="#502eff" stroke-width="5">
      <rect width="130" height="130" rx="25" stroke="none"/>
      <rect x="2.5" y="2.5" width="125" height="125" rx="22.5" fill="none"/>
    </g>
    <g id="Group_12" data-name="Group 12" transform="translate(941.34 676.151)">
      <text id="API" transform="translate(-0.34 32.849)" fill="#502eff" font-size="40" font-family="NanumSquareOTFB, NanumSquareOTF"><tspan x="0" y="0">API</tspan></text>
    </g>
  </g>
  <g id="Group_19" data-name="Group 19" transform="translate(0 517)">
    <g id="Rectangle_38-2" data-name="Rectangle 38" transform="translate(907 632)" fill="#fff" stroke="#502eff" stroke-width="5">
      <rect width="130" height="130" rx="25" stroke="none"/>
      <rect x="2.5" y="2.5" width="125" height="125" rx="22.5" fill="none"/>
    </g>
    <g id="Group_12-2" data-name="Group 12" transform="translate(941.34 676.151)">
      <text id="API-2" data-name="API" transform="translate(-0.34 32.849)" fill="#502eff" font-size="40" font-family="NanumSquareOTFB, NanumSquareOTF"><tspan x="0" y="0">API</tspan></text>
    </g>
  </g>
  <line id="Line_1" data-name="Line 1" x2="106" transform="translate(760 704.5)" fill="none" stroke="#000" stroke-linecap="round" stroke-width="2"/>
  <line id="Line_3" data-name="Line 3" x2="106" transform="translate(760 1221.5)" fill="none" stroke="#000" stroke-linecap="round" stroke-width="2"/>
  <line id="Line_2" data-name="Line 2" x2="106" transform="translate(1073 704.5)" fill="none" stroke="#000" stroke-linecap="round" stroke-width="2"/>
  <line id="Line_4" data-name="Line 4" x2="106" transform="translate(1073 1221.5)" fill="none" stroke="#000" stroke-linecap="round" stroke-width="2"/>
  <g id="Group_14" data-name="Group 14" transform="translate(-30 172)">
    <text id="Masking_-_개발자의_편의를_위해_욕설로_판단된_문자를_특정_문자열로_치환_후_반환하는_기능_-_별도의_작업없이_Bit_Masking_API를_이용하는_것_만으로_기존의_서비스와_연동_가능" data-name="Masking
- 개발자의 편의를 위해 욕설로 판단된 문자를 특정 문자열로 치환 후 반환하는 기능
- 별도의 작업없이, Bit Masking API를 이용하는 것 만으로 기존의 서비스와 연동 가능" transform="translate(429 667)" font-size="32" font-family="NanumSquareOTFR, NanumSquareOTF"><tspan x="0" y="0">Masking</tspan><tspan x="0" y="54">- 개발자의 편의를 위해 욕설로 판단된 문자를 특정 문자열로 치환 후 반환하는 기능</tspan><tspan x="0" y="108">- 별도의 작업없이, Bit Masking API를 이용하는 것 만으로 기존의 서비스와 연동 가능</tspan></text>
  </g>
  <g id="Group_17" data-name="Group 17" transform="translate(-30 689)">
    <text id="Masking_-_개발자의_편의를_위해_욕설로_판단된_문자를_특정_문자열로_치환_후_반환하는_기능_-_별도의_작업없이_Bit_Masking_API를_이용하는_것_만으로_기존의_서비스와_연동_가능-2" data-name="Masking
- 개발자의 편의를 위해 욕설로 판단된 문자를 특정 문자열로 치환 후 반환하는 기능
- 별도의 작업없이, Bit Masking API를 이용하는 것 만으로 기존의 서비스와 연동 가능" transform="translate(429 667)" font-size="32" font-family="NanumSquareOTFR, NanumSquareOTF"><tspan x="0" y="0">Masking</tspan><tspan x="0" y="54">- 개발자의 편의를 위해 욕설로 판단된 문자를 특정 문자열로 치환 후 반환하는 기능</tspan><tspan x="0" y="108">- 별도의 작업없이, Bit Masking API를 이용하는 것 만으로 기존의 서비스와 연동 가능</tspan></text>
  </g>
</svg>
