<svg xmlns="http://www.w3.org/2000/svg" xmlns:xlink="http://www.w3.org/1999/xlink" width="1920" height="3795" viewBox="0 0 1920 3795">
  <defs>
    <style>
      .cls-1 {
        fill: url(#linear-gradient);
      }

      .cls-15, .cls-2, .cls-21, .cls-27, .cls-38, .cls-43, .cls-46, .cls-56 {
        fill: none;
      }

      .cls-2, .cls-29, .cls-30 {
        stroke: #7763d3;
      }

      .cls-16, .cls-2, .cls-27, .cls-38, .cls-42 {
        stroke-linecap: round;
      }

      .cls-2, .cls-27, .cls-29, .cls-30, .cls-38, .cls-41, .cls-42, .cls-43, .cls-46 {
        stroke-width: 2px;
      }

      .cls-3, .cls-33 {
        fill: #eff5fe;
      }

      .cls-3 {
        stroke: #acf;
      }

      .cls-15, .cls-16, .cls-18, .cls-3, .cls-9 {
        stroke-width: 5px;
      }

      .cls-4 {
        fill: #acf;
      }

      .cls-5 {
        fill: #38268c;
      }

      .cls-10, .cls-14, .cls-17, .cls-19, .cls-40, .cls-44, .cls-48, .cls-49, .cls-5 {
        font-size: 32px;
      }

      .cls-10, .cls-14, .cls-19, .cls-47, .cls-5 {
        font-family: NotoSansKR-Medium, Noto Sans KR;
        font-weight: 500;
      }

      .cls-6 {
        fill: #f4f4f8;
      }

      .cls-7 {
        font-size: 48px;
      }

      .cls-34, .cls-40, .cls-49, .cls-53, .cls-7 {
        font-family: NanumSquareOTFR, NanumSquareOTF;
      }

      .cls-30, .cls-8 {
        fill: #c3f8fc;
      }

      .cls-8 {
        stroke: #565bd1;
        stroke-width: 4px;
      }

      .cls-9 {
        fill: #cfc3fc;
      }

      .cls-46, .cls-9 {
        stroke: #502eff;
      }

      .cls-10, .cls-28, .cls-44, .cls-53, .cls-54 {
        fill: #fff;
      }

      .cls-11 {
        fill: #ff2e2e;
        font-size: 52px;
      }

      .cls-11, .cls-54 {
        font-family: NotoSansKR-Bold, Noto Sans KR;
        font-weight: 700;
      }

      .cls-12, .cls-47 {
        fill: #502eff;
      }

      .cls-13 {
        fill: #000;
      }

      .cls-14 {
        fill: #2d2c33;
      }

      .cls-15, .cls-16, .cls-18, .cls-38, .cls-41, .cls-42, .cls-43 {
        stroke: #6c54ce;
      }

      .cls-16, .cls-19, .cls-42, .cls-45, .cls-58 {
        fill: #6c54ce;
      }

      .cls-17, .cls-31, .cls-32 {
        fill: #565bd1;
      }

      .cls-17, .cls-44 {
        font-family: NotoSansKR-Regular, Noto Sans KR;
      }

      .cls-18, .cls-41 {
        fill: url(#linear-gradient-2);
      }

      .cls-20, .cls-23, .cls-24, .cls-25, .cls-26, .cls-29, .cls-57 {
        fill: #7763d3;
      }

      .cls-21 {
        stroke: #707070;
      }

      .cls-22, .cls-31, .cls-53 {
        font-size: 24px;
      }

      .cls-22, .cls-31, .cls-32 {
        font-family: NotoSansKR-Light, Noto Sans KR;
      }

      .cls-22, .cls-28, .cls-31, .cls-32 {
        font-weight: 300;
      }

      .cls-24 {
        opacity: 0.79;
      }

      .cls-25, .cls-39, .cls-49, .cls-54 {
        opacity: 0.5;
      }

      .cls-26 {
        opacity: 0.3;
      }

      .cls-27 {
        stroke: #000;
      }

      .cls-28, .cls-32 {
        font-size: 17px;
      }

      .cls-28 {
        font-family: Helvetica-Light, Helvetica;
      }

      .cls-34, .cls-35, .cls-37, .cls-47 {
        font-size: 40px;
      }

      .cls-35, .cls-37, .cls-48, .cls-50, .cls-51 {
        font-family: NanumSquareOTFB, NanumSquareOTF;
      }

      .cls-36, .cls-51 {
        fill: red;
      }

      .cls-37, .cls-48, .cls-50, .cls-51 {
        stroke: rgba(0,0,0,0);
      }

      .cls-50, .cls-51, .cls-54 {
        font-size: 20px;
      }

      .cls-50, .cls-51 {
        letter-spacing: -0.02em;
      }

      .cls-52 {
        fill: #222d39;
      }

      .cls-55, .cls-57, .cls-58 {
        stroke: none;
      }
    </style>
    <linearGradient id="linear-gradient" x1="0.5" x2="0.5" y2="1" gradientUnits="objectBoundingBox">
      <stop offset="0" stop-color="#cfc3fc"/>
      <stop offset="1" stop-color="#fff"/>
    </linearGradient>
    <linearGradient id="linear-gradient-2" x1="0.5" x2="0.5" y2="1" gradientUnits="objectBoundingBox">
      <stop offset="0" stop-color="#afc4fc"/>
      <stop offset="1" stop-color="#d4c3fc"/>
    </linearGradient>
  </defs>
  <g id="그룹_96" data-name="그룹 96" transform="translate(0 -86)">
    <path id="다각형_13" data-name="다각형 13" class="cls-1" d="M847,0l847,1103H0Z" transform="translate(1807 1946) rotate(180)"/>
    <line id="선_9" data-name="선 9" class="cls-2" y2="221" transform="translate(1421 861)"/>
    <g id="사각형_57" data-name="사각형 57" class="cls-3" transform="translate(1178 517) rotate(90)">
      <rect class="cls-55" width="391" height="436" rx="27"/>
      <rect class="cls-56" x="2.5" y="2.5" width="386" height="431" rx="24.5"/>
    </g>
    <rect id="사각형_58" data-name="사각형 58" class="cls-4" width="128" height="54" transform="translate(896 466)"/>
    <text id="KcBERT" class="cls-5" transform="translate(960 507)"><tspan x="-58.944" y="0">KcBERT</tspan></text>
    <rect id="사각형_36" data-name="사각형 36" class="cls-6" width="1920" height="280" transform="translate(0 86)"/>
    <text id="BWAI의_AI_Detect_API는_접근성과_운영서비스의_범용성을_위해_두가지의_모드로_분할되어_있습니다." data-name="BWAI의 AI Detect API는 접근성과 운영서비스의 
범용성을 위해 두가지의 모드로 분할되어 있습니다." class="cls-7" transform="translate(960 205)"><tspan x="-485.784" y="0">BWAI의 AI Detect API는 접근성과 운영서비스의 </tspan><tspan x="-494.52" y="72">범용성을 위해 두가지의 모드로 분할되어 있습니다.</tspan></text>
    <g id="사각형_78" data-name="사각형 78" class="cls-8" transform="translate(721 1655)">
      <rect class="cls-55" width="478" height="67" rx="10"/>
      <rect class="cls-56" x="2" y="2" width="474" height="63" rx="8"/>
    </g>
    <g id="사각형_55" data-name="사각형 55" class="cls-9" transform="translate(720 1772)">
      <rect class="cls-55" width="478" height="67" rx="10"/>
      <rect class="cls-56" x="2.5" y="2.5" width="473" height="62" rx="7.5"/>
    </g>
    <text id="Pooler" class="cls-10" transform="translate(959 1819)"><tspan x="-49.936" y="0">Pooler</tspan></text>
    <text id="Bad_Word_or_Not" data-name="Bad Word or Not" class="cls-11" transform="translate(960 2030)"><tspan x="-208.91" y="0">Bad Word</tspan><tspan class="cls-12" y="0"> </tspan><tspan class="cls-13" y="0">or Not</tspan></text>
    <text id="Classifier" class="cls-14" transform="translate(960 1702)"><tspan x="-70.288" y="0">Classifier</tspan></text>
    <path id="합치기_4" data-name="합치기 4" class="cls-15" d="M20,301A20,20,0,0,1,0,281V77.544A19.94,19.94,0,0,1,6.147,63.119a20.089,20.089,0,0,1,3.472-4.427,20.08,20.08,0,0,1,3.471-4.426,20.074,20.074,0,0,1,3.473-4.428,20.088,20.088,0,0,1,3.47-4.424,20.087,20.087,0,0,1,3.473-4.428,20.079,20.079,0,0,1,3.473-4.427,20.091,20.091,0,0,1,3.47-4.424,20.074,20.074,0,0,1,3.471-4.426,20.082,20.082,0,0,1,3.474-4.429,20.079,20.079,0,0,1,3.472-4.426,20.077,20.077,0,0,1,3.472-4.427A20.078,20.078,0,0,1,47.808,10,19.992,19.992,0,0,1,65.134,0H232a20,20,0,0,1,20,20V223.456a19.941,19.941,0,0,1-6.147,14.425,20.074,20.074,0,0,1-3.473,4.428,20.091,20.091,0,0,1-3.47,4.424,20.076,20.076,0,0,1-3.472,4.427,20.074,20.074,0,0,1-3.473,4.428,20.092,20.092,0,0,1-3.47,4.424,20.071,20.071,0,0,1-3.473,4.428,20.083,20.083,0,0,1-3.47,4.425,20.081,20.081,0,0,1-3.473,4.428,20.076,20.076,0,0,1-3.472,4.427,20.078,20.078,0,0,1-3.47,4.424,20.081,20.081,0,0,1-3.474,4.429A20.082,20.082,0,0,1,204.189,291a19.991,19.991,0,0,1-17.324,10Z" transform="translate(1318 560)"/>
    <path id="패스_32" data-name="패스 32" class="cls-16" d="M3712,614.365,3757.89,559" transform="matrix(0.996, -0.087, 0.087, 0.996, -2229.187, 336.522)"/>
    <rect id="사각형_122" data-name="사각형 122" class="cls-15" width="206" height="244" rx="20" transform="translate(1318.5 617.5)"/>
    <text id="Sequence_output" data-name="Sequence
output" class="cls-17" transform="translate(1422 731)"><tspan x="-73.312" y="0">Sequence</tspan><tspan x="-51.104" y="44">output</tspan></text>
    <path id="합치기_1" data-name="합치기 1" class="cls-18" d="M20,359A20,20,0,0,1,0,339V88.632A19.97,19.97,0,0,1,7.983,72.644a20.1,20.1,0,0,1,4.878-5.28,20.117,20.117,0,0,1,4.876-5.278A20.112,20.112,0,0,1,22.616,56.8a20.109,20.109,0,0,1,4.875-5.277,20.115,20.115,0,0,1,4.877-5.28,20.112,20.112,0,0,1,4.879-5.282,20.109,20.109,0,0,1,4.875-5.277A20.115,20.115,0,0,1,47,30.409a20.112,20.112,0,0,1,4.879-5.282,20.109,20.109,0,0,1,4.875-5.277,20.106,20.106,0,0,1,4.879-5.281,20.112,20.112,0,0,1,4.877-5.279A19.983,19.983,0,0,1,83.4,0H334a20,20,0,0,1,20,20V270.367a19.97,19.97,0,0,1-7.983,15.988,20.1,20.1,0,0,1-4.878,5.28,20.116,20.116,0,0,1-4.876,5.278,20.112,20.112,0,0,1-4.879,5.282,20.109,20.109,0,0,1-4.875,5.277,20.115,20.115,0,0,1-4.877,5.279,20.112,20.112,0,0,1-4.879,5.282,20.109,20.109,0,0,1-4.875,5.277A20.115,20.115,0,0,1,307,328.59a20.112,20.112,0,0,1-4.879,5.282,20.109,20.109,0,0,1-4.875,5.277,20.106,20.106,0,0,1-4.879,5.281,20.112,20.112,0,0,1-4.877,5.279A19.983,19.983,0,0,1,270.6,359Z" transform="translate(783 1099)"/>
    <path id="패스_27" data-name="패스 27" class="cls-16" d="M3712,629.23,3770.679,559" transform="translate(-2641.224 548.068)"/>
    <rect id="사각형_61" data-name="사각형 61" class="cls-15" width="291" height="291" rx="20" transform="translate(783 1167)"/>
    <text id="Attention_Module" data-name="Attention
Module" class="cls-10" transform="translate(928 1307)"><tspan x="-71.488" y="0">Attention</tspan><tspan x="-56.912" y="44">Module</tspan></text>
    <text id="K" class="cls-19" transform="translate(950.191 1089)"><tspan x="-10.608" y="0">K</tspan></text>
    <text id="Q" class="cls-19" transform="translate(897.191 1089)"><tspan x="-12.064" y="0">Q</tspan></text>
    <text id="V" class="cls-19" transform="translate(1091.191 1089)"><tspan x="-9.504" y="0">V</tspan></text>
    <path id="다각형_2" data-name="다각형 2" class="cls-20" d="M7.5,0,15,11H0Z" transform="matrix(-0.899, 0.438, -0.438, -0.899, 894.818, 1058.509)"/>
    <path id="다각형_9" data-name="다각형 9" class="cls-20" d="M7.5,0,15,11H0Z" transform="translate(958.592 1057.485) rotate(166)"/>
    <path id="다각형_11" data-name="다각형 11" class="cls-20" d="M7.5,0,15,11H0Z" transform="matrix(-0.829, 0.559, -0.559, -0.829, 942.877, 1056.512)"/>
    <line id="선_7" data-name="선 7" class="cls-2" x2="193.059" transform="matrix(0.438, 0.899, -0.899, 0.438, 801.013, 885.57)"/>
    <line id="선_12" data-name="선 12" class="cls-2" x2="193.059" transform="translate(902.792 868.822) rotate(76)"/>
    <line id="선_14" data-name="선 14" class="cls-2" y1="12.683" x2="215.448" transform="matrix(0.559, 0.829, -0.829, 0.559, 813.396, 879.749)"/>
    <g id="그룹_77" data-name="그룹 77" transform="translate(55.199 -257.087) rotate(3)">
      <path id="다각형_10" data-name="다각형 10" class="cls-20" d="M7.5,0,15,11H0Z" transform="translate(922.17 1272.322) rotate(-180)"/>
      <line id="선_13" data-name="선 13" class="cls-2" x2="125.783" y2="170.657" transform="matrix(0.819, 0.574, -0.574, 0.819, 908.519, 1056.882)"/>
    </g>
    <path id="다각형_3" data-name="다각형 3" class="cls-20" d="M7.5,0,15,11H0Z" transform="translate(1104.567 1090) rotate(-90)"/>
    <path id="패스_1" data-name="패스 1" class="cls-21" d="M2940.2,586.4" transform="translate(1541 -1992) rotate(90)"/>
    <g id="그룹_75" data-name="그룹 75" transform="translate(24.5 -84)">
      <g id="그룹_56" data-name="그룹 56" transform="translate(460.5 1549.5) rotate(-90)">
        <circle id="타원_1" data-name="타원 1" class="cls-20" cx="3.5" cy="3.5" r="3.5" transform="translate(722 483)"/>
        <circle id="타원_2" data-name="타원 2" class="cls-20" cx="3.5" cy="3.5" r="3.5" transform="translate(722 493)"/>
        <circle id="타원_3" data-name="타원 3" class="cls-20" cx="3.5" cy="3.5" r="3.5" transform="translate(722 503)"/>
      </g>
      <g id="그룹_58" data-name="그룹 58" transform="translate(517.5 1549.5) rotate(-90)">
        <circle id="타원_1-2" data-name="타원 1" class="cls-20" cx="3.5" cy="3.5" r="3.5" transform="translate(722 483)"/>
        <circle id="타원_2-2" data-name="타원 2" class="cls-20" cx="3.5" cy="3.5" r="3.5" transform="translate(722 493)"/>
        <circle id="타원_3-2" data-name="타원 3" class="cls-20" cx="3.5" cy="3.5" r="3.5" transform="translate(722 503)"/>
      </g>
    </g>
    <g id="그룹_57" data-name="그룹 57" transform="translate(-53 243)">
      <circle id="타원_1-3" data-name="타원 1" class="cls-20" cx="3.5" cy="3.5" r="3.5" transform="translate(722 483)"/>
      <circle id="타원_2-3" data-name="타원 2" class="cls-20" cx="3.5" cy="3.5" r="3.5" transform="translate(722 493)"/>
      <circle id="타원_3-3" data-name="타원 3" class="cls-20" cx="3.5" cy="3.5" r="3.5" transform="translate(722 503)"/>
    </g>
    <text id="_1" data-name="1" class="cls-22" transform="translate(672 631)"><tspan x="-6.42" y="0">1</tspan></text>
    <text id="_2" data-name="2" class="cls-22" transform="translate(672 670)"><tspan x="-6.42" y="0">2</tspan></text>
    <text id="_3" data-name="3" class="cls-22" transform="translate(672 708)"><tspan x="-6.42" y="0">3</tspan></text>
    <text id="_512" data-name="512" class="cls-22" transform="translate(672 785)"><tspan x="-19.26" y="0">512</tspan></text>
    <path id="합치기_3" data-name="합치기 3" class="cls-15" d="M20,301A20,20,0,0,1,0,281V77.544A19.94,19.94,0,0,1,6.147,63.119a20.089,20.089,0,0,1,3.472-4.427,20.08,20.08,0,0,1,3.471-4.426,20.074,20.074,0,0,1,3.473-4.428,20.088,20.088,0,0,1,3.47-4.424,20.087,20.087,0,0,1,3.473-4.428,20.079,20.079,0,0,1,3.473-4.427,20.091,20.091,0,0,1,3.47-4.424,20.074,20.074,0,0,1,3.471-4.426,20.082,20.082,0,0,1,3.474-4.429,20.079,20.079,0,0,1,3.472-4.426,20.077,20.077,0,0,1,3.472-4.427A20.078,20.078,0,0,1,47.808,10,19.992,19.992,0,0,1,65.134,0H232a20,20,0,0,1,20,20V223.456a19.941,19.941,0,0,1-6.147,14.425,20.074,20.074,0,0,1-3.473,4.428,20.091,20.091,0,0,1-3.47,4.424,20.076,20.076,0,0,1-3.472,4.427,20.074,20.074,0,0,1-3.473,4.428,20.092,20.092,0,0,1-3.47,4.424,20.071,20.071,0,0,1-3.473,4.428,20.083,20.083,0,0,1-3.47,4.425,20.081,20.081,0,0,1-3.473,4.428,20.076,20.076,0,0,1-3.472,4.427,20.078,20.078,0,0,1-3.47,4.424,20.081,20.081,0,0,1-3.474,4.429A20.082,20.082,0,0,1,204.189,291a19.991,19.991,0,0,1-17.324,10Z" transform="translate(350 560)"/>
    <path id="패스_31" data-name="패스 31" class="cls-16" d="M3712,614.365,3757.89,559" transform="matrix(0.996, -0.087, 0.087, 0.996, -3197.187, 336.522)"/>
    <rect id="사각형_107" data-name="사각형 107" class="cls-15" width="206" height="244" rx="20" transform="translate(350.5 617.5)"/>
    <text id="Embedding_output" data-name="Embedding 
output" class="cls-17" transform="translate(454 731)"><tspan x="-89.584" y="0">Embedding </tspan><tspan x="-51.104" y="44">output</tspan></text>
    <line id="선_10" data-name="선 10" class="cls-2" x1="306" transform="translate(1115 1082.5)"/>
    <g id="다각형_5" data-name="다각형 5" class="cls-23" transform="translate(987 1622) rotate(180)">
      <path class="cls-55" d="M 52.68490600585938 23.5 L 1.315092444419861 23.5 L 27 0.6689711213111877 L 52.68490600585938 23.5 Z"/>
      <path class="cls-57" d="M 27 1.33795166015625 L 2.630195617675781 23 L 51.36980438232422 23 L 27 1.33795166015625 M 27 0 L 54 24 L 0 24 L 27 0 Z"/>
    </g>
    <g id="다각형_16" data-name="다각형 16" class="cls-23" transform="translate(987 1759) rotate(180)">
      <path class="cls-55" d="M 52.68490600585938 23.5 L 1.315092444419861 23.5 L 27 0.6689711213111877 L 52.68490600585938 23.5 Z"/>
      <path class="cls-57" d="M 27 1.33795166015625 L 2.630195617675781 23 L 51.36980438232422 23 L 27 1.33795166015625 M 27 0 L 54 24 L 0 24 L 27 0 Z"/>
    </g>
    <g id="다각형_14" data-name="다각형 14" class="cls-23" transform="translate(987 1582) rotate(180)">
      <path class="cls-55" d="M 52.68490600585938 23.5 L 1.315092444419861 23.5 L 27 0.6689711213111877 L 52.68490600585938 23.5 Z"/>
      <path class="cls-57" d="M 27 1.33795166015625 L 2.630195617675781 23 L 51.36980438232422 23 L 27 1.33795166015625 M 27 0 L 54 24 L 0 24 L 27 0 Z"/>
    </g>
    <g id="다각형_15" data-name="다각형 15" class="cls-23" transform="translate(987 1542) rotate(180)">
      <path class="cls-55" d="M 52.68490600585938 23.5 L 1.315092444419861 23.5 L 27 0.6689711213111877 L 52.68490600585938 23.5 Z"/>
      <path class="cls-57" d="M 27 1.33795166015625 L 2.630195617675781 23 L 51.36980438232422 23 L 27 1.33795166015625 M 27 0 L 54 24 L 0 24 L 27 0 Z"/>
    </g>
    <path id="다각형_6" data-name="다각형 6" class="cls-24" d="M32.5,0,65,29H0Z" transform="translate(993 1913) rotate(180)"/>
    <path id="다각형_7" data-name="다각형 7" class="cls-25" d="M32.5,0,65,29H0Z" transform="translate(993 1898) rotate(180)"/>
    <path id="다각형_8" data-name="다각형 8" class="cls-26" d="M32.5,0,65,29H0Z" transform="translate(993 1884) rotate(180)"/>
    <g id="그룹_44" data-name="그룹 44" transform="translate(1662.333 140) rotate(90)">
      <line id="선_5" data-name="선 5" class="cls-27" y1="731.608" transform="translate(534.5 354.725)"/>
      <path id="다각형_1" data-name="다각형 1" d="M7.5,0,15,11H0Z" transform="translate(527 352.333)"/>
    </g>
    <g id="그룹_70" data-name="그룹 70" transform="translate(1662.333 101) rotate(90)">
      <line id="선_5-2" data-name="선 5" class="cls-27" y1="731.608" transform="translate(534.5 354.725)"/>
      <path id="다각형_1-2" data-name="다각형 1" d="M7.5,0,15,11H0Z" transform="translate(527 352.333)"/>
    </g>
    <g id="그룹_43" data-name="그룹 43" transform="translate(1662 140) rotate(90)">
      <line id="선_5-3" data-name="선 5" class="cls-27" y1="731.275" transform="translate(572.5 354.725)"/>
      <path id="다각형_1-3" data-name="다각형 1" d="M7.5,0,15,11H0Z" transform="translate(565 352)"/>
    </g>
    <g id="그룹_41" data-name="그룹 41" transform="translate(1662 139) rotate(90)">
      <line id="선_5-4" data-name="선 5" class="cls-27" y1="731.275" transform="translate(650.5 354.725)"/>
      <path id="다각형_1-4" data-name="다각형 1" d="M7.5,0,15,11H0Z" transform="translate(643 352)"/>
    </g>
    <text id="_2-2" data-name="2" class="cls-28" transform="translate(803.745 573.774) rotate(90)"><tspan x="-4.726" y="0">2</tspan></text>
    <path id="패스_2" data-name="패스 2" class="cls-29" d="M-2739.444,1919.128h-299.641a21.748,21.748,0,0,0-21.748,21.748,21.748,21.748,0,0,0,21.748,21.748h299.641a21.748,21.748,0,0,0,21.748-21.748A21.748,21.748,0,0,0-2739.444,1919.128Z" transform="translate(2734.625 3596.865) rotate(90)"/>
    <path id="패스_3" data-name="패스 3" class="cls-29" d="M-2737.944,1917.342h-299.641a21.748,21.748,0,0,0-21.748,21.748,21.748,21.748,0,0,0,21.748,21.748h299.641a21.748,21.748,0,0,0,21.748-21.748A21.748,21.748,0,0,0-2737.944,1917.342Z" transform="translate(2733.345 3595.791) rotate(90)"/>
    <path id="패스_4" data-name="패스 4" class="cls-29" d="M-2736.445,1915.557h-299.641a21.748,21.748,0,0,0-21.748,21.748,21.748,21.748,0,0,0,21.748,21.748h299.641a21.748,21.748,0,0,0,21.748-21.748A21.748,21.748,0,0,0-2736.445,1915.557Z" transform="translate(2732.068 3594.718) rotate(90)"/>
    <path id="패스_5" data-name="패스 5" class="cls-29" d="M-2734.945,1913.771h-299.641a21.748,21.748,0,0,0-21.748,21.748,21.748,21.748,0,0,0,21.748,21.748h299.641a21.748,21.748,0,0,0,21.748-21.748A21.748,21.748,0,0,0-2734.945,1913.771Z" transform="translate(2730.79 3593.645) rotate(90)"/>
    <path id="패스_6" data-name="패스 6" class="cls-29" d="M-2733.445,1911.985h-299.641a21.748,21.748,0,0,0-21.748,21.748,21.748,21.748,0,0,0,21.748,21.748h299.641a21.748,21.748,0,0,0,21.749-21.748A21.748,21.748,0,0,0-2733.445,1911.985Z" transform="translate(2729.511 3592.571) rotate(90)"/>
    <path id="패스_7" data-name="패스 7" class="cls-29" d="M-2731.945,1910.2h-299.641a21.748,21.748,0,0,0-21.748,21.748,21.748,21.748,0,0,0,21.748,21.748h299.641a21.749,21.749,0,0,0,21.749-21.748A21.748,21.748,0,0,0-2731.945,1910.2Z" transform="translate(2728.233 3591.497) rotate(90)"/>
    <path id="패스_8" data-name="패스 8" class="cls-29" d="M-2730.445,1908.414h-299.64a21.748,21.748,0,0,0-21.748,21.748,21.748,21.748,0,0,0,21.748,21.748h299.64a21.748,21.748,0,0,0,21.749-21.749A21.748,21.748,0,0,0-2730.445,1908.414Z" transform="translate(2726.955 3590.423) rotate(90)"/>
    <path id="패스_9" data-name="패스 9" class="cls-29" d="M-2728.945,1906.629h-299.641a21.748,21.748,0,0,0-21.748,21.748,21.748,21.748,0,0,0,21.748,21.748h299.641a21.748,21.748,0,0,0,21.749-21.748A21.749,21.749,0,0,0-2728.945,1906.629Z" transform="translate(2725.676 3589.35) rotate(90)"/>
    <path id="패스_10" data-name="패스 10" class="cls-29" d="M-2727.445,1904.843h-299.641a21.748,21.748,0,0,0-21.748,21.748,21.748,21.748,0,0,0,21.748,21.748h299.641a21.748,21.748,0,0,0,21.749-21.748A21.748,21.748,0,0,0-2727.445,1904.843Z" transform="translate(2724.398 3588.276) rotate(90)"/>
    <path id="패스_11" data-name="패스 11" class="cls-29" d="M-2725.945,1903.058h-299.64a21.748,21.748,0,0,0-21.748,21.748,21.748,21.748,0,0,0,21.748,21.748h299.64a21.748,21.748,0,0,0,21.748-21.748A21.748,21.748,0,0,0-2725.945,1903.058Z" transform="translate(2723.121 3587.202) rotate(90)"/>
    <path id="패스_12" data-name="패스 12" class="cls-29" d="M-2724.445,1901.271h-299.641a21.748,21.748,0,0,0-21.748,21.749,21.748,21.748,0,0,0,21.748,21.748h299.641a21.748,21.748,0,0,0,21.748-21.748A21.748,21.748,0,0,0-2724.445,1901.271Z" transform="translate(2721.841 3586.128) rotate(90)"/>
    <path id="패스_13" data-name="패스 13" class="cls-29" d="M-2722.945,1899.486h-299.641a21.748,21.748,0,0,0-21.748,21.748,21.748,21.748,0,0,0,21.748,21.748h299.641a21.748,21.748,0,0,0,21.748-21.748A21.748,21.748,0,0,0-2722.945,1899.486Z" transform="translate(2720.563 3585.054) rotate(90)"/>
    <path id="패스_14" data-name="패스 14" class="cls-29" d="M-2721.445,1897.7h-299.641a21.748,21.748,0,0,0-21.748,21.748,21.748,21.748,0,0,0,21.748,21.748h299.641a21.748,21.748,0,0,0,21.748-21.748A21.748,21.748,0,0,0-2721.445,1897.7Z" transform="translate(2719.286 3583.98) rotate(90)"/>
    <path id="패스_15" data-name="패스 15" class="cls-29" d="M-2719.945,1895.915h-299.641a21.748,21.748,0,0,0-21.748,21.748,21.748,21.748,0,0,0,21.748,21.748h299.641a21.748,21.748,0,0,0,21.748-21.748A21.748,21.748,0,0,0-2719.945,1895.915Z" transform="translate(2718.007 3582.907) rotate(90)"/>
    <path id="패스_16" data-name="패스 16" class="cls-29" d="M-2718.445,1894.129h-299.641a21.748,21.748,0,0,0-21.748,21.748,21.748,21.748,0,0,0,21.748,21.748h299.641a21.748,21.748,0,0,0,21.748-21.748A21.748,21.748,0,0,0-2718.445,1894.129Z" transform="translate(2716.729 3581.833) rotate(90)"/>
    <path id="패스_17" data-name="패스 17" class="cls-29" d="M-2716.945,1892.344h-299.641a21.748,21.748,0,0,0-21.748,21.748,21.748,21.748,0,0,0,21.748,21.748h299.641a21.748,21.748,0,0,0,21.748-21.748A21.748,21.748,0,0,0-2716.945,1892.344Z" transform="translate(2715.451 3580.759) rotate(90)"/>
    <path id="패스_18" data-name="패스 18" class="cls-29" d="M-2715.446,1890.558h-299.641a21.748,21.748,0,0,0-21.748,21.748,21.748,21.748,0,0,0,21.748,21.748h299.641a21.748,21.748,0,0,0,21.748-21.748A21.748,21.748,0,0,0-2715.446,1890.558Z" transform="translate(2714.172 3579.687) rotate(90)"/>
    <path id="패스_19" data-name="패스 19" class="cls-29" d="M-2713.946,1888.773h-299.641a21.748,21.748,0,0,0-21.748,21.748,21.748,21.748,0,0,0,21.748,21.748h299.641a21.748,21.748,0,0,0,21.748-21.748A21.748,21.748,0,0,0-2713.946,1888.773Z" transform="translate(2712.895 3578.613) rotate(90)"/>
    <path id="패스_20" data-name="패스 20" class="cls-29" d="M-2712.446,1886.987h-299.641a21.748,21.748,0,0,0-21.748,21.748,21.748,21.748,0,0,0,21.748,21.748h299.641a21.748,21.748,0,0,0,21.748-21.748A21.748,21.748,0,0,0-2712.446,1886.987Z" transform="translate(2711.616 3577.539) rotate(90)"/>
    <path id="패스_21" data-name="패스 21" class="cls-29" d="M-2710.946,1885.2h-299.641a21.748,21.748,0,0,0-21.748,21.748,21.748,21.748,0,0,0,21.748,21.748h299.641a21.748,21.748,0,0,0,21.749-21.748A21.748,21.748,0,0,0-2710.946,1885.2Z" transform="translate(2710.338 3576.465) rotate(90)"/>
    <path id="패스_22" data-name="패스 22" class="cls-29" d="M-2709.446,1883.416h-299.64a21.748,21.748,0,0,0-21.748,21.748,21.748,21.748,0,0,0,21.748,21.748h299.64a21.748,21.748,0,0,0,21.748-21.748A21.748,21.748,0,0,0-2709.446,1883.416Z" transform="translate(2709.06 3575.392) rotate(90)"/>
    <path id="패스_23" data-name="패스 23" class="cls-29" d="M-2707.946,1881.63h-299.641a21.748,21.748,0,0,0-21.748,21.748,21.748,21.748,0,0,0,21.748,21.748h299.641a21.749,21.749,0,0,0,21.749-21.748A21.749,21.749,0,0,0-2707.946,1881.63Z" transform="translate(2707.781 3574.317) rotate(90)"/>
    <path id="패스_25" data-name="패스 25" class="cls-30" d="M-2762.391,2099.128h-299.641a21.748,21.748,0,0,0-21.749,21.748,21.748,21.748,0,0,0,21.749,21.748h299.641a21.748,21.748,0,0,0,21.748-21.748A21.748,21.748,0,0,0-2762.391,2099.128Z" transform="translate(2915.124 3620.28) rotate(90)"/>
    <text id="E_n_c_o_d_e_r" data-name="E
n
c
o
d
e
r" class="cls-31" transform="translate(787 659.428)"><tspan x="0" y="0">E</tspan><tspan x="0" y="24">n</tspan><tspan x="0" y="48">c</tspan><tspan x="0" y="72">o</tspan><tspan x="0" y="96">d</tspan><tspan x="0" y="120">e</tspan><tspan x="0" y="144">r</tspan></text>
    <text id="_1-2" data-name="1" class="cls-32" transform="translate(795 628)"><tspan x="-4.548" y="0">1</tspan></text>
    <text id="_2-3" data-name="2" class="cls-28" transform="translate(903.745 575.774) rotate(90)"><tspan x="-4.726" y="0">2</tspan></text>
    <path id="패스_2-2" data-name="패스 2" class="cls-29" d="M-2739.444,1919.128h-299.641a21.748,21.748,0,0,0-21.748,21.748,21.748,21.748,0,0,0,21.748,21.748h299.641a21.748,21.748,0,0,0,21.748-21.748A21.748,21.748,0,0,0-2739.444,1919.128Z" transform="translate(2834.625 3598.865) rotate(90)"/>
    <path id="패스_3-2" data-name="패스 3" class="cls-29" d="M-2737.944,1917.342h-299.641a21.748,21.748,0,0,0-21.748,21.748,21.748,21.748,0,0,0,21.748,21.748h299.641a21.748,21.748,0,0,0,21.748-21.748A21.748,21.748,0,0,0-2737.944,1917.342Z" transform="translate(2833.345 3597.791) rotate(90)"/>
    <path id="패스_4-2" data-name="패스 4" class="cls-29" d="M-2736.445,1915.557h-299.641a21.748,21.748,0,0,0-21.748,21.748,21.748,21.748,0,0,0,21.748,21.748h299.641a21.748,21.748,0,0,0,21.748-21.748A21.748,21.748,0,0,0-2736.445,1915.557Z" transform="translate(2832.068 3596.718) rotate(90)"/>
    <path id="패스_5-2" data-name="패스 5" class="cls-29" d="M-2734.945,1913.771h-299.641a21.748,21.748,0,0,0-21.748,21.748,21.748,21.748,0,0,0,21.748,21.748h299.641a21.748,21.748,0,0,0,21.748-21.748A21.748,21.748,0,0,0-2734.945,1913.771Z" transform="translate(2830.79 3595.645) rotate(90)"/>
    <path id="패스_6-2" data-name="패스 6" class="cls-29" d="M-2733.445,1911.985h-299.641a21.748,21.748,0,0,0-21.748,21.748,21.748,21.748,0,0,0,21.748,21.748h299.641a21.748,21.748,0,0,0,21.749-21.748A21.748,21.748,0,0,0-2733.445,1911.985Z" transform="translate(2829.511 3594.571) rotate(90)"/>
    <path id="패스_7-2" data-name="패스 7" class="cls-29" d="M-2731.945,1910.2h-299.641a21.748,21.748,0,0,0-21.748,21.748,21.748,21.748,0,0,0,21.748,21.748h299.641a21.749,21.749,0,0,0,21.749-21.748A21.748,21.748,0,0,0-2731.945,1910.2Z" transform="translate(2828.233 3593.497) rotate(90)"/>
    <path id="패스_8-2" data-name="패스 8" class="cls-29" d="M-2730.445,1908.414h-299.64a21.748,21.748,0,0,0-21.748,21.748,21.748,21.748,0,0,0,21.748,21.748h299.64a21.748,21.748,0,0,0,21.749-21.749A21.748,21.748,0,0,0-2730.445,1908.414Z" transform="translate(2826.955 3592.423) rotate(90)"/>
    <path id="패스_9-2" data-name="패스 9" class="cls-29" d="M-2728.945,1906.629h-299.641a21.748,21.748,0,0,0-21.748,21.748,21.748,21.748,0,0,0,21.748,21.748h299.641a21.748,21.748,0,0,0,21.749-21.748A21.749,21.749,0,0,0-2728.945,1906.629Z" transform="translate(2825.676 3591.35) rotate(90)"/>
    <path id="패스_10-2" data-name="패스 10" class="cls-29" d="M-2727.445,1904.843h-299.641a21.748,21.748,0,0,0-21.748,21.748,21.748,21.748,0,0,0,21.748,21.748h299.641a21.748,21.748,0,0,0,21.749-21.748A21.748,21.748,0,0,0-2727.445,1904.843Z" transform="translate(2824.398 3590.276) rotate(90)"/>
    <path id="패스_11-2" data-name="패스 11" class="cls-29" d="M-2725.945,1903.058h-299.64a21.748,21.748,0,0,0-21.748,21.748,21.748,21.748,0,0,0,21.748,21.748h299.64a21.748,21.748,0,0,0,21.748-21.748A21.748,21.748,0,0,0-2725.945,1903.058Z" transform="translate(2823.121 3589.202) rotate(90)"/>
    <path id="패스_12-2" data-name="패스 12" class="cls-29" d="M-2724.445,1901.271h-299.641a21.748,21.748,0,0,0-21.748,21.749,21.748,21.748,0,0,0,21.748,21.748h299.641a21.748,21.748,0,0,0,21.748-21.748A21.748,21.748,0,0,0-2724.445,1901.271Z" transform="translate(2821.841 3588.128) rotate(90)"/>
    <path id="패스_13-2" data-name="패스 13" class="cls-29" d="M-2722.945,1899.486h-299.641a21.748,21.748,0,0,0-21.748,21.748,21.748,21.748,0,0,0,21.748,21.748h299.641a21.748,21.748,0,0,0,21.748-21.748A21.748,21.748,0,0,0-2722.945,1899.486Z" transform="translate(2820.563 3587.054) rotate(90)"/>
    <path id="패스_14-2" data-name="패스 14" class="cls-29" d="M-2721.445,1897.7h-299.641a21.748,21.748,0,0,0-21.748,21.748,21.748,21.748,0,0,0,21.748,21.748h299.641a21.748,21.748,0,0,0,21.748-21.748A21.748,21.748,0,0,0-2721.445,1897.7Z" transform="translate(2819.286 3585.98) rotate(90)"/>
    <path id="패스_15-2" data-name="패스 15" class="cls-29" d="M-2719.945,1895.915h-299.641a21.748,21.748,0,0,0-21.748,21.748,21.748,21.748,0,0,0,21.748,21.748h299.641a21.748,21.748,0,0,0,21.748-21.748A21.748,21.748,0,0,0-2719.945,1895.915Z" transform="translate(2818.007 3584.907) rotate(90)"/>
    <path id="패스_16-2" data-name="패스 16" class="cls-29" d="M-2718.445,1894.129h-299.641a21.748,21.748,0,0,0-21.748,21.748,21.748,21.748,0,0,0,21.748,21.748h299.641a21.748,21.748,0,0,0,21.748-21.748A21.748,21.748,0,0,0-2718.445,1894.129Z" transform="translate(2816.729 3583.833) rotate(90)"/>
    <path id="패스_17-2" data-name="패스 17" class="cls-29" d="M-2716.945,1892.344h-299.641a21.748,21.748,0,0,0-21.748,21.748,21.748,21.748,0,0,0,21.748,21.748h299.641a21.748,21.748,0,0,0,21.748-21.748A21.748,21.748,0,0,0-2716.945,1892.344Z" transform="translate(2815.451 3582.759) rotate(90)"/>
    <path id="패스_18-2" data-name="패스 18" class="cls-29" d="M-2715.446,1890.558h-299.641a21.748,21.748,0,0,0-21.748,21.748,21.748,21.748,0,0,0,21.748,21.748h299.641a21.748,21.748,0,0,0,21.748-21.748A21.748,21.748,0,0,0-2715.446,1890.558Z" transform="translate(2814.172 3581.687) rotate(90)"/>
    <path id="패스_19-2" data-name="패스 19" class="cls-29" d="M-2713.946,1888.773h-299.641a21.748,21.748,0,0,0-21.748,21.748,21.748,21.748,0,0,0,21.748,21.748h299.641a21.748,21.748,0,0,0,21.748-21.748A21.748,21.748,0,0,0-2713.946,1888.773Z" transform="translate(2812.895 3580.613) rotate(90)"/>
    <path id="패스_20-2" data-name="패스 20" class="cls-29" d="M-2712.446,1886.987h-299.641a21.748,21.748,0,0,0-21.748,21.748,21.748,21.748,0,0,0,21.748,21.748h299.641a21.748,21.748,0,0,0,21.748-21.748A21.748,21.748,0,0,0-2712.446,1886.987Z" transform="translate(2811.616 3579.539) rotate(90)"/>
    <path id="패스_21-2" data-name="패스 21" class="cls-29" d="M-2710.946,1885.2h-299.641a21.748,21.748,0,0,0-21.748,21.748,21.748,21.748,0,0,0,21.748,21.748h299.641a21.748,21.748,0,0,0,21.749-21.748A21.748,21.748,0,0,0-2710.946,1885.2Z" transform="translate(2810.338 3578.465) rotate(90)"/>
    <path id="패스_22-2" data-name="패스 22" class="cls-29" d="M-2709.446,1883.416h-299.64a21.748,21.748,0,0,0-21.748,21.748,21.748,21.748,0,0,0,21.748,21.748h299.64a21.748,21.748,0,0,0,21.748-21.748A21.748,21.748,0,0,0-2709.446,1883.416Z" transform="translate(2809.06 3577.392) rotate(90)"/>
    <path id="패스_23-2" data-name="패스 23" class="cls-29" d="M-2707.946,1881.63h-299.641a21.748,21.748,0,0,0-21.748,21.748,21.748,21.748,0,0,0,21.748,21.748h299.641a21.749,21.749,0,0,0,21.749-21.748A21.749,21.749,0,0,0-2707.946,1881.63Z" transform="translate(2807.781 3576.317) rotate(90)"/>
    <path id="패스_25-2" data-name="패스 25" class="cls-30" d="M-2762.391,2099.128h-299.641a21.748,21.748,0,0,0-21.749,21.748,21.748,21.748,0,0,0,21.749,21.748h299.641a21.748,21.748,0,0,0,21.748-21.748A21.748,21.748,0,0,0-2762.391,2099.128Z" transform="translate(3015.124 3622.28) rotate(90)"/>
    <text id="E_n_c_o_d_e_r-2" data-name="E
n
c
o
d
e
r" class="cls-31" transform="translate(887 661.428)"><tspan x="0" y="0">E</tspan><tspan x="0" y="24">n</tspan><tspan x="0" y="48">c</tspan><tspan x="0" y="72">o</tspan><tspan x="0" y="96">d</tspan><tspan x="0" y="120">e</tspan><tspan x="0" y="144">r</tspan></text>
    <text id="_2-4" data-name="2" class="cls-32" transform="translate(895 628)"><tspan x="-4.548" y="0">2</tspan></text>
    <text id="_2-5" data-name="2" class="cls-28" transform="translate(1125.593 573.774) rotate(90)"><tspan x="-4.726" y="0">2</tspan></text>
    <path id="패스_2-3" data-name="패스 2" class="cls-29" d="M-2739.444,1919.128h-299.641a21.748,21.748,0,0,0-21.748,21.748,21.748,21.748,0,0,0,21.748,21.748h299.641a21.748,21.748,0,0,0,21.748-21.748A21.748,21.748,0,0,0-2739.444,1919.128Z" transform="translate(3056.473 3596.865) rotate(90)"/>
    <path id="패스_3-3" data-name="패스 3" class="cls-29" d="M-2737.944,1917.342h-299.641a21.748,21.748,0,0,0-21.748,21.748,21.748,21.748,0,0,0,21.748,21.748h299.641a21.748,21.748,0,0,0,21.748-21.748A21.748,21.748,0,0,0-2737.944,1917.342Z" transform="translate(3055.194 3595.791) rotate(90)"/>
    <path id="패스_4-3" data-name="패스 4" class="cls-29" d="M-2736.445,1915.557h-299.641a21.748,21.748,0,0,0-21.748,21.748,21.748,21.748,0,0,0,21.748,21.748h299.641a21.748,21.748,0,0,0,21.748-21.748A21.748,21.748,0,0,0-2736.445,1915.557Z" transform="translate(3053.917 3594.718) rotate(90)"/>
    <path id="패스_5-3" data-name="패스 5" class="cls-29" d="M-2734.945,1913.771h-299.641a21.748,21.748,0,0,0-21.748,21.748,21.748,21.748,0,0,0,21.748,21.748h299.641a21.748,21.748,0,0,0,21.748-21.748A21.748,21.748,0,0,0-2734.945,1913.771Z" transform="translate(3052.638 3593.645) rotate(90)"/>
    <path id="패스_6-3" data-name="패스 6" class="cls-29" d="M-2733.445,1911.985h-299.641a21.748,21.748,0,0,0-21.748,21.748,21.748,21.748,0,0,0,21.748,21.748h299.641a21.748,21.748,0,0,0,21.749-21.748A21.748,21.748,0,0,0-2733.445,1911.985Z" transform="translate(3051.359 3592.571) rotate(90)"/>
    <path id="패스_7-3" data-name="패스 7" class="cls-29" d="M-2731.945,1910.2h-299.641a21.748,21.748,0,0,0-21.748,21.748,21.748,21.748,0,0,0,21.748,21.748h299.641a21.749,21.749,0,0,0,21.749-21.748A21.748,21.748,0,0,0-2731.945,1910.2Z" transform="translate(3050.082 3591.497) rotate(90)"/>
    <path id="패스_8-3" data-name="패스 8" class="cls-29" d="M-2730.445,1908.414h-299.64a21.748,21.748,0,0,0-21.748,21.748,21.748,21.748,0,0,0,21.748,21.748h299.64a21.748,21.748,0,0,0,21.749-21.749A21.748,21.748,0,0,0-2730.445,1908.414Z" transform="translate(3048.803 3590.423) rotate(90)"/>
    <path id="패스_9-3" data-name="패스 9" class="cls-29" d="M-2728.945,1906.629h-299.641a21.748,21.748,0,0,0-21.748,21.748,21.748,21.748,0,0,0,21.748,21.748h299.641a21.748,21.748,0,0,0,21.749-21.748A21.749,21.749,0,0,0-2728.945,1906.629Z" transform="translate(3047.525 3589.35) rotate(90)"/>
    <path id="패스_10-3" data-name="패스 10" class="cls-29" d="M-2727.445,1904.843h-299.641a21.748,21.748,0,0,0-21.748,21.748,21.748,21.748,0,0,0,21.748,21.748h299.641a21.748,21.748,0,0,0,21.749-21.748A21.748,21.748,0,0,0-2727.445,1904.843Z" transform="translate(3046.247 3588.276) rotate(90)"/>
    <path id="패스_11-3" data-name="패스 11" class="cls-29" d="M-2725.945,1903.058h-299.64a21.748,21.748,0,0,0-21.748,21.748,21.748,21.748,0,0,0,21.748,21.748h299.64a21.748,21.748,0,0,0,21.748-21.748A21.748,21.748,0,0,0-2725.945,1903.058Z" transform="translate(3044.969 3587.202) rotate(90)"/>
    <path id="패스_12-3" data-name="패스 12" class="cls-29" d="M-2724.445,1901.271h-299.641a21.748,21.748,0,0,0-21.748,21.749,21.748,21.748,0,0,0,21.748,21.748h299.641a21.748,21.748,0,0,0,21.748-21.748A21.748,21.748,0,0,0-2724.445,1901.271Z" transform="translate(3043.69 3586.128) rotate(90)"/>
    <path id="패스_13-3" data-name="패스 13" class="cls-29" d="M-2722.945,1899.486h-299.641a21.748,21.748,0,0,0-21.748,21.748,21.748,21.748,0,0,0,21.748,21.748h299.641a21.748,21.748,0,0,0,21.748-21.748A21.748,21.748,0,0,0-2722.945,1899.486Z" transform="translate(3042.412 3585.054) rotate(90)"/>
    <path id="패스_14-3" data-name="패스 14" class="cls-29" d="M-2721.445,1897.7h-299.641a21.748,21.748,0,0,0-21.748,21.748,21.748,21.748,0,0,0,21.748,21.748h299.641a21.748,21.748,0,0,0,21.748-21.748A21.748,21.748,0,0,0-2721.445,1897.7Z" transform="translate(3041.134 3583.98) rotate(90)"/>
    <path id="패스_15-3" data-name="패스 15" class="cls-29" d="M-2719.945,1895.915h-299.641a21.748,21.748,0,0,0-21.748,21.748,21.748,21.748,0,0,0,21.748,21.748h299.641a21.748,21.748,0,0,0,21.748-21.748A21.748,21.748,0,0,0-2719.945,1895.915Z" transform="translate(3039.856 3582.907) rotate(90)"/>
    <path id="패스_16-3" data-name="패스 16" class="cls-29" d="M-2718.445,1894.129h-299.641a21.748,21.748,0,0,0-21.748,21.748,21.748,21.748,0,0,0,21.748,21.748h299.641a21.748,21.748,0,0,0,21.748-21.748A21.748,21.748,0,0,0-2718.445,1894.129Z" transform="translate(3038.578 3581.833) rotate(90)"/>
    <path id="패스_17-3" data-name="패스 17" class="cls-29" d="M-2716.945,1892.344h-299.641a21.748,21.748,0,0,0-21.748,21.748,21.748,21.748,0,0,0,21.748,21.748h299.641a21.748,21.748,0,0,0,21.748-21.748A21.748,21.748,0,0,0-2716.945,1892.344Z" transform="translate(3037.299 3580.759) rotate(90)"/>
    <path id="패스_18-3" data-name="패스 18" class="cls-29" d="M-2715.446,1890.558h-299.641a21.748,21.748,0,0,0-21.748,21.748,21.748,21.748,0,0,0,21.748,21.748h299.641a21.748,21.748,0,0,0,21.748-21.748A21.748,21.748,0,0,0-2715.446,1890.558Z" transform="translate(3036.021 3579.687) rotate(90)"/>
    <path id="패스_19-3" data-name="패스 19" class="cls-29" d="M-2713.946,1888.773h-299.641a21.748,21.748,0,0,0-21.748,21.748,21.748,21.748,0,0,0,21.748,21.748h299.641a21.748,21.748,0,0,0,21.748-21.748A21.748,21.748,0,0,0-2713.946,1888.773Z" transform="translate(3034.744 3578.613) rotate(90)"/>
    <path id="패스_20-3" data-name="패스 20" class="cls-29" d="M-2712.446,1886.987h-299.641a21.748,21.748,0,0,0-21.748,21.748,21.748,21.748,0,0,0,21.748,21.748h299.641a21.748,21.748,0,0,0,21.748-21.748A21.748,21.748,0,0,0-2712.446,1886.987Z" transform="translate(3033.465 3577.539) rotate(90)"/>
    <path id="패스_21-3" data-name="패스 21" class="cls-29" d="M-2710.946,1885.2h-299.641a21.748,21.748,0,0,0-21.748,21.748,21.748,21.748,0,0,0,21.748,21.748h299.641a21.748,21.748,0,0,0,21.749-21.748A21.748,21.748,0,0,0-2710.946,1885.2Z" transform="translate(3032.187 3576.465) rotate(90)"/>
    <path id="패스_22-3" data-name="패스 22" class="cls-29" d="M-2709.446,1883.416h-299.64a21.748,21.748,0,0,0-21.748,21.748,21.748,21.748,0,0,0,21.748,21.748h299.64a21.748,21.748,0,0,0,21.748-21.748A21.748,21.748,0,0,0-2709.446,1883.416Z" transform="translate(3030.909 3575.392) rotate(90)"/>
    <path id="패스_23-3" data-name="패스 23" class="cls-29" d="M-2707.946,1881.63h-299.641a21.748,21.748,0,0,0-21.748,21.748,21.748,21.748,0,0,0,21.748,21.748h299.641a21.749,21.749,0,0,0,21.749-21.748A21.749,21.749,0,0,0-2707.946,1881.63Z" transform="translate(3029.63 3574.317) rotate(90)"/>
    <path id="패스_25-3" data-name="패스 25" class="cls-30" d="M-2762.391,2099.128h-299.641a21.748,21.748,0,0,0-21.749,21.748,21.748,21.748,0,0,0,21.749,21.748h299.641a21.748,21.748,0,0,0,21.748-21.748A21.748,21.748,0,0,0-2762.391,2099.128Z" transform="translate(3237.124 3620.28) rotate(90)"/>
    <text id="E_n_c_o_d_e_r-3" data-name="E
n
c
o
d
e
r" class="cls-31" transform="translate(1109 659.428)"><tspan x="0" y="0">E</tspan><tspan x="0" y="24">n</tspan><tspan x="0" y="48">c</tspan><tspan x="0" y="72">o</tspan><tspan x="0" y="96">d</tspan><tspan x="0" y="120">e</tspan><tspan x="0" y="144">r</tspan></text>
    <text id="_12" data-name="12" class="cls-32" transform="translate(1116 628)"><tspan x="-9.095" y="0">12</tspan></text>
    <rect id="사각형_91" data-name="사각형 91" class="cls-33" width="1221" height="543" transform="translate(350 2176)"/>
    <text id="욕설로_판단되는_글자를_마스킹해서_리턴" data-name="욕설로 판단되는 글자를 마스킹해서 리턴" class="cls-34" transform="translate(399 2280)"><tspan x="0" y="0">욕설로 판단되는 글자를 마스킹해서 리턴</tspan></text>
    <text id="_생긴거_진짜_개같네_" data-name="&quot;생긴거 진짜 개같네&quot;" class="cls-35" transform="translate(399 2431)"><tspan x="0" y="0">&quot;생긴거 진짜 </tspan><tspan class="cls-36" y="0">개같</tspan><tspan y="0">네&quot;</tspan></text>
    <text id="_생긴거_진짜_네_" data-name="&quot;생긴거 진짜      네&quot;" class="cls-37" transform="translate(1201 2431)"><tspan x="0" y="0" xml:space="preserve">&quot;생긴거 진짜      네&quot;</tspan></text>
    <text id="_" data-name="**" class="cls-37" transform="translate(1427 2437)"><tspan x="0" y="0">**</tspan></text>
    <line id="선_2" data-name="선 2" class="cls-38" x2="261.5" transform="translate(760 2418.5)"/>
    <g id="그룹_14" data-name="그룹 14" class="cls-39" transform="translate(-30 1886)">
      <text id="Masking_-_개발자의_편의를_위해_욕설로_판단된_문자를_특정_문자열로_치환_후_반환하는_기능_-_별도의_작업없이_Bit_Masking_API를_이용하는_것_만으로_기존의_서비스와_연동_가능" data-name="Masking
- 개발자의 편의를 위해 욕설로 판단된 문자를 특정 문자열로 치환 후 반환하는 기능
- 별도의 작업없이, Bit Masking API를 이용하는 것 만으로 기존의 서비스와 연동 가능" class="cls-40" transform="translate(429 667)"><tspan x="0" y="0">Masking</tspan><tspan x="0" y="54">- 개발자의 편의를 위해 욕설로 판단된 문자를 특정 문자열로 치환 후 반환하는 기능</tspan><tspan x="0" y="108">- 별도의 작업없이, Bit Masking API를 이용하는 것 만으로 기존의 서비스와 연동 가능</tspan></text>
    </g>
    <path id="합치기_1-2" data-name="합치기 1" class="cls-41" d="M20,134A20,20,0,0,1,0,114V45.617A19.941,19.941,0,0,1,6.243,31.1a20.1,20.1,0,0,1,1.816-1.968,20.135,20.135,0,0,1,1.819-1.971,20.133,20.133,0,0,1,1.82-1.972,20.113,20.113,0,0,1,1.817-1.969,20.125,20.125,0,0,1,1.819-1.971,20.132,20.132,0,0,1,1.819-1.971,20.122,20.122,0,0,1,1.82-1.972,20.117,20.117,0,0,1,1.816-1.967,20.123,20.123,0,0,1,1.824-1.976A20.119,20.119,0,0,1,24.423,11.4a20.129,20.129,0,0,1,1.825-1.978,20.115,20.115,0,0,1,1.816-1.967A19.963,19.963,0,0,1,43.642,0H112a20,20,0,0,1,20,20V88.382a19.943,19.943,0,0,1-6.239,14.513,20.12,20.12,0,0,1-1.822,1.974,20.1,20.1,0,0,1-1.816,1.968,20.128,20.128,0,0,1-1.819,1.971,20.109,20.109,0,0,1-1.821,1.973,20.133,20.133,0,0,1-1.815,1.967,20.116,20.116,0,0,1-1.822,1.974,20.123,20.123,0,0,1-1.817,1.969,20.123,20.123,0,0,1-1.82,1.972,20.117,20.117,0,0,1-1.816,1.967,20.1,20.1,0,0,1-1.822,1.975,20.124,20.124,0,0,1-1.819,1.97,20.11,20.11,0,0,1-1.815,1.967A19.962,19.962,0,0,1,88.358,134Z" transform="translate(905 2352)"/>
    <path id="패스_27-2" data-name="패스 27" class="cls-42" d="M3712,585.227,3733.914,559" transform="translate(-2701.533 1800.013)"/>
    <g id="그룹_83" data-name="그룹 83" transform="translate(0 -41)">
      <rect id="사각형_61-2" data-name="사각형 61" class="cls-43" width="109" height="109" rx="20" transform="translate(905.5 2418.5)"/>
      <text id="API" class="cls-44" transform="translate(960 2487)"><tspan x="-24.512" y="0">API</tspan></text>
    </g>
    <line id="선_5-5" data-name="선 5" class="cls-38" x2="152.5" transform="translate(1027 2418.5)"/>
    <g id="다각형_1-5" data-name="다각형 1" class="cls-45" transform="translate(1188 2410) rotate(90)">
      <path class="cls-55" d="M 16.11149024963379 13.5 L 0.8885089159011841 13.5 L 8.5 0.9634264707565308 L 16.11149024963379 13.5 Z"/>
      <path class="cls-58" d="M 8.5 1.92686939239502 L 1.77702808380127 13 L 15.22297191619873 13 L 8.5 1.92686939239502 M 8.5 0 L 17 14 L 0 14 L 8.5 0 Z"/>
    </g>
    <line id="선_8" data-name="선 8" class="cls-46" x2="431" transform="translate(399.5 2176.5)"/>
    <line id="선_9-2" data-name="선 9" class="cls-46" x2="431" transform="translate(1088.5 2176.5)"/>
    <text id="MASKING" class="cls-47" transform="translate(871 2193)"><tspan x="0" y="0">MASKING</tspan></text>
    <rect id="사각형_92" data-name="사각형 92" class="cls-33" width="1221" height="645" transform="translate(350 2848)"/>
    <text id="각_글자마다_욕설일_확률을_리턴" data-name="각 글자마다 욕설일 확률을 리턴" class="cls-34" transform="translate(399 2951)"><tspan x="0" y="0">각 글자마다 욕설일 확률을 리턴</tspan></text>
    <text id="_생긴거_진짜_개같네_2" data-name="&quot;생긴거 진짜 개같네&quot;" class="cls-35" transform="translate(399 3090)"><tspan x="0" y="0">&quot;생긴거 진짜 </tspan><tspan class="cls-36" y="0">개같</tspan><tspan y="0">네&quot;</tspan></text>
    <text id="_0.12_0.09_0.21_0.34_0.32_0.87_0.91_0.43" data-name="0.12, 0.09, 0.21
0.34, 0.32, 
0.87, 0.91, 0.43" class="cls-48" transform="translate(1272 3039)"><tspan x="0" y="0">0.12, 0.09, 0.21</tspan><tspan x="0" y="48">0.34, 0.32, </tspan><tspan class="cls-36"><tspan x="0" y="96">0.87</tspan><tspan class="cls-13" y="96">, </tspan><tspan y="96">0.91</tspan><tspan class="cls-13" y="96">, 0.43</tspan></tspan></text>
    <line id="선_6" data-name="선 6" class="cls-38" x2="261.5" transform="translate(760 3077.5)"/>
    <text id="Ratio_-_클라이언트의서비스에_맞는_욕설_처리를_위해_세분화_된_기능으로_특정_문자열이_욕_설일_확률을_반환하는_기능입니다._-_별도의_Threshold_값을_지정해_한번_더_필터링을_거쳐야_하지만_보다_세분화된_욕설_필터링이_가능합니다._" data-name="Ratio
- 클라이언트의서비스에 맞는 욕설 처리를 위해 세분화 된 기능으로, 특정 문자열이 욕
설일 확률을 반환하는 기능입니다.
- 별도의 Threshold 값을 지정해 한번 더 필터링을 거쳐야 하지만 보다 세분화된 욕설 
필터링이 가능합니다.
" class="cls-49" transform="translate(399 3212)"><tspan x="0" y="0">Ratio</tspan><tspan x="0" y="54">- 클라이언트의서비스에 맞는 욕설 처리를 위해 세분화 된 기능으로, 특정 문자열이 욕</tspan><tspan x="0" y="108">설일 확률을 반환하는 기능입니다.</tspan><tspan x="0" y="162">- 별도의 Threshold 값을 지정해 한번 더 필터링을 거쳐야 하지만 보다 세분화된 욕설 </tspan><tspan x="0" y="216">필터링이 가능합니다.</tspan><tspan x="0" y="270"></tspan></text>
    <path id="합치기_2" data-name="합치기 2" class="cls-41" d="M20,134A20,20,0,0,1,0,114V45.617A19.941,19.941,0,0,1,6.243,31.1a20.1,20.1,0,0,1,1.816-1.968,20.135,20.135,0,0,1,1.819-1.971,20.133,20.133,0,0,1,1.82-1.972,20.113,20.113,0,0,1,1.817-1.969,20.125,20.125,0,0,1,1.819-1.971,20.132,20.132,0,0,1,1.819-1.971,20.122,20.122,0,0,1,1.82-1.972,20.117,20.117,0,0,1,1.816-1.967,20.123,20.123,0,0,1,1.824-1.976A20.119,20.119,0,0,1,24.423,11.4a20.129,20.129,0,0,1,1.825-1.978,20.115,20.115,0,0,1,1.816-1.967A19.963,19.963,0,0,1,43.642,0H112a20,20,0,0,1,20,20V88.382a19.943,19.943,0,0,1-6.239,14.513,20.12,20.12,0,0,1-1.822,1.974,20.1,20.1,0,0,1-1.816,1.968,20.128,20.128,0,0,1-1.819,1.971,20.109,20.109,0,0,1-1.821,1.973,20.133,20.133,0,0,1-1.815,1.967,20.116,20.116,0,0,1-1.822,1.974,20.123,20.123,0,0,1-1.817,1.969,20.123,20.123,0,0,1-1.82,1.972,20.117,20.117,0,0,1-1.816,1.967,20.1,20.1,0,0,1-1.822,1.975,20.124,20.124,0,0,1-1.819,1.97,20.11,20.11,0,0,1-1.815,1.967A19.962,19.962,0,0,1,88.358,134Z" transform="translate(905 3011)"/>
    <rect id="사각형_90" data-name="사각형 90" class="cls-43" width="109" height="109" rx="20" transform="translate(905.5 3036.5)"/>
    <path id="패스_29" data-name="패스 29" class="cls-42" d="M3712,585.227,3733.914,559" transform="translate(-2701.533 2459.013)"/>
    <text id="API-2" data-name="API" class="cls-44" transform="translate(960 3105)"><tspan x="-24.512" y="0">API</tspan></text>
    <line id="선_7-2" data-name="선 7" class="cls-38" x2="152.5" transform="translate(1027 3077.5)"/>
    <g id="다각형_2-2" data-name="다각형 2" class="cls-45" transform="translate(1188 3069) rotate(90)">
      <path class="cls-55" d="M 16.11149024963379 13.5 L 0.8885089159011841 13.5 L 8.5 0.9634264707565308 L 16.11149024963379 13.5 Z"/>
      <path class="cls-58" d="M 8.5 1.92686939239502 L 1.77702808380127 13 L 15.22297191619873 13 L 8.5 1.92686939239502 M 8.5 0 L 17 14 L 0 14 L 8.5 0 Z"/>
    </g>
    <line id="선_8-2" data-name="선 8" class="cls-46" x2="431" transform="translate(399.5 2848.5)"/>
    <line id="선_9-3" data-name="선 9" class="cls-46" x2="431" transform="translate(1088.5 2848.5)"/>
    <text id="RATIO" class="cls-47" transform="translate(903 2865)"><tspan x="0" y="0">RATIO</tspan></text>
    <text id="생긴거" class="cls-50" transform="translate(1204 3035)"><tspan x="0" y="0">생긴거</tspan></text>
    <text id="진짜" class="cls-50" transform="translate(1204 3083)"><tspan x="0" y="0">진짜</tspan></text>
    <text id="개같네" class="cls-51" transform="translate(1204 3131)"><tspan x="0" y="0">개같</tspan><tspan class="cls-13" y="0">네</tspan></text>
    <g id="그룹_94" data-name="그룹 94">
      <rect id="사각형_123" data-name="사각형 123" class="cls-52" width="1920" height="288" transform="translate(0 3593)"/>
      <text id="BWAI는_SWMestro에서_진행된_프로젝트입니다._copyright_2020_All_rights_reserved_by_BWAI" data-name="BWAI는 SWMestro에서 진행된 프로젝트입니다.
copyright 2020 All rights reserved by BWAI" class="cls-53" transform="translate(960 3739)"><tspan x="-248.544" y="0">BWAI는 SWMESTRO에서 진행된 프로젝트입니다.</tspan><tspan x="-273.828" y="36">COPYRIGHT 2020 ALL RIGHTS RESERVED BY BWAI</tspan></text>
      <g id="그룹_93" data-name="그룹 93" transform="translate(0 2415)">
        <text id="LABELLING" class="cls-54" transform="translate(1267 1248)"><tspan x="-54.59" y="0">LABELLING</tspan></text>
        <text id="DEMO" class="cls-54" transform="translate(1122 1248)"><tspan x="-29.53" y="0">DEMO</tspan></text>
        <text id="PRICE" class="cls-54" transform="translate(1002 1248)"><tspan x="-29.51" y="0">PRICE</tspan></text>
        <text id="SERVICE" class="cls-54" transform="translate(872 1248)"><tspan x="-41.32" y="0">SERVICE</tspan></text>
        <text id="TEAM" class="cls-54" transform="translate(744 1248)"><tspan x="-27.35" y="0">TEAM</tspan></text>
        <text id="HOME" class="cls-54" transform="translate(627 1248)"><tspan x="-29.96" y="0">HOME</tspan></text>
      </g>
    </g>
  </g>
</svg>
