<svg id="그룹_21" data-name="그룹 21" xmlns="http://www.w3.org/2000/svg" width="1920" height="1474" viewBox="0 0 1920 1474">
  <defs>
    <style>
      .cls-1 {
        fill: #f4f4f8;
      }

      .cls-11, .cls-2 {
        fill: #502eff;
      }

      .cls-2 {
        font-size: 48px;
      }

      .cls-13, .cls-2, .cls-4, .cls-5 {
        font-family: Helvetica;
      }

      .cls-3 {
        font-family: AppleSDGothicNeo-Regular, Apple SD Gothic Neo;
      }

      .cls-11, .cls-5, .cls-6, .cls-9 {
        font-size: 40px;
      }

      .cls-11, .cls-6, .cls-9 {
        font-family: Helvetica-Bold, Helvetica;
        font-weight: 700;
      }

      .cls-7, .cls-8 {
        font-family: AppleSDGothicNeo-Bold, Apple SD Gothic Neo;
      }

      .cls-8 {
        fill: red;
      }

      .cls-9 {
        stroke: rgba(0,0,0,0);
      }

      .cls-10 {
        fill: #fff;
        stroke: #502eff;
        stroke-width: 5px;
      }

      .cls-12, .cls-15 {
        fill: none;
      }

      .cls-12 {
        stroke: #000;
        stroke-linecap: round;
        stroke-width: 2px;
      }

      .cls-13 {
        font-size: 32px;
      }

      .cls-14 {
        stroke: none;
      }
    </style>
  </defs>
  <rect id="사각형_36" data-name="사각형 36" class="cls-1" width="1920" height="280" transform="translate(0 158)"/>
  <rect id="사각형_34" data-name="사각형 34" width="1920" height="158"/>
  <text id="BWAI의_AI_Detect_API는_접근성과_운영서비스의_범용성을_위해_두가지의_모드로_분할되어_있습니다." data-name="BWAI의 AI Detect API는 접근성과 운영서비스의 
범용성을 위해 두가지의 모드로 분할되어 있습니다." class="cls-2" transform="translate(960 277)"><tspan x="-477.682" y="0">BWAI</tspan><tspan class="cls-3" y="0">의</tspan><tspan y="0" xml:space="preserve"> AI Detect API</tspan><tspan class="cls-3" y="0">는</tspan><tspan y="0"> </tspan><tspan class="cls-3" y="0">접근성과</tspan><tspan y="0"> </tspan><tspan class="cls-3" y="0">운영서비스의</tspan><tspan y="0"> </tspan><tspan class="cls-3"><tspan x="-475.968" y="72">범용성을</tspan><tspan class="cls-4" y="72"> </tspan><tspan y="72">위해</tspan><tspan class="cls-4" y="72"> </tspan><tspan y="72">두가지의</tspan><tspan class="cls-4" y="72"> </tspan><tspan y="72">모드로</tspan><tspan class="cls-4" y="72"> </tspan><tspan y="72">분할되어</tspan><tspan class="cls-4" y="72"> </tspan><tspan y="72">있습니다</tspan><tspan class="cls-4" y="72">.</tspan></tspan></text>
  <text id="_1._욕설로_판단되는_글자를_마스킹해서_리턴" data-name="1. 욕설로 판단되는 글자를 마스킹해서 리턴" class="cls-5" transform="translate(399 572)"><tspan x="0" y="0">1. </tspan><tspan class="cls-3" y="0">욕설로</tspan><tspan y="0"> </tspan><tspan class="cls-3" y="0">판단되는</tspan><tspan y="0"> </tspan><tspan class="cls-3" y="0">글자를</tspan><tspan y="0"> </tspan><tspan class="cls-3" y="0">마스킹해서</tspan><tspan y="0"> </tspan><tspan class="cls-3" y="0">리턴</tspan></text>
  <text id="_1._욕설로_판단되는_글자를_마스킹해서_리턴-2" data-name="1. 욕설로 판단되는 글자를 마스킹해서 리턴" class="cls-5" transform="translate(399 1089)"><tspan x="0" y="0">1. </tspan><tspan class="cls-3" y="0">욕설로</tspan><tspan y="0"> </tspan><tspan class="cls-3" y="0">판단되는</tspan><tspan y="0"> </tspan><tspan class="cls-3" y="0">글자를</tspan><tspan y="0"> </tspan><tspan class="cls-3" y="0">마스킹해서</tspan><tspan y="0"> </tspan><tspan class="cls-3" y="0">리턴</tspan></text>
  <g id="그룹_11" data-name="그룹 11" transform="translate(-30 50)">
    <text id="_생긴거_진짜_개같네_" data-name="&quot;생긴거 진짜 개같네&quot;" class="cls-6" transform="translate(429 633)"><tspan x="0" y="36">&quot;</tspan><tspan class="cls-7" y="36">생긴거</tspan><tspan y="36"> </tspan><tspan class="cls-7" y="36">진짜</tspan><tspan y="36"> </tspan><tspan class="cls-8" y="36">개같</tspan><tspan class="cls-7" y="36">네</tspan><tspan y="36">&quot;</tspan></text>
  </g>
  <g id="그룹_20" data-name="그룹 20" transform="translate(-30 567)">
    <text id="_생긴거_진짜_개같네_2" data-name="&quot;생긴거 진짜 개같네&quot;" class="cls-6" transform="translate(429 633)"><tspan x="0" y="36">&quot;</tspan><tspan class="cls-7" y="36">생긴거</tspan><tspan y="36"> </tspan><tspan class="cls-7" y="36">진짜</tspan><tspan y="36"> </tspan><tspan class="cls-8" y="36">개같</tspan><tspan class="cls-7" y="36">네</tspan><tspan y="36">&quot;</tspan></text>
  </g>
  <text id="_생긴거_진짜_네_" data-name="&quot;생긴거 진짜      네&quot;" class="cls-9" transform="translate(1201 717)"><tspan x="0" y="0">&quot;</tspan><tspan class="cls-7" y="0">생긴거</tspan><tspan y="0"> </tspan><tspan class="cls-7" y="0">진짜</tspan><tspan y="0" xml:space="preserve">      </tspan><tspan class="cls-7" y="0">네</tspan><tspan y="0">&quot;</tspan></text>
  <text id="_" data-name="**" class="cls-9" transform="translate(1427 723)"><tspan x="0" y="0">**</tspan></text>
  <g id="그룹_18" data-name="그룹 18" transform="translate(184 534)">
    <text id="_생긴거_진짜_네_2" data-name="&quot;생긴거 진짜      네&quot;" class="cls-9" transform="translate(1017 700)"><tspan x="0" y="0">&quot;</tspan><tspan class="cls-7" y="0">생긴거</tspan><tspan y="0"> </tspan><tspan class="cls-7" y="0">진짜</tspan><tspan y="0" xml:space="preserve">      </tspan><tspan class="cls-7" y="0">네</tspan><tspan y="0">&quot;</tspan></text>
    <text id="_2" data-name="**" class="cls-9" transform="translate(1243 706)"><tspan x="0" y="0">**</tspan></text>
  </g>
  <g id="그룹_16" data-name="그룹 16">
    <g id="사각형_38" data-name="사각형 38" class="cls-10" transform="translate(907 632)">
      <rect class="cls-14" width="130" height="130" rx="25"/>
      <rect class="cls-15" x="2.5" y="2.5" width="125" height="125" rx="22.5"/>
    </g>
    <g id="그룹_12" data-name="그룹 12" transform="translate(941.34 676.151)">
      <text id="API" class="cls-11" transform="translate(-0.34 32.849)"><tspan x="0" y="0">API</tspan></text>
    </g>
  </g>
  <g id="그룹_19" data-name="그룹 19" transform="translate(0 517)">
    <g id="사각형_38-2" data-name="사각형 38" class="cls-10" transform="translate(907 632)">
      <rect class="cls-14" width="130" height="130" rx="25"/>
      <rect class="cls-15" x="2.5" y="2.5" width="125" height="125" rx="22.5"/>
    </g>
    <g id="그룹_12-2" data-name="그룹 12" transform="translate(941.34 676.151)">
      <text id="API-2" data-name="API" class="cls-11" transform="translate(-0.34 32.849)"><tspan x="0" y="0">API</tspan></text>
    </g>
  </g>
  <line id="선_1" data-name="선 1" class="cls-12" x2="106" transform="translate(760 704.5)"/>
  <line id="선_3" data-name="선 3" class="cls-12" x2="106" transform="translate(760 1221.5)"/>
  <line id="선_2" data-name="선 2" class="cls-12" x2="106" transform="translate(1073 704.5)"/>
  <line id="선_4" data-name="선 4" class="cls-12" x2="106" transform="translate(1073 1221.5)"/>
  <g id="그룹_14" data-name="그룹 14" transform="translate(-30 172)">
    <text id="Masking_-_개발자의_편의를_위해_욕설로_판단된_문자를_특정_문자열로_치환_후_반환하는_기능_-_별도의_작업없이_Bit_Masking_API를_이용하는_것_만으로_기존의_서비스와_연동_가능" data-name="Masking
- 개발자의 편의를 위해 욕설로 판단된 문자를 특정 문자열로 치환 후 반환하는 기능
- 별도의 작업없이, Bit Masking API를 이용하는 것 만으로 기존의 서비스와 연동 가능" class="cls-13" transform="translate(429 667)"><tspan x="0" y="0">Masking</tspan><tspan x="0" y="54">- </tspan><tspan class="cls-3" y="54">개발자의</tspan><tspan y="54"> </tspan><tspan class="cls-3" y="54">편의를</tspan><tspan y="54"> </tspan><tspan class="cls-3" y="54">위해</tspan><tspan y="54"> </tspan><tspan class="cls-3" y="54">욕설로</tspan><tspan y="54"> </tspan><tspan class="cls-3" y="54">판단된</tspan><tspan y="54"> </tspan><tspan class="cls-3" y="54">문자를</tspan><tspan y="54"> </tspan><tspan class="cls-3" y="54">특정</tspan><tspan y="54"> </tspan><tspan class="cls-3" y="54">문자열로</tspan><tspan y="54"> </tspan><tspan class="cls-3" y="54">치환</tspan><tspan y="54"> </tspan><tspan class="cls-3" y="54">후</tspan><tspan y="54"> </tspan><tspan class="cls-3" y="54">반환하는</tspan><tspan y="54"> </tspan><tspan class="cls-3" y="54">기능</tspan><tspan y="54"></tspan><tspan x="0" y="108">- </tspan><tspan class="cls-3" y="108">별도의</tspan><tspan y="108"> </tspan><tspan class="cls-3" y="108">작업없이</tspan><tspan y="108">, Bit Masking API</tspan><tspan class="cls-3" y="108">를</tspan><tspan y="108"> </tspan><tspan class="cls-3" y="108">이용하는</tspan><tspan y="108"> </tspan><tspan class="cls-3" y="108">것</tspan><tspan y="108"> </tspan><tspan class="cls-3" y="108">만으로</tspan><tspan y="108"> </tspan><tspan class="cls-3" y="108">기존의</tspan><tspan y="108"> </tspan><tspan class="cls-3" y="108">서비스와</tspan><tspan y="108"> </tspan><tspan class="cls-3" y="108">연동</tspan><tspan y="108"> </tspan><tspan class="cls-3" y="108">가능</tspan></text>
  </g>
  <g id="그룹_17" data-name="그룹 17" transform="translate(-30 689)">
    <text id="Masking_-_개발자의_편의를_위해_욕설로_판단된_문자를_특정_문자열로_치환_후_반환하는_기능_-_별도의_작업없이_Bit_Masking_API를_이용하는_것_만으로_기존의_서비스와_연동_가능-2" data-name="Masking
- 개발자의 편의를 위해 욕설로 판단된 문자를 특정 문자열로 치환 후 반환하는 기능
- 별도의 작업없이, Bit Masking API를 이용하는 것 만으로 기존의 서비스와 연동 가능" class="cls-13" transform="translate(429 667)"><tspan x="0" y="0">Masking</tspan><tspan x="0" y="54">- </tspan><tspan class="cls-3" y="54">개발자의</tspan><tspan y="54"> </tspan><tspan class="cls-3" y="54">편의를</tspan><tspan y="54"> </tspan><tspan class="cls-3" y="54">위해</tspan><tspan y="54"> </tspan><tspan class="cls-3" y="54">욕설로</tspan><tspan y="54"> </tspan><tspan class="cls-3" y="54">판단된</tspan><tspan y="54"> </tspan><tspan class="cls-3" y="54">문자를</tspan><tspan y="54"> </tspan><tspan class="cls-3" y="54">특정</tspan><tspan y="54"> </tspan><tspan class="cls-3" y="54">문자열로</tspan><tspan y="54"> </tspan><tspan class="cls-3" y="54">치환</tspan><tspan y="54"> </tspan><tspan class="cls-3" y="54">후</tspan><tspan y="54"> </tspan><tspan class="cls-3" y="54">반환하는</tspan><tspan y="54"> </tspan><tspan class="cls-3" y="54">기능</tspan><tspan y="54"></tspan><tspan x="0" y="108">- </tspan><tspan class="cls-3" y="108">별도의</tspan><tspan y="108"> </tspan><tspan class="cls-3" y="108">작업없이</tspan><tspan y="108">, Bit Masking API</tspan><tspan class="cls-3" y="108">를</tspan><tspan y="108"> </tspan><tspan class="cls-3" y="108">이용하는</tspan><tspan y="108"> </tspan><tspan class="cls-3" y="108">것</tspan><tspan y="108"> </tspan><tspan class="cls-3" y="108">만으로</tspan><tspan y="108"> </tspan><tspan class="cls-3" y="108">기존의</tspan><tspan y="108"> </tspan><tspan class="cls-3" y="108">서비스와</tspan><tspan y="108"> </tspan><tspan class="cls-3" y="108">연동</tspan><tspan y="108"> </tspan><tspan class="cls-3" y="108">가능</tspan></text>
  </g>
</svg>
