<svg id="Group_80" data-name="Group 80" xmlns="http://www.w3.org/2000/svg" xmlns:xlink="http://www.w3.org/1999/xlink" width="1920" height="3885" viewBox="0 0 1920 3885">
  <defs>
    <linearGradient id="linear-gradient" x1="0.5" x2="0.5" y2="1" gradientUnits="objectBoundingBox">
      <stop offset="0" stop-color="#cfc3fc"/>
      <stop offset="1" stop-color="#fff"/>
    </linearGradient>
    <linearGradient id="linear-gradient-2" x1="0.5" x2="0.5" y2="1" gradientUnits="objectBoundingBox">
      <stop offset="0" stop-color="#afc4fc"/>
      <stop offset="1" stop-color="#d4c3fc"/>
    </linearGradient>
  </defs>
  <path id="Polygon_13" data-name="Polygon 13" d="M847,0l847,1103H0Z" transform="translate(1807 2018) rotate(180)" fill="url(#linear-gradient)"/>
  <line id="Line_9" data-name="Line 9" y2="221" transform="translate(1421 933)" fill="none" stroke="#7763d3" stroke-linecap="round" stroke-width="2"/>
  <g id="Rectangle_57" data-name="Rectangle 57" transform="translate(1178 589) rotate(90)" fill="#eff5fe" stroke="#acf" stroke-width="5">
    <rect width="391" height="436" rx="27" stroke="none"/>
    <rect x="2.5" y="2.5" width="386" height="431" rx="24.5" fill="none"/>
  </g>
  <g id="Group_65" data-name="Group 65" transform="translate(896.432 538)">
    <g id="Group_61" data-name="Group 61">
      <rect id="Rectangle_58" data-name="Rectangle 58" width="128" height="54" transform="translate(-0.432)" fill="#acf"/>
      <text id="KcBERT" transform="translate(60.568 36)" fill="#38268c" font-size="32" font-family="Bahnschrift" font-weight="600"><tspan x="-56.102" y="0">KcBERT</tspan></text>
    </g>
  </g>
  <rect id="Rectangle_36" data-name="Rectangle 36" width="1920" height="280" transform="translate(0 158)" fill="#f4f4f8"/>
  <rect id="Rectangle_34" data-name="Rectangle 34" width="1920" height="158"/>
  <text id="BWAI의_AI_Detect_API는_접근성과_운영서비스의_범용성을_위해_두가지의_모드로_분할되어_있습니다." data-name="BWAI의 AI Detect API는 접근성과 운영서비스의 
범용성을 위해 두가지의 모드로 분할되어 있습니다." transform="translate(960 277)" font-size="48" font-family="NanumSquareOTFR, NanumSquareOTF"><tspan x="-485.784" y="0">BWAI의 AI Detect API는 접근성과 운영서비스의 </tspan><tspan x="-494.52" y="72">범용성을 위해 두가지의 모드로 분할되어 있습니다.</tspan></text>
  <g id="Rectangle_78" data-name="Rectangle 78" transform="translate(721 1727)" fill="#c3f8fc" stroke="#565bd1" stroke-width="4">
    <rect width="478" height="67" rx="10" stroke="none"/>
    <rect x="2" y="2" width="474" height="63" rx="8" fill="none"/>
  </g>
  <g id="Rectangle_55" data-name="Rectangle 55" transform="translate(720 1844)" fill="#cfc3fc" stroke="#502eff" stroke-width="5">
    <rect width="478" height="67" rx="10" stroke="none"/>
    <rect x="2.5" y="2.5" width="473" height="62" rx="7.5" fill="none"/>
  </g>
  <text id="Pooler" transform="translate(959 1887)" fill="#fff" font-size="32" font-family="Bahnschrift"><tspan x="-46.734" y="0">Pooler</tspan></text>
  <text id="Bad_Word_or_Not" data-name="Bad Word or Not" transform="translate(960 2059)" fill="#ff2e2e" font-size="52" font-family="Bahnschrift" font-weight="700"><tspan x="-191.598" y="0">Bad Word</tspan><tspan y="0" fill="#502eff"> </tspan><tspan y="0" fill="#000">or Not</tspan></text>
  <text id="Classifier" transform="translate(960 1770)" fill="#2d2c33" font-size="32" font-family="Bahnschrift"><tspan x="-68.305" y="0">Classifier</tspan></text>
  <path id="Union_4" data-name="Union 4" d="M20,301A20,20,0,0,1,0,281V77.544A19.94,19.94,0,0,1,6.147,63.119a20.089,20.089,0,0,1,3.472-4.427,20.08,20.08,0,0,1,3.471-4.426,20.074,20.074,0,0,1,3.473-4.428,20.088,20.088,0,0,1,3.47-4.424,20.087,20.087,0,0,1,3.473-4.428,20.079,20.079,0,0,1,3.473-4.427,20.091,20.091,0,0,1,3.47-4.424,20.074,20.074,0,0,1,3.471-4.426,20.082,20.082,0,0,1,3.474-4.429,20.079,20.079,0,0,1,3.472-4.426,20.077,20.077,0,0,1,3.472-4.427A20.078,20.078,0,0,1,47.808,10,19.992,19.992,0,0,1,65.134,0H232a20,20,0,0,1,20,20V223.456a19.941,19.941,0,0,1-6.147,14.425,20.074,20.074,0,0,1-3.473,4.428,20.091,20.091,0,0,1-3.47,4.424,20.076,20.076,0,0,1-3.472,4.427,20.074,20.074,0,0,1-3.473,4.428,20.092,20.092,0,0,1-3.47,4.424,20.071,20.071,0,0,1-3.473,4.428,20.083,20.083,0,0,1-3.47,4.425,20.081,20.081,0,0,1-3.473,4.428,20.076,20.076,0,0,1-3.472,4.427,20.078,20.078,0,0,1-3.47,4.424,20.081,20.081,0,0,1-3.474,4.429A20.082,20.082,0,0,1,204.189,291a19.991,19.991,0,0,1-17.324,10Z" transform="translate(1318 632)" fill="none" stroke="#6c54ce" stroke-width="5"/>
  <path id="Path_32" data-name="Path 32" d="M3712,614.365,3757.89,559" transform="matrix(0.996, -0.087, 0.087, 0.996, -2229.187, 408.522)" fill="#6c54ce" stroke="#6c54ce" stroke-linecap="round" stroke-width="5"/>
  <rect id="Rectangle_122" data-name="Rectangle 122" width="206" height="244" rx="20" transform="translate(1318.5 689.5)" fill="none" stroke="#6c54ce" stroke-width="5"/>
  <text id="Sequence_output" data-name="Sequence
output" transform="translate(1422 799)" fill="#565bd1" font-size="32" font-family="Bahnschrift" font-weight="300"><tspan x="-70.016" y="0">Sequence</tspan><tspan x="-45.266" y="44">output</tspan></text>
  <g id="Group_76" data-name="Group 76" transform="translate(0 -77)">
    <path id="Union_1" data-name="Union 1" d="M20,359A20,20,0,0,1,0,339V88.632A19.97,19.97,0,0,1,7.983,72.644a20.1,20.1,0,0,1,4.878-5.28,20.117,20.117,0,0,1,4.876-5.278A20.112,20.112,0,0,1,22.616,56.8a20.109,20.109,0,0,1,4.875-5.277,20.115,20.115,0,0,1,4.877-5.28,20.112,20.112,0,0,1,4.879-5.282,20.109,20.109,0,0,1,4.875-5.277A20.115,20.115,0,0,1,47,30.409a20.112,20.112,0,0,1,4.879-5.282,20.109,20.109,0,0,1,4.875-5.277,20.106,20.106,0,0,1,4.879-5.281,20.112,20.112,0,0,1,4.877-5.279A19.983,19.983,0,0,1,83.4,0H334a20,20,0,0,1,20,20V270.367a19.97,19.97,0,0,1-7.983,15.988,20.1,20.1,0,0,1-4.878,5.28,20.116,20.116,0,0,1-4.876,5.278,20.112,20.112,0,0,1-4.879,5.282,20.109,20.109,0,0,1-4.875,5.277,20.115,20.115,0,0,1-4.877,5.279,20.112,20.112,0,0,1-4.879,5.282,20.109,20.109,0,0,1-4.875,5.277A20.115,20.115,0,0,1,307,328.59a20.112,20.112,0,0,1-4.879,5.282,20.109,20.109,0,0,1-4.875,5.277,20.106,20.106,0,0,1-4.879,5.281,20.112,20.112,0,0,1-4.877,5.279A19.983,19.983,0,0,1,270.6,359Z" transform="translate(783 1248)" stroke="#6c54ce" stroke-width="5" fill="url(#linear-gradient-2)"/>
    <path id="Path_27" data-name="Path 27" d="M3712,629.23,3770.679,559" transform="translate(-2641.224 697.068)" fill="#6c54ce" stroke="#6c54ce" stroke-linecap="round" stroke-width="5"/>
    <rect id="Rectangle_61" data-name="Rectangle 61" width="291" height="291" rx="20" transform="translate(783 1316)" fill="none" stroke="#6c54ce" stroke-width="5"/>
    <text id="Attention_Module" data-name="Attention
Module" transform="translate(928 1456)" fill="#fff" font-size="32" font-family="Bahnschrift"><tspan x="-65.203" y="0">Attention</tspan><tspan x="-51.922" y="44">Module</tspan></text>
  </g>
  <text id="K" transform="translate(950.191 1163)" fill="#6c54ce" font-size="32" font-family="Bahnschrift"><tspan x="-10.266" y="0">K</tspan></text>
  <text id="Q" transform="translate(897.191 1163)" fill="#6c54ce" font-size="32" font-family="Bahnschrift"><tspan x="-10.516" y="0">Q</tspan></text>
  <text id="V" transform="translate(1091.191 1163)" fill="#6c54ce" font-size="32" font-family="Bahnschrift"><tspan x="-9.391" y="0">V</tspan></text>
  <path id="Polygon_2" data-name="Polygon 2" d="M7.5,0,15,11H0Z" transform="matrix(-0.899, 0.438, -0.438, -0.899, 894.818, 1130.509)" fill="#7763d3"/>
  <path id="Polygon_9" data-name="Polygon 9" d="M7.5,0,15,11H0Z" transform="translate(958.592 1129.485) rotate(166)" fill="#7763d3"/>
  <path id="Polygon_11" data-name="Polygon 11" d="M7.5,0,15,11H0Z" transform="matrix(-0.829, 0.559, -0.559, -0.829, 942.877, 1128.512)" fill="#7763d3"/>
  <line id="Line_7" data-name="Line 7" x2="193.059" transform="matrix(0.438, 0.899, -0.899, 0.438, 801.013, 957.57)" fill="none" stroke="#7763d3" stroke-linecap="round" stroke-width="2"/>
  <line id="Line_12" data-name="Line 12" x2="193.059" transform="translate(902.792 940.822) rotate(76)" fill="none" stroke="#7763d3" stroke-linecap="round" stroke-width="2"/>
  <line id="Line_14" data-name="Line 14" y1="12.683" x2="215.448" transform="matrix(0.559, 0.829, -0.829, 0.559, 813.396, 951.749)" fill="none" stroke="#7763d3" stroke-linecap="round" stroke-width="2"/>
  <g id="Group_77" data-name="Group 77" transform="translate(55.199 -185.087) rotate(3)">
    <path id="Polygon_10" data-name="Polygon 10" d="M7.5,0,15,11H0Z" transform="translate(922.17 1272.322) rotate(-180)" fill="#7763d3"/>
    <line id="Line_13" data-name="Line 13" x2="125.783" y2="170.657" transform="matrix(0.819, 0.574, -0.574, 0.819, 908.519, 1056.882)" fill="none" stroke="#7763d3" stroke-linecap="round" stroke-width="2"/>
  </g>
  <path id="Polygon_3" data-name="Polygon 3" d="M7.5,0,15,11H0Z" transform="translate(1104.567 1162) rotate(-90)" fill="#7763d3"/>
  <path id="Path_1" data-name="Path 1" d="M2940.2,586.4" transform="translate(1541 -1920) rotate(90)" fill="none" stroke="#707070" stroke-width="1"/>
  <g id="Group_75" data-name="Group 75" transform="translate(24.5 -12)">
    <g id="Group_56" data-name="Group 56" transform="translate(460.5 1549.5) rotate(-90)">
      <circle id="Ellipse_1" data-name="Ellipse 1" cx="3.5" cy="3.5" r="3.5" transform="translate(722 483)" fill="#7763d3"/>
      <circle id="Ellipse_2" data-name="Ellipse 2" cx="3.5" cy="3.5" r="3.5" transform="translate(722 493)" fill="#7763d3"/>
      <circle id="Ellipse_3" data-name="Ellipse 3" cx="3.5" cy="3.5" r="3.5" transform="translate(722 503)" fill="#7763d3"/>
    </g>
    <g id="Group_58" data-name="Group 58" transform="translate(517.5 1549.5) rotate(-90)">
      <circle id="Ellipse_1-2" data-name="Ellipse 1" cx="3.5" cy="3.5" r="3.5" transform="translate(722 483)" fill="#7763d3"/>
      <circle id="Ellipse_2-2" data-name="Ellipse 2" cx="3.5" cy="3.5" r="3.5" transform="translate(722 493)" fill="#7763d3"/>
      <circle id="Ellipse_3-2" data-name="Ellipse 3" cx="3.5" cy="3.5" r="3.5" transform="translate(722 503)" fill="#7763d3"/>
    </g>
  </g>
  <g id="Group_57" data-name="Group 57" transform="translate(-53 315)">
    <circle id="Ellipse_1-3" data-name="Ellipse 1" cx="3.5" cy="3.5" r="3.5" transform="translate(722 483)" fill="#7763d3"/>
    <circle id="Ellipse_2-3" data-name="Ellipse 2" cx="3.5" cy="3.5" r="3.5" transform="translate(722 493)" fill="#7763d3"/>
    <circle id="Ellipse_3-3" data-name="Ellipse 3" cx="3.5" cy="3.5" r="3.5" transform="translate(722 503)" fill="#7763d3"/>
  </g>
  <text id="_1" data-name="1" transform="translate(672 703)" font-size="24" font-family="Bahnschrift" font-weight="300"><tspan x="-3.99" y="0">1</tspan></text>
  <text id="_2" data-name="2" transform="translate(672 742)" font-size="24" font-family="Bahnschrift" font-weight="300"><tspan x="-6.199" y="0">2</tspan></text>
  <text id="_3" data-name="3" transform="translate(672 780)" font-size="24" font-family="Bahnschrift" font-weight="300"><tspan x="-6.346" y="0">3</tspan></text>
  <text id="_512" data-name="512" transform="translate(672 857)" font-size="24" font-family="Bahnschrift" font-weight="300"><tspan x="-16.723" y="0">512</tspan></text>
  <path id="Union_3" data-name="Union 3" d="M20,301A20,20,0,0,1,0,281V77.544A19.94,19.94,0,0,1,6.147,63.119a20.089,20.089,0,0,1,3.472-4.427,20.08,20.08,0,0,1,3.471-4.426,20.074,20.074,0,0,1,3.473-4.428,20.088,20.088,0,0,1,3.47-4.424,20.087,20.087,0,0,1,3.473-4.428,20.079,20.079,0,0,1,3.473-4.427,20.091,20.091,0,0,1,3.47-4.424,20.074,20.074,0,0,1,3.471-4.426,20.082,20.082,0,0,1,3.474-4.429,20.079,20.079,0,0,1,3.472-4.426,20.077,20.077,0,0,1,3.472-4.427A20.078,20.078,0,0,1,47.808,10,19.992,19.992,0,0,1,65.134,0H232a20,20,0,0,1,20,20V223.456a19.941,19.941,0,0,1-6.147,14.425,20.074,20.074,0,0,1-3.473,4.428,20.091,20.091,0,0,1-3.47,4.424,20.076,20.076,0,0,1-3.472,4.427,20.074,20.074,0,0,1-3.473,4.428,20.092,20.092,0,0,1-3.47,4.424,20.071,20.071,0,0,1-3.473,4.428,20.083,20.083,0,0,1-3.47,4.425,20.081,20.081,0,0,1-3.473,4.428,20.076,20.076,0,0,1-3.472,4.427,20.078,20.078,0,0,1-3.47,4.424,20.081,20.081,0,0,1-3.474,4.429A20.082,20.082,0,0,1,204.189,291a19.991,19.991,0,0,1-17.324,10Z" transform="translate(350 632)" fill="none" stroke="#6c54ce" stroke-width="5"/>
  <path id="Path_31" data-name="Path 31" d="M3712,614.365,3757.89,559" transform="matrix(0.996, -0.087, 0.087, 0.996, -3197.187, 408.522)" fill="#6c54ce" stroke="#6c54ce" stroke-linecap="round" stroke-width="5"/>
  <rect id="Rectangle_107" data-name="Rectangle 107" width="206" height="244" rx="20" transform="translate(350.5 689.5)" fill="none" stroke="#6c54ce" stroke-width="5"/>
  <text id="Embedding_output" data-name="Embedding 
output" transform="translate(454 799)" fill="#565bd1" font-size="32" font-family="Bahnschrift" font-weight="300"><tspan x="-83.672" y="0">Embedding </tspan><tspan x="-45.266" y="44">output</tspan></text>
  <line id="Line_10" data-name="Line 10" x1="306" transform="translate(1115 1154.5)" fill="none" stroke="#7763d3" stroke-linecap="round" stroke-width="2"/>
  <g id="Polygon_5" data-name="Polygon 5" transform="translate(987 1694) rotate(180)" fill="#7763d3">
    <path d="M 52.68490600585938 23.5 L 1.315092444419861 23.5 L 27 0.6689711213111877 L 52.68490600585938 23.5 Z" stroke="none"/>
    <path d="M 27 1.33795166015625 L 2.630195617675781 23 L 51.36980438232422 23 L 27 1.33795166015625 M 27 0 L 54 24 L 0 24 L 27 0 Z" stroke="none" fill="#7763d3"/>
  </g>
  <g id="Polygon_16" data-name="Polygon 16" transform="translate(987 1831) rotate(180)" fill="#7763d3">
    <path d="M 52.68490600585938 23.5 L 1.315092444419861 23.5 L 27 0.6689711213111877 L 52.68490600585938 23.5 Z" stroke="none"/>
    <path d="M 27 1.33795166015625 L 2.630195617675781 23 L 51.36980438232422 23 L 27 1.33795166015625 M 27 0 L 54 24 L 0 24 L 27 0 Z" stroke="none" fill="#7763d3"/>
  </g>
  <g id="Polygon_14" data-name="Polygon 14" transform="translate(987 1654) rotate(180)" fill="#7763d3">
    <path d="M 52.68490600585938 23.5 L 1.315092444419861 23.5 L 27 0.6689711213111877 L 52.68490600585938 23.5 Z" stroke="none"/>
    <path d="M 27 1.33795166015625 L 2.630195617675781 23 L 51.36980438232422 23 L 27 1.33795166015625 M 27 0 L 54 24 L 0 24 L 27 0 Z" stroke="none" fill="#7763d3"/>
  </g>
  <g id="Polygon_15" data-name="Polygon 15" transform="translate(987 1614) rotate(180)" fill="#7763d3">
    <path d="M 52.68490600585938 23.5 L 1.315092444419861 23.5 L 27 0.6689711213111877 L 52.68490600585938 23.5 Z" stroke="none"/>
    <path d="M 27 1.33795166015625 L 2.630195617675781 23 L 51.36980438232422 23 L 27 1.33795166015625 M 27 0 L 54 24 L 0 24 L 27 0 Z" stroke="none" fill="#7763d3"/>
  </g>
  <path id="Polygon_6" data-name="Polygon 6" d="M32.5,0,65,29H0Z" transform="translate(993 1985) rotate(180)" fill="#7763d3" opacity="0.79"/>
  <path id="Polygon_7" data-name="Polygon 7" d="M32.5,0,65,29H0Z" transform="translate(993 1970) rotate(180)" fill="#7763d3" opacity="0.5"/>
  <path id="Polygon_8" data-name="Polygon 8" d="M32.5,0,65,29H0Z" transform="translate(993 1956) rotate(180)" fill="#7763d3" opacity="0.3"/>
  <g id="Group_44" data-name="Group 44" transform="translate(1662.333 212) rotate(90)">
    <line id="Line_5" data-name="Line 5" y1="731.608" transform="translate(534.5 354.725)" fill="none" stroke="#000" stroke-linecap="round" stroke-width="2"/>
    <path id="Polygon_1" data-name="Polygon 1" d="M7.5,0,15,11H0Z" transform="translate(527 352.333)"/>
  </g>
  <g id="Group_70" data-name="Group 70" transform="translate(1662.333 173) rotate(90)">
    <line id="Line_5-2" data-name="Line 5" y1="731.608" transform="translate(534.5 354.725)" fill="none" stroke="#000" stroke-linecap="round" stroke-width="2"/>
    <path id="Polygon_1-2" data-name="Polygon 1" d="M7.5,0,15,11H0Z" transform="translate(527 352.333)"/>
  </g>
  <g id="Group_43" data-name="Group 43" transform="translate(1662 212) rotate(90)">
    <line id="Line_5-3" data-name="Line 5" y1="731.275" transform="translate(572.5 354.725)" fill="none" stroke="#000" stroke-linecap="round" stroke-width="2"/>
    <path id="Polygon_1-3" data-name="Polygon 1" d="M7.5,0,15,11H0Z" transform="translate(565 352)"/>
  </g>
  <g id="Group_41" data-name="Group 41" transform="translate(1662 211) rotate(90)">
    <line id="Line_5-4" data-name="Line 5" y1="731.275" transform="translate(650.5 354.725)" fill="none" stroke="#000" stroke-linecap="round" stroke-width="2"/>
    <path id="Polygon_1-4" data-name="Polygon 1" d="M7.5,0,15,11H0Z" transform="translate(643 352)"/>
  </g>
  <text id="_2-2" data-name="2" transform="translate(803.745 645.774) rotate(90)" fill="#fff" font-size="17" font-family="Bahnschrift" font-weight="300"><tspan x="-4.391" y="0">2</tspan></text>
  <path id="Path_2" data-name="Path 2" d="M-2739.444,1919.128h-299.641a21.748,21.748,0,0,0-21.748,21.748,21.748,21.748,0,0,0,21.748,21.748h299.641a21.748,21.748,0,0,0,21.748-21.748A21.748,21.748,0,0,0-2739.444,1919.128Z" transform="translate(2734.625 3668.865) rotate(90)" fill="#7763d3" stroke="#7763d3" stroke-width="2"/>
  <path id="Path_3" data-name="Path 3" d="M-2737.944,1917.342h-299.641a21.748,21.748,0,0,0-21.748,21.748,21.748,21.748,0,0,0,21.748,21.748h299.641a21.748,21.748,0,0,0,21.748-21.748A21.748,21.748,0,0,0-2737.944,1917.342Z" transform="translate(2733.345 3667.791) rotate(90)" fill="#7763d3" stroke="#7763d3" stroke-width="2"/>
  <path id="Path_4" data-name="Path 4" d="M-2736.445,1915.557h-299.641a21.748,21.748,0,0,0-21.748,21.748,21.748,21.748,0,0,0,21.748,21.748h299.641a21.748,21.748,0,0,0,21.748-21.748A21.748,21.748,0,0,0-2736.445,1915.557Z" transform="translate(2732.068 3666.718) rotate(90)" fill="#7763d3" stroke="#7763d3" stroke-width="2"/>
  <path id="Path_5" data-name="Path 5" d="M-2734.945,1913.771h-299.641a21.748,21.748,0,0,0-21.748,21.748,21.748,21.748,0,0,0,21.748,21.748h299.641a21.748,21.748,0,0,0,21.748-21.748A21.748,21.748,0,0,0-2734.945,1913.771Z" transform="translate(2730.79 3665.645) rotate(90)" fill="#7763d3" stroke="#7763d3" stroke-width="2"/>
  <path id="Path_6" data-name="Path 6" d="M-2733.445,1911.985h-299.641a21.748,21.748,0,0,0-21.748,21.748,21.748,21.748,0,0,0,21.748,21.748h299.641a21.748,21.748,0,0,0,21.749-21.748A21.748,21.748,0,0,0-2733.445,1911.985Z" transform="translate(2729.511 3664.571) rotate(90)" fill="#7763d3" stroke="#7763d3" stroke-width="2"/>
  <path id="Path_7" data-name="Path 7" d="M-2731.945,1910.2h-299.641a21.748,21.748,0,0,0-21.748,21.748,21.748,21.748,0,0,0,21.748,21.748h299.641a21.749,21.749,0,0,0,21.749-21.748A21.748,21.748,0,0,0-2731.945,1910.2Z" transform="translate(2728.233 3663.497) rotate(90)" fill="#7763d3" stroke="#7763d3" stroke-width="2"/>
  <path id="Path_8" data-name="Path 8" d="M-2730.445,1908.414h-299.64a21.748,21.748,0,0,0-21.748,21.748,21.748,21.748,0,0,0,21.748,21.748h299.64a21.748,21.748,0,0,0,21.749-21.749A21.748,21.748,0,0,0-2730.445,1908.414Z" transform="translate(2726.955 3662.423) rotate(90)" fill="#7763d3" stroke="#7763d3" stroke-width="2"/>
  <path id="Path_9" data-name="Path 9" d="M-2728.945,1906.629h-299.641a21.748,21.748,0,0,0-21.748,21.748,21.748,21.748,0,0,0,21.748,21.748h299.641a21.748,21.748,0,0,0,21.749-21.748A21.749,21.749,0,0,0-2728.945,1906.629Z" transform="translate(2725.676 3661.35) rotate(90)" fill="#7763d3" stroke="#7763d3" stroke-width="2"/>
  <path id="Path_10" data-name="Path 10" d="M-2727.445,1904.843h-299.641a21.748,21.748,0,0,0-21.748,21.748,21.748,21.748,0,0,0,21.748,21.748h299.641a21.748,21.748,0,0,0,21.749-21.748A21.748,21.748,0,0,0-2727.445,1904.843Z" transform="translate(2724.398 3660.276) rotate(90)" fill="#7763d3" stroke="#7763d3" stroke-width="2"/>
  <path id="Path_11" data-name="Path 11" d="M-2725.945,1903.058h-299.64a21.748,21.748,0,0,0-21.748,21.748,21.748,21.748,0,0,0,21.748,21.748h299.64a21.748,21.748,0,0,0,21.748-21.748A21.748,21.748,0,0,0-2725.945,1903.058Z" transform="translate(2723.121 3659.202) rotate(90)" fill="#7763d3" stroke="#7763d3" stroke-width="2"/>
  <path id="Path_12" data-name="Path 12" d="M-2724.445,1901.271h-299.641a21.748,21.748,0,0,0-21.748,21.749,21.748,21.748,0,0,0,21.748,21.748h299.641a21.748,21.748,0,0,0,21.748-21.748A21.748,21.748,0,0,0-2724.445,1901.271Z" transform="translate(2721.841 3658.128) rotate(90)" fill="#7763d3" stroke="#7763d3" stroke-width="2"/>
  <path id="Path_13" data-name="Path 13" d="M-2722.945,1899.486h-299.641a21.748,21.748,0,0,0-21.748,21.748,21.748,21.748,0,0,0,21.748,21.748h299.641a21.748,21.748,0,0,0,21.748-21.748A21.748,21.748,0,0,0-2722.945,1899.486Z" transform="translate(2720.563 3657.054) rotate(90)" fill="#7763d3" stroke="#7763d3" stroke-width="2"/>
  <path id="Path_14" data-name="Path 14" d="M-2721.445,1897.7h-299.641a21.748,21.748,0,0,0-21.748,21.748,21.748,21.748,0,0,0,21.748,21.748h299.641a21.748,21.748,0,0,0,21.748-21.748A21.748,21.748,0,0,0-2721.445,1897.7Z" transform="translate(2719.286 3655.98) rotate(90)" fill="#7763d3" stroke="#7763d3" stroke-width="2"/>
  <path id="Path_15" data-name="Path 15" d="M-2719.945,1895.915h-299.641a21.748,21.748,0,0,0-21.748,21.748,21.748,21.748,0,0,0,21.748,21.748h299.641a21.748,21.748,0,0,0,21.748-21.748A21.748,21.748,0,0,0-2719.945,1895.915Z" transform="translate(2718.007 3654.907) rotate(90)" fill="#7763d3" stroke="#7763d3" stroke-width="2"/>
  <path id="Path_16" data-name="Path 16" d="M-2718.445,1894.129h-299.641a21.748,21.748,0,0,0-21.748,21.748,21.748,21.748,0,0,0,21.748,21.748h299.641a21.748,21.748,0,0,0,21.748-21.748A21.748,21.748,0,0,0-2718.445,1894.129Z" transform="translate(2716.729 3653.833) rotate(90)" fill="#7763d3" stroke="#7763d3" stroke-width="2"/>
  <path id="Path_17" data-name="Path 17" d="M-2716.945,1892.344h-299.641a21.748,21.748,0,0,0-21.748,21.748,21.748,21.748,0,0,0,21.748,21.748h299.641a21.748,21.748,0,0,0,21.748-21.748A21.748,21.748,0,0,0-2716.945,1892.344Z" transform="translate(2715.451 3652.759) rotate(90)" fill="#7763d3" stroke="#7763d3" stroke-width="2"/>
  <path id="Path_18" data-name="Path 18" d="M-2715.446,1890.558h-299.641a21.748,21.748,0,0,0-21.748,21.748,21.748,21.748,0,0,0,21.748,21.748h299.641a21.748,21.748,0,0,0,21.748-21.748A21.748,21.748,0,0,0-2715.446,1890.558Z" transform="translate(2714.172 3651.687) rotate(90)" fill="#7763d3" stroke="#7763d3" stroke-width="2"/>
  <path id="Path_19" data-name="Path 19" d="M-2713.946,1888.773h-299.641a21.748,21.748,0,0,0-21.748,21.748,21.748,21.748,0,0,0,21.748,21.748h299.641a21.748,21.748,0,0,0,21.748-21.748A21.748,21.748,0,0,0-2713.946,1888.773Z" transform="translate(2712.895 3650.613) rotate(90)" fill="#7763d3" stroke="#7763d3" stroke-width="2"/>
  <path id="Path_20" data-name="Path 20" d="M-2712.446,1886.987h-299.641a21.748,21.748,0,0,0-21.748,21.748,21.748,21.748,0,0,0,21.748,21.748h299.641a21.748,21.748,0,0,0,21.748-21.748A21.748,21.748,0,0,0-2712.446,1886.987Z" transform="translate(2711.616 3649.539) rotate(90)" fill="#7763d3" stroke="#7763d3" stroke-width="2"/>
  <path id="Path_21" data-name="Path 21" d="M-2710.946,1885.2h-299.641a21.748,21.748,0,0,0-21.748,21.748,21.748,21.748,0,0,0,21.748,21.748h299.641a21.748,21.748,0,0,0,21.749-21.748A21.748,21.748,0,0,0-2710.946,1885.2Z" transform="translate(2710.338 3648.465) rotate(90)" fill="#7763d3" stroke="#7763d3" stroke-width="2"/>
  <path id="Path_22" data-name="Path 22" d="M-2709.446,1883.416h-299.64a21.748,21.748,0,0,0-21.748,21.748,21.748,21.748,0,0,0,21.748,21.748h299.64a21.748,21.748,0,0,0,21.748-21.748A21.748,21.748,0,0,0-2709.446,1883.416Z" transform="translate(2709.06 3647.392) rotate(90)" fill="#7763d3" stroke="#7763d3" stroke-width="2"/>
  <path id="Path_23" data-name="Path 23" d="M-2707.946,1881.63h-299.641a21.748,21.748,0,0,0-21.748,21.748,21.748,21.748,0,0,0,21.748,21.748h299.641a21.749,21.749,0,0,0,21.749-21.748A21.749,21.749,0,0,0-2707.946,1881.63Z" transform="translate(2707.781 3646.317) rotate(90)" fill="#7763d3" stroke="#7763d3" stroke-width="2"/>
  <path id="Path_25" data-name="Path 25" d="M-2762.391,2099.128h-299.641a21.748,21.748,0,0,0-21.749,21.748,21.748,21.748,0,0,0,21.749,21.748h299.641a21.748,21.748,0,0,0,21.748-21.748A21.748,21.748,0,0,0-2762.391,2099.128Z" transform="translate(2915.244 3692.28) rotate(90)" fill="#c3f8fc" stroke="#7763d3" stroke-width="2"/>
  <g id="Group_73" data-name="Group 73" transform="translate(53.12 -111.804)">
    <text id="E_n_c_o_d_e_r" data-name="E
n
c
o
d
e
r" transform="translate(734 843.232)" fill="#565bd1" font-size="24" font-family="Bahnschrift" font-weight="300"><tspan x="0" y="0">E</tspan><tspan x="0" y="24">n</tspan><tspan x="0" y="48">c</tspan><tspan x="0" y="72">o</tspan><tspan x="0" y="96">d</tspan><tspan x="0" y="120">e</tspan><tspan x="0" y="144">r</tspan></text>
    <text id="_1-2" data-name="1" transform="translate(736 790.804)" fill="#565bd1" font-size="17" font-family="Bahnschrift" font-weight="300"><tspan x="2.174" y="13">1</tspan></text>
  </g>
  <g id="Group_74" data-name="Group 74" transform="translate(153.12 -148)">
    <text id="_2-3" data-name="2" transform="translate(750.625 795.774) rotate(90)" fill="#fff" font-size="17" font-family="Bahnschrift" font-weight="300"><tspan x="-4.391" y="0">2</tspan></text>
    <path id="Path_2-2" data-name="Path 2" d="M-2739.444,1919.128h-299.641a21.748,21.748,0,0,0-21.748,21.748,21.748,21.748,0,0,0,21.748,21.748h299.641a21.748,21.748,0,0,0,21.748-21.748A21.748,21.748,0,0,0-2739.444,1919.128Z" transform="translate(2681.505 3818.865) rotate(90)" fill="#7763d3" stroke="#7763d3" stroke-width="2"/>
    <path id="Path_3-2" data-name="Path 3" d="M-2737.944,1917.342h-299.641a21.748,21.748,0,0,0-21.748,21.748,21.748,21.748,0,0,0,21.748,21.748h299.641a21.748,21.748,0,0,0,21.748-21.748A21.748,21.748,0,0,0-2737.944,1917.342Z" transform="translate(2680.226 3817.791) rotate(90)" fill="#7763d3" stroke="#7763d3" stroke-width="2"/>
    <path id="Path_4-2" data-name="Path 4" d="M-2736.445,1915.557h-299.641a21.748,21.748,0,0,0-21.748,21.748,21.748,21.748,0,0,0,21.748,21.748h299.641a21.748,21.748,0,0,0,21.748-21.748A21.748,21.748,0,0,0-2736.445,1915.557Z" transform="translate(2678.948 3816.718) rotate(90)" fill="#7763d3" stroke="#7763d3" stroke-width="2"/>
    <path id="Path_5-2" data-name="Path 5" d="M-2734.945,1913.771h-299.641a21.748,21.748,0,0,0-21.748,21.748,21.748,21.748,0,0,0,21.748,21.748h299.641a21.748,21.748,0,0,0,21.748-21.748A21.748,21.748,0,0,0-2734.945,1913.771Z" transform="translate(2677.67 3815.645) rotate(90)" fill="#7763d3" stroke="#7763d3" stroke-width="2"/>
    <path id="Path_6-2" data-name="Path 6" d="M-2733.445,1911.985h-299.641a21.748,21.748,0,0,0-21.748,21.748,21.748,21.748,0,0,0,21.748,21.748h299.641a21.748,21.748,0,0,0,21.749-21.748A21.748,21.748,0,0,0-2733.445,1911.985Z" transform="translate(2676.391 3814.571) rotate(90)" fill="#7763d3" stroke="#7763d3" stroke-width="2"/>
    <path id="Path_7-2" data-name="Path 7" d="M-2731.945,1910.2h-299.641a21.748,21.748,0,0,0-21.748,21.748,21.748,21.748,0,0,0,21.748,21.748h299.641a21.749,21.749,0,0,0,21.749-21.748A21.748,21.748,0,0,0-2731.945,1910.2Z" transform="translate(2675.113 3813.497) rotate(90)" fill="#7763d3" stroke="#7763d3" stroke-width="2"/>
    <path id="Path_8-2" data-name="Path 8" d="M-2730.445,1908.414h-299.64a21.748,21.748,0,0,0-21.748,21.748,21.748,21.748,0,0,0,21.748,21.748h299.64a21.748,21.748,0,0,0,21.749-21.749A21.748,21.748,0,0,0-2730.445,1908.414Z" transform="translate(2673.835 3812.423) rotate(90)" fill="#7763d3" stroke="#7763d3" stroke-width="2"/>
    <path id="Path_9-2" data-name="Path 9" d="M-2728.945,1906.629h-299.641a21.748,21.748,0,0,0-21.748,21.748,21.748,21.748,0,0,0,21.748,21.748h299.641a21.748,21.748,0,0,0,21.749-21.748A21.749,21.749,0,0,0-2728.945,1906.629Z" transform="translate(2672.557 3811.35) rotate(90)" fill="#7763d3" stroke="#7763d3" stroke-width="2"/>
    <path id="Path_10-2" data-name="Path 10" d="M-2727.445,1904.843h-299.641a21.748,21.748,0,0,0-21.748,21.748,21.748,21.748,0,0,0,21.748,21.748h299.641a21.748,21.748,0,0,0,21.749-21.748A21.748,21.748,0,0,0-2727.445,1904.843Z" transform="translate(2671.279 3810.276) rotate(90)" fill="#7763d3" stroke="#7763d3" stroke-width="2"/>
    <path id="Path_11-2" data-name="Path 11" d="M-2725.945,1903.058h-299.64a21.748,21.748,0,0,0-21.748,21.748,21.748,21.748,0,0,0,21.748,21.748h299.64a21.748,21.748,0,0,0,21.748-21.748A21.748,21.748,0,0,0-2725.945,1903.058Z" transform="translate(2670.001 3809.202) rotate(90)" fill="#7763d3" stroke="#7763d3" stroke-width="2"/>
    <path id="Path_12-2" data-name="Path 12" d="M-2724.445,1901.271h-299.641a21.748,21.748,0,0,0-21.748,21.749,21.748,21.748,0,0,0,21.748,21.748h299.641a21.748,21.748,0,0,0,21.748-21.748A21.748,21.748,0,0,0-2724.445,1901.271Z" transform="translate(2668.722 3808.128) rotate(90)" fill="#7763d3" stroke="#7763d3" stroke-width="2"/>
    <path id="Path_13-2" data-name="Path 13" d="M-2722.945,1899.486h-299.641a21.748,21.748,0,0,0-21.748,21.748,21.748,21.748,0,0,0,21.748,21.748h299.641a21.748,21.748,0,0,0,21.748-21.748A21.748,21.748,0,0,0-2722.945,1899.486Z" transform="translate(2667.444 3807.054) rotate(90)" fill="#7763d3" stroke="#7763d3" stroke-width="2"/>
    <path id="Path_14-2" data-name="Path 14" d="M-2721.445,1897.7h-299.641a21.748,21.748,0,0,0-21.748,21.748,21.748,21.748,0,0,0,21.748,21.748h299.641a21.748,21.748,0,0,0,21.748-21.748A21.748,21.748,0,0,0-2721.445,1897.7Z" transform="translate(2666.166 3805.98) rotate(90)" fill="#7763d3" stroke="#7763d3" stroke-width="2"/>
    <path id="Path_15-2" data-name="Path 15" d="M-2719.945,1895.915h-299.641a21.748,21.748,0,0,0-21.748,21.748,21.748,21.748,0,0,0,21.748,21.748h299.641a21.748,21.748,0,0,0,21.748-21.748A21.748,21.748,0,0,0-2719.945,1895.915Z" transform="translate(2664.888 3804.907) rotate(90)" fill="#7763d3" stroke="#7763d3" stroke-width="2"/>
    <path id="Path_16-2" data-name="Path 16" d="M-2718.445,1894.129h-299.641a21.748,21.748,0,0,0-21.748,21.748,21.748,21.748,0,0,0,21.748,21.748h299.641a21.748,21.748,0,0,0,21.748-21.748A21.748,21.748,0,0,0-2718.445,1894.129Z" transform="translate(2663.609 3803.833) rotate(90)" fill="#7763d3" stroke="#7763d3" stroke-width="2"/>
    <path id="Path_17-2" data-name="Path 17" d="M-2716.945,1892.344h-299.641a21.748,21.748,0,0,0-21.748,21.748,21.748,21.748,0,0,0,21.748,21.748h299.641a21.748,21.748,0,0,0,21.748-21.748A21.748,21.748,0,0,0-2716.945,1892.344Z" transform="translate(2662.331 3802.759) rotate(90)" fill="#7763d3" stroke="#7763d3" stroke-width="2"/>
    <path id="Path_18-2" data-name="Path 18" d="M-2715.446,1890.558h-299.641a21.748,21.748,0,0,0-21.748,21.748,21.748,21.748,0,0,0,21.748,21.748h299.641a21.748,21.748,0,0,0,21.748-21.748A21.748,21.748,0,0,0-2715.446,1890.558Z" transform="translate(2661.053 3801.687) rotate(90)" fill="#7763d3" stroke="#7763d3" stroke-width="2"/>
    <path id="Path_19-2" data-name="Path 19" d="M-2713.946,1888.773h-299.641a21.748,21.748,0,0,0-21.748,21.748,21.748,21.748,0,0,0,21.748,21.748h299.641a21.748,21.748,0,0,0,21.748-21.748A21.748,21.748,0,0,0-2713.946,1888.773Z" transform="translate(2659.775 3800.613) rotate(90)" fill="#7763d3" stroke="#7763d3" stroke-width="2"/>
    <path id="Path_20-2" data-name="Path 20" d="M-2712.446,1886.987h-299.641a21.748,21.748,0,0,0-21.748,21.748,21.748,21.748,0,0,0,21.748,21.748h299.641a21.748,21.748,0,0,0,21.748-21.748A21.748,21.748,0,0,0-2712.446,1886.987Z" transform="translate(2658.497 3799.539) rotate(90)" fill="#7763d3" stroke="#7763d3" stroke-width="2"/>
    <path id="Path_21-2" data-name="Path 21" d="M-2710.946,1885.2h-299.641a21.748,21.748,0,0,0-21.748,21.748,21.748,21.748,0,0,0,21.748,21.748h299.641a21.748,21.748,0,0,0,21.749-21.748A21.748,21.748,0,0,0-2710.946,1885.2Z" transform="translate(2657.218 3798.465) rotate(90)" fill="#7763d3" stroke="#7763d3" stroke-width="2"/>
    <path id="Path_22-2" data-name="Path 22" d="M-2709.446,1883.416h-299.64a21.748,21.748,0,0,0-21.748,21.748,21.748,21.748,0,0,0,21.748,21.748h299.64a21.748,21.748,0,0,0,21.748-21.748A21.748,21.748,0,0,0-2709.446,1883.416Z" transform="translate(2655.94 3797.392) rotate(90)" fill="#7763d3" stroke="#7763d3" stroke-width="2"/>
    <path id="Path_23-2" data-name="Path 23" d="M-2707.946,1881.63h-299.641a21.748,21.748,0,0,0-21.748,21.748,21.748,21.748,0,0,0,21.748,21.748h299.641a21.749,21.749,0,0,0,21.749-21.748A21.749,21.749,0,0,0-2707.946,1881.63Z" transform="translate(2654.662 3796.317) rotate(90)" fill="#7763d3" stroke="#7763d3" stroke-width="2"/>
    <path id="Path_25-2" data-name="Path 25" d="M-2762.391,2099.128h-299.641a21.748,21.748,0,0,0-21.749,21.748,21.748,21.748,0,0,0,21.749,21.748h299.641a21.748,21.748,0,0,0,21.748-21.748A21.748,21.748,0,0,0-2762.391,2099.128Z" transform="translate(2862.124 3842.28) rotate(90)" fill="#c3f8fc" stroke="#7763d3" stroke-width="2"/>
    <g id="Group_73-2" data-name="Group 73" transform="translate(0 38.196)">
      <text id="E_n_c_o_d_e_r-2" data-name="E
n
c
o
d
e
r" transform="translate(734 843.232)" fill="#565bd1" font-size="24" font-family="Bahnschrift" font-weight="300"><tspan x="0" y="0">E</tspan><tspan x="0" y="24">n</tspan><tspan x="0" y="48">c</tspan><tspan x="0" y="72">o</tspan><tspan x="0" y="96">d</tspan><tspan x="0" y="120">e</tspan><tspan x="0" y="144">r</tspan></text>
      <text id="_2-4" data-name="2" transform="translate(736 790.804)" fill="#565bd1" font-size="17" font-family="Bahnschrift" font-weight="300"><tspan x="0.609" y="13">2</tspan></text>
    </g>
  </g>
  <text id="_2-5" data-name="2" transform="translate(1125.593 645.774) rotate(90)" fill="#fff" font-size="17" font-family="Bahnschrift" font-weight="300"><tspan x="-4.391" y="0">2</tspan></text>
  <path id="Path_2-3" data-name="Path 2" d="M-2739.444,1919.128h-299.641a21.748,21.748,0,0,0-21.748,21.748,21.748,21.748,0,0,0,21.748,21.748h299.641a21.748,21.748,0,0,0,21.748-21.748A21.748,21.748,0,0,0-2739.444,1919.128Z" transform="translate(3056.473 3668.865) rotate(90)" fill="#7763d3" stroke="#7763d3" stroke-width="2"/>
  <path id="Path_3-3" data-name="Path 3" d="M-2737.944,1917.342h-299.641a21.748,21.748,0,0,0-21.748,21.748,21.748,21.748,0,0,0,21.748,21.748h299.641a21.748,21.748,0,0,0,21.748-21.748A21.748,21.748,0,0,0-2737.944,1917.342Z" transform="translate(3055.194 3667.791) rotate(90)" fill="#7763d3" stroke="#7763d3" stroke-width="2"/>
  <path id="Path_4-3" data-name="Path 4" d="M-2736.445,1915.557h-299.641a21.748,21.748,0,0,0-21.748,21.748,21.748,21.748,0,0,0,21.748,21.748h299.641a21.748,21.748,0,0,0,21.748-21.748A21.748,21.748,0,0,0-2736.445,1915.557Z" transform="translate(3053.917 3666.718) rotate(90)" fill="#7763d3" stroke="#7763d3" stroke-width="2"/>
  <path id="Path_5-3" data-name="Path 5" d="M-2734.945,1913.771h-299.641a21.748,21.748,0,0,0-21.748,21.748,21.748,21.748,0,0,0,21.748,21.748h299.641a21.748,21.748,0,0,0,21.748-21.748A21.748,21.748,0,0,0-2734.945,1913.771Z" transform="translate(3052.638 3665.645) rotate(90)" fill="#7763d3" stroke="#7763d3" stroke-width="2"/>
  <path id="Path_6-3" data-name="Path 6" d="M-2733.445,1911.985h-299.641a21.748,21.748,0,0,0-21.748,21.748,21.748,21.748,0,0,0,21.748,21.748h299.641a21.748,21.748,0,0,0,21.749-21.748A21.748,21.748,0,0,0-2733.445,1911.985Z" transform="translate(3051.359 3664.571) rotate(90)" fill="#7763d3" stroke="#7763d3" stroke-width="2"/>
  <path id="Path_7-3" data-name="Path 7" d="M-2731.945,1910.2h-299.641a21.748,21.748,0,0,0-21.748,21.748,21.748,21.748,0,0,0,21.748,21.748h299.641a21.749,21.749,0,0,0,21.749-21.748A21.748,21.748,0,0,0-2731.945,1910.2Z" transform="translate(3050.082 3663.497) rotate(90)" fill="#7763d3" stroke="#7763d3" stroke-width="2"/>
  <path id="Path_8-3" data-name="Path 8" d="M-2730.445,1908.414h-299.64a21.748,21.748,0,0,0-21.748,21.748,21.748,21.748,0,0,0,21.748,21.748h299.64a21.748,21.748,0,0,0,21.749-21.749A21.748,21.748,0,0,0-2730.445,1908.414Z" transform="translate(3048.803 3662.423) rotate(90)" fill="#7763d3" stroke="#7763d3" stroke-width="2"/>
  <path id="Path_9-3" data-name="Path 9" d="M-2728.945,1906.629h-299.641a21.748,21.748,0,0,0-21.748,21.748,21.748,21.748,0,0,0,21.748,21.748h299.641a21.748,21.748,0,0,0,21.749-21.748A21.749,21.749,0,0,0-2728.945,1906.629Z" transform="translate(3047.525 3661.35) rotate(90)" fill="#7763d3" stroke="#7763d3" stroke-width="2"/>
  <path id="Path_10-3" data-name="Path 10" d="M-2727.445,1904.843h-299.641a21.748,21.748,0,0,0-21.748,21.748,21.748,21.748,0,0,0,21.748,21.748h299.641a21.748,21.748,0,0,0,21.749-21.748A21.748,21.748,0,0,0-2727.445,1904.843Z" transform="translate(3046.247 3660.276) rotate(90)" fill="#7763d3" stroke="#7763d3" stroke-width="2"/>
  <path id="Path_11-3" data-name="Path 11" d="M-2725.945,1903.058h-299.64a21.748,21.748,0,0,0-21.748,21.748,21.748,21.748,0,0,0,21.748,21.748h299.64a21.748,21.748,0,0,0,21.748-21.748A21.748,21.748,0,0,0-2725.945,1903.058Z" transform="translate(3044.969 3659.202) rotate(90)" fill="#7763d3" stroke="#7763d3" stroke-width="2"/>
  <path id="Path_12-3" data-name="Path 12" d="M-2724.445,1901.271h-299.641a21.748,21.748,0,0,0-21.748,21.749,21.748,21.748,0,0,0,21.748,21.748h299.641a21.748,21.748,0,0,0,21.748-21.748A21.748,21.748,0,0,0-2724.445,1901.271Z" transform="translate(3043.69 3658.128) rotate(90)" fill="#7763d3" stroke="#7763d3" stroke-width="2"/>
  <path id="Path_13-3" data-name="Path 13" d="M-2722.945,1899.486h-299.641a21.748,21.748,0,0,0-21.748,21.748,21.748,21.748,0,0,0,21.748,21.748h299.641a21.748,21.748,0,0,0,21.748-21.748A21.748,21.748,0,0,0-2722.945,1899.486Z" transform="translate(3042.412 3657.054) rotate(90)" fill="#7763d3" stroke="#7763d3" stroke-width="2"/>
  <path id="Path_14-3" data-name="Path 14" d="M-2721.445,1897.7h-299.641a21.748,21.748,0,0,0-21.748,21.748,21.748,21.748,0,0,0,21.748,21.748h299.641a21.748,21.748,0,0,0,21.748-21.748A21.748,21.748,0,0,0-2721.445,1897.7Z" transform="translate(3041.134 3655.98) rotate(90)" fill="#7763d3" stroke="#7763d3" stroke-width="2"/>
  <path id="Path_15-3" data-name="Path 15" d="M-2719.945,1895.915h-299.641a21.748,21.748,0,0,0-21.748,21.748,21.748,21.748,0,0,0,21.748,21.748h299.641a21.748,21.748,0,0,0,21.748-21.748A21.748,21.748,0,0,0-2719.945,1895.915Z" transform="translate(3039.856 3654.907) rotate(90)" fill="#7763d3" stroke="#7763d3" stroke-width="2"/>
  <path id="Path_16-3" data-name="Path 16" d="M-2718.445,1894.129h-299.641a21.748,21.748,0,0,0-21.748,21.748,21.748,21.748,0,0,0,21.748,21.748h299.641a21.748,21.748,0,0,0,21.748-21.748A21.748,21.748,0,0,0-2718.445,1894.129Z" transform="translate(3038.578 3653.833) rotate(90)" fill="#7763d3" stroke="#7763d3" stroke-width="2"/>
  <path id="Path_17-3" data-name="Path 17" d="M-2716.945,1892.344h-299.641a21.748,21.748,0,0,0-21.748,21.748,21.748,21.748,0,0,0,21.748,21.748h299.641a21.748,21.748,0,0,0,21.748-21.748A21.748,21.748,0,0,0-2716.945,1892.344Z" transform="translate(3037.299 3652.759) rotate(90)" fill="#7763d3" stroke="#7763d3" stroke-width="2"/>
  <path id="Path_18-3" data-name="Path 18" d="M-2715.446,1890.558h-299.641a21.748,21.748,0,0,0-21.748,21.748,21.748,21.748,0,0,0,21.748,21.748h299.641a21.748,21.748,0,0,0,21.748-21.748A21.748,21.748,0,0,0-2715.446,1890.558Z" transform="translate(3036.021 3651.687) rotate(90)" fill="#7763d3" stroke="#7763d3" stroke-width="2"/>
  <path id="Path_19-3" data-name="Path 19" d="M-2713.946,1888.773h-299.641a21.748,21.748,0,0,0-21.748,21.748,21.748,21.748,0,0,0,21.748,21.748h299.641a21.748,21.748,0,0,0,21.748-21.748A21.748,21.748,0,0,0-2713.946,1888.773Z" transform="translate(3034.744 3650.613) rotate(90)" fill="#7763d3" stroke="#7763d3" stroke-width="2"/>
  <path id="Path_20-3" data-name="Path 20" d="M-2712.446,1886.987h-299.641a21.748,21.748,0,0,0-21.748,21.748,21.748,21.748,0,0,0,21.748,21.748h299.641a21.748,21.748,0,0,0,21.748-21.748A21.748,21.748,0,0,0-2712.446,1886.987Z" transform="translate(3033.465 3649.539) rotate(90)" fill="#7763d3" stroke="#7763d3" stroke-width="2"/>
  <path id="Path_21-3" data-name="Path 21" d="M-2710.946,1885.2h-299.641a21.748,21.748,0,0,0-21.748,21.748,21.748,21.748,0,0,0,21.748,21.748h299.641a21.748,21.748,0,0,0,21.749-21.748A21.748,21.748,0,0,0-2710.946,1885.2Z" transform="translate(3032.187 3648.465) rotate(90)" fill="#7763d3" stroke="#7763d3" stroke-width="2"/>
  <path id="Path_22-3" data-name="Path 22" d="M-2709.446,1883.416h-299.64a21.748,21.748,0,0,0-21.748,21.748,21.748,21.748,0,0,0,21.748,21.748h299.64a21.748,21.748,0,0,0,21.748-21.748A21.748,21.748,0,0,0-2709.446,1883.416Z" transform="translate(3030.909 3647.392) rotate(90)" fill="#7763d3" stroke="#7763d3" stroke-width="2"/>
  <path id="Path_23-3" data-name="Path 23" d="M-2707.946,1881.63h-299.641a21.748,21.748,0,0,0-21.748,21.748,21.748,21.748,0,0,0,21.748,21.748h299.641a21.749,21.749,0,0,0,21.749-21.748A21.749,21.749,0,0,0-2707.946,1881.63Z" transform="translate(3029.63 3646.317) rotate(90)" fill="#7763d3" stroke="#7763d3" stroke-width="2"/>
  <path id="Path_25-3" data-name="Path 25" d="M-2762.391,2099.128h-299.641a21.748,21.748,0,0,0-21.749,21.748,21.748,21.748,0,0,0,21.749,21.748h299.641a21.748,21.748,0,0,0,21.748-21.748A21.748,21.748,0,0,0-2762.391,2099.128Z" transform="translate(3237.124 3692.28) rotate(90)" fill="#c3f8fc" stroke="#7763d3" stroke-width="2"/>
  <text id="E_n_c_o_d_e_r-3" data-name="E
n
c
o
d
e
r" transform="translate(1109 731.428)" fill="#565bd1" font-size="24" font-family="Bahnschrift" font-weight="300"><tspan x="0" y="0">E</tspan><tspan x="0" y="24">n</tspan><tspan x="0" y="48">c</tspan><tspan x="0" y="72">o</tspan><tspan x="0" y="96">d</tspan><tspan x="0" y="120">e</tspan><tspan x="0" y="144">r</tspan></text>
  <text id="_12" data-name="12" transform="translate(1108 679)" fill="#565bd1" font-size="17" font-family="Bahnschrift" font-weight="300"><tspan x="0.782" y="13">12</tspan></text>
  <rect id="Rectangle_91" data-name="Rectangle 91" width="1221" height="543" transform="translate(350 2190)" fill="#eff5fe"/>
  <text id="욕설로_판단되는_글자를_마스킹해서_리턴" data-name="욕설로 판단되는 글자를 마스킹해서 리턴" transform="translate(399 2294)" font-size="40" font-family="NanumSquareOTFR, NanumSquareOTF"><tspan x="0" y="0">욕설로 판단되는 글자를 마스킹해서 리턴</tspan></text>
  <text id="_생긴거_진짜_개같네_" data-name="&quot;생긴거 진짜 개같네&quot;" transform="translate(399 2445)" font-size="40" font-family="NanumSquareOTFB, NanumSquareOTF"><tspan x="0" y="0">&quot;생긴거 진짜 </tspan><tspan y="0" fill="red">개같</tspan><tspan y="0">네&quot;</tspan></text>
  <text id="_생긴거_진짜_네_" data-name="&quot;생긴거 진짜      네&quot;" transform="translate(1201 2445)" stroke="rgba(0,0,0,0)" stroke-width="1" font-size="40" font-family="NanumSquareOTFB, NanumSquareOTF"><tspan x="0" y="0" xml:space="preserve">&quot;생긴거 진짜      네&quot;</tspan></text>
  <text id="_" data-name="**" transform="translate(1427 2451)" stroke="rgba(0,0,0,0)" stroke-width="1" font-size="40" font-family="NanumSquareOTFB, NanumSquareOTF"><tspan x="0" y="0">**</tspan></text>
  <line id="Line_2" data-name="Line 2" x2="261.5" transform="translate(760 2432.5)" fill="none" stroke="#6c54ce" stroke-linecap="round" stroke-width="2"/>
  <g id="Group_14" data-name="Group 14" transform="translate(-30 1900)" opacity="0.5">
    <text id="Masking_-_개발자의_편의를_위해_욕설로_판단된_문자를_특정_문자열로_치환_후_반환하는_기능_-_별도의_작업없이_Bit_Masking_API를_이용하는_것_만으로_기존의_서비스와_연동_가능" data-name="Masking
- 개발자의 편의를 위해 욕설로 판단된 문자를 특정 문자열로 치환 후 반환하는 기능
- 별도의 작업없이, Bit Masking API를 이용하는 것 만으로 기존의 서비스와 연동 가능" transform="translate(429 667)" font-size="32" font-family="NanumSquareOTFR, NanumSquareOTF"><tspan x="0" y="0">Masking</tspan><tspan x="0" y="54">- 개발자의 편의를 위해 욕설로 판단된 문자를 특정 문자열로 치환 후 반환하는 기능</tspan><tspan x="0" y="108">- 별도의 작업없이, Bit Masking API를 이용하는 것 만으로 기존의 서비스와 연동 가능</tspan></text>
  </g>
  <path id="Union_1-2" data-name="Union 1" d="M20,134A20,20,0,0,1,0,114V45.617A19.941,19.941,0,0,1,6.243,31.1a20.1,20.1,0,0,1,1.816-1.968,20.135,20.135,0,0,1,1.819-1.971,20.133,20.133,0,0,1,1.82-1.972,20.113,20.113,0,0,1,1.817-1.969,20.125,20.125,0,0,1,1.819-1.971,20.132,20.132,0,0,1,1.819-1.971,20.122,20.122,0,0,1,1.82-1.972,20.117,20.117,0,0,1,1.816-1.967,20.123,20.123,0,0,1,1.824-1.976A20.119,20.119,0,0,1,24.423,11.4a20.129,20.129,0,0,1,1.825-1.978,20.115,20.115,0,0,1,1.816-1.967A19.963,19.963,0,0,1,43.642,0H112a20,20,0,0,1,20,20V88.382a19.943,19.943,0,0,1-6.239,14.513,20.12,20.12,0,0,1-1.822,1.974,20.1,20.1,0,0,1-1.816,1.968,20.128,20.128,0,0,1-1.819,1.971,20.109,20.109,0,0,1-1.821,1.973,20.133,20.133,0,0,1-1.815,1.967,20.116,20.116,0,0,1-1.822,1.974,20.123,20.123,0,0,1-1.817,1.969,20.123,20.123,0,0,1-1.82,1.972,20.117,20.117,0,0,1-1.816,1.967,20.1,20.1,0,0,1-1.822,1.975,20.124,20.124,0,0,1-1.819,1.97,20.11,20.11,0,0,1-1.815,1.967A19.962,19.962,0,0,1,88.358,134Z" transform="translate(905 2366)" stroke="#6c54ce" stroke-width="2" fill="url(#linear-gradient-2)"/>
  <rect id="Rectangle_61-2" data-name="Rectangle 61" width="109" height="109" rx="20" transform="translate(905 2391)" fill="none" stroke="#6c54ce" stroke-width="2"/>
  <path id="Path_27-2" data-name="Path 27" d="M3712,585.227,3733.914,559" transform="translate(-2701.533 1814.013)" fill="#6c54ce" stroke="#6c54ce" stroke-linecap="round" stroke-width="2"/>
  <text id="API" transform="translate(960 2458)" fill="#fff" font-size="32" font-family="Bahnschrift"><tspan x="-24.57" y="0">API</tspan></text>
  <line id="Line_5-5" data-name="Line 5" x2="152.5" transform="translate(1027 2432.5)" fill="none" stroke="#6c54ce" stroke-linecap="round" stroke-width="2"/>
  <g id="Polygon_1-5" data-name="Polygon 1" transform="translate(1188 2424) rotate(90)" fill="#6c54ce">
    <path d="M 16.11149024963379 13.5 L 0.8885089159011841 13.5 L 8.5 0.9634264707565308 L 16.11149024963379 13.5 Z" stroke="none"/>
    <path d="M 8.5 1.92686939239502 L 1.77702808380127 13 L 15.22297191619873 13 L 8.5 1.92686939239502 M 8.5 0 L 17 14 L 0 14 L 8.5 0 Z" stroke="none" fill="#6c54ce"/>
  </g>
  <g id="Group_43-2" data-name="Group 43" transform="translate(0 1641)">
    <g id="Group_42" data-name="Group 42" transform="translate(0 11)">
      <line id="Line_8" data-name="Line 8" x2="431" transform="translate(399.5 538)" fill="none" stroke="#502eff" stroke-width="2"/>
      <line id="Line_9-2" data-name="Line 9" x2="431" transform="translate(1088.5 538)" fill="none" stroke="#502eff" stroke-width="2"/>
      <text id="MASKING" transform="translate(875 550)" fill="#502eff" font-size="40" font-family="Bahnschrift"><tspan x="0" y="0">MASKING</tspan></text>
    </g>
  </g>
  <rect id="Rectangle_92" data-name="Rectangle 92" width="1221" height="645" transform="translate(350 2854)" fill="#eff5fe"/>
  <text id="각_글자마다_욕설일_확률을_리턴" data-name="각 글자마다 욕설일 확률을 리턴" transform="translate(399 2957)" font-size="40" font-family="NanumSquareOTFR, NanumSquareOTF"><tspan x="0" y="0">각 글자마다 욕설일 확률을 리턴</tspan></text>
  <text id="_생긴거_진짜_개같네_2" data-name="&quot;생긴거 진짜 개같네&quot;" transform="translate(399 3096)" font-size="40" font-family="NanumSquareOTFB, NanumSquareOTF"><tspan x="0" y="0">&quot;생긴거 진짜 </tspan><tspan y="0" fill="red">개같</tspan><tspan y="0">네&quot;</tspan></text>
  <text id="_0.12_0.09_0.21_0.34_0.32_0.87_0.91_0.43" data-name="0.12, 0.09, 0.21
0.34, 0.32, 
0.87, 0.91, 0.43" transform="translate(1272 3045)" stroke="rgba(0,0,0,0)" stroke-width="1" font-size="32" font-family="NanumSquareOTFB, NanumSquareOTF"><tspan x="0" y="0">0.12, 0.09, 0.21</tspan><tspan x="0" y="48">0.34, 0.32, </tspan><tspan fill="red"><tspan x="0" y="96">0.87</tspan><tspan y="96" fill="#000">, </tspan><tspan y="96">0.91</tspan><tspan y="96" fill="#000">, 0.43</tspan></tspan></text>
  <line id="Line_6" data-name="Line 6" x2="261.5" transform="translate(760 3083.5)" fill="none" stroke="#6c54ce" stroke-linecap="round" stroke-width="2"/>
  <text id="Ratio_-_클라이언트의서비스에_맞는_욕설_처리를_위해_세분화_된_기능으로_특정_문자열이_욕설일_확률을_반환하는_기능입니다._-_별도의_Threshold_값을_지정해_한번_더_필터링을_거쳐야_하지만_보다_세분화된_욕설_필터링이_가능합니다._" data-name="Ratio
- 클라이언트의서비스에 맞는 욕설 처리를 위해 세분화 된 기능으로, 특정 문자열이 욕설일 확률을 반환하는 기능입니다.
- 별도의 Threshold 값을 지정해 한번 더 필터링을 거쳐야 하지만 보다 세분화된 욕설 필터링이 가능합니다.
" transform="translate(399 3191)" font-size="32" font-family="NanumSquareOTFR, NanumSquareOTF" opacity="0.5"><tspan x="0" y="27">Ratio</tspan><tspan x="0" y="81">- 클라이언트의서비스에 맞는 욕설 처리를 위해 세분화 된 기능으로, 특정 문자열이 욕</tspan><tspan x="0" y="135">설일 확률을 반환하는 기능입니다.</tspan><tspan x="0" y="189">- 별도의 Threshold 값을 지정해 한번 더 필터링을 거쳐야 하지만 보다 세분화된 욕설 </tspan><tspan x="0" y="243">필터링이 가능합니다.</tspan></text>
  <path id="Union_2" data-name="Union 2" d="M20,134A20,20,0,0,1,0,114V45.617A19.941,19.941,0,0,1,6.243,31.1a20.1,20.1,0,0,1,1.816-1.968,20.135,20.135,0,0,1,1.819-1.971,20.133,20.133,0,0,1,1.82-1.972,20.113,20.113,0,0,1,1.817-1.969,20.125,20.125,0,0,1,1.819-1.971,20.132,20.132,0,0,1,1.819-1.971,20.122,20.122,0,0,1,1.82-1.972,20.117,20.117,0,0,1,1.816-1.967,20.123,20.123,0,0,1,1.824-1.976A20.119,20.119,0,0,1,24.423,11.4a20.129,20.129,0,0,1,1.825-1.978,20.115,20.115,0,0,1,1.816-1.967A19.963,19.963,0,0,1,43.642,0H112a20,20,0,0,1,20,20V88.382a19.943,19.943,0,0,1-6.239,14.513,20.12,20.12,0,0,1-1.822,1.974,20.1,20.1,0,0,1-1.816,1.968,20.128,20.128,0,0,1-1.819,1.971,20.109,20.109,0,0,1-1.821,1.973,20.133,20.133,0,0,1-1.815,1.967,20.116,20.116,0,0,1-1.822,1.974,20.123,20.123,0,0,1-1.817,1.969,20.123,20.123,0,0,1-1.82,1.972,20.117,20.117,0,0,1-1.816,1.967,20.1,20.1,0,0,1-1.822,1.975,20.124,20.124,0,0,1-1.819,1.97,20.11,20.11,0,0,1-1.815,1.967A19.962,19.962,0,0,1,88.358,134Z" transform="translate(905 3017)" stroke="#6c54ce" stroke-width="2" fill="url(#linear-gradient-2)"/>
  <rect id="Rectangle_90" data-name="Rectangle 90" width="109" height="109" rx="20" transform="translate(905 3042)" fill="none" stroke="#6c54ce" stroke-width="2"/>
  <path id="Path_29" data-name="Path 29" d="M3712,585.227,3733.914,559" transform="translate(-2701.533 2465.013)" fill="#6c54ce" stroke="#6c54ce" stroke-linecap="round" stroke-width="2"/>
  <text id="API-2" data-name="API" transform="translate(960 3109)" fill="#fff" font-size="32" font-family="Bahnschrift"><tspan x="-24.57" y="0">API</tspan></text>
  <line id="Line_7-2" data-name="Line 7" x2="152.5" transform="translate(1027 3083.5)" fill="none" stroke="#6c54ce" stroke-linecap="round" stroke-width="2"/>
  <g id="Polygon_2-2" data-name="Polygon 2" transform="translate(1188 3075) rotate(90)" fill="#6c54ce">
    <path d="M 16.11149024963379 13.5 L 0.8885089159011841 13.5 L 8.5 0.9634264707565308 L 16.11149024963379 13.5 Z" stroke="none"/>
    <path d="M 8.5 1.92686939239502 L 1.77702808380127 13 L 15.22297191619873 13 L 8.5 1.92686939239502 M 8.5 0 L 17 14 L 0 14 L 8.5 0 Z" stroke="none" fill="#6c54ce"/>
  </g>
  <line id="Line_8-2" data-name="Line 8" x2="431" transform="translate(399.5 2853)" fill="none" stroke="#502eff" stroke-width="2"/>
  <line id="Line_9-3" data-name="Line 9" x2="431" transform="translate(1088.5 2853)" fill="none" stroke="#502eff" stroke-width="2"/>
  <text id="RATIO" transform="translate(907 2865)" fill="#502eff" font-size="40" font-family="Bahnschrift"><tspan x="0" y="0">RATIO</tspan></text>
  <rect id="Rectangle_59" data-name="Rectangle 59" width="1920" height="286" transform="translate(0 3599)" fill="#222d39"/>
  <text id="BWAI는_SWMestro에서_진행된_프로젝트입니다._copyright_2020_All_rights_reserved_by_BWAI" data-name="BWAI는 SWMestro에서 진행된 프로젝트입니다.
copyright 2020 All rights reserved by BWAI" transform="translate(960 3743)" fill="#fff" font-size="24" font-family="NanumSquareOTFR, NanumSquareOTF"><tspan x="-248.544" y="0">BWAI는 SWMESTRO에서 진행된 프로젝트입니다.</tspan><tspan x="-273.828" y="36">COPYRIGHT 2020 ALL RIGHTS RESERVED BY BWAI</tspan></text>
  <g id="Group_41-2" data-name="Group 41" transform="translate(0 2178)">
    <text id="LABELLING" transform="translate(1267 1490)" fill="#fff" font-size="24" font-family="Bahnschrift" font-weight="600" opacity="0.5"><tspan x="-52.037" y="0">LABELLING</tspan></text>
    <text id="DEMO" transform="translate(1124 1490)" fill="#fff" font-size="24" font-family="Bahnschrift" font-weight="600" opacity="0.5"><tspan x="-26.842" y="0">DEMO</tspan></text>
    <text id="PRICE" transform="translate(1005 1490)" fill="#fff" font-size="24" font-family="Bahnschrift" font-weight="600" opacity="0.5"><tspan x="-27.604" y="0">PRICE</tspan></text>
    <text id="SERVICE" transform="translate(873 1490)" fill="#fff" font-size="24" font-family="Bahnschrift" font-weight="600" opacity="0.5"><tspan x="-39.252" y="0">SERVICE</tspan></text>
    <text id="TEAM" transform="translate(744 1490)" fill="#fff" font-size="24" font-family="Bahnschrift" font-weight="600" opacity="0.5"><tspan x="-25.588" y="0">TEAM</tspan></text>
    <text id="HOME" transform="translate(627 1490)" fill="#fff" font-size="24" font-family="Bahnschrift" font-weight="600" opacity="0.5"><tspan x="-26.936" y="0">HOME</tspan></text>
  </g>
  <text id="생긴거" transform="translate(1204 3041)" stroke="rgba(0,0,0,0)" stroke-width="1" font-size="20" font-family="NanumSquareOTFB, NanumSquareOTF" letter-spacing="-0.02em"><tspan x="0" y="0">생긴거</tspan></text>
  <text id="진짜" transform="translate(1204 3089)" stroke="rgba(0,0,0,0)" stroke-width="1" font-size="20" font-family="NanumSquareOTFB, NanumSquareOTF" letter-spacing="-0.02em"><tspan x="0" y="0">진짜</tspan></text>
  <text id="개같네" transform="translate(1204 3137)" fill="red" stroke="rgba(0,0,0,0)" stroke-width="1" font-size="20" font-family="NanumSquareOTFB, NanumSquareOTF" letter-spacing="-0.02em"><tspan x="0" y="0">개같</tspan><tspan y="0" fill="#000">네</tspan></text>
</svg>
